<?xml version="1.0" encoding="UTF-8" standalone="no"?>
<!--?xml version="1.0" encoding="UTF-8" standalone="no"?-->

<svg
   width="130mm"
   height="64mm"
   id="svg2"
   version="1.1"
   sodipodi:docname="plaits.svg"
   inkscape:version="1.1.2 (0a00cf5339, 2022-02-04)"
   xmlns:inkscape="http://www.inkscape.org/namespaces/inkscape"
   xmlns:sodipodi="http://sodipodi.sourceforge.net/DTD/sodipodi-0.dtd"
   xmlns="http://www.w3.org/2000/svg"
   xmlns:svg="http://www.w3.org/2000/svg">
  <sodipodi:namedview
     id="namedview731"
     pagecolor="#ffffff"
     bordercolor="#000000"
     borderopacity="0.25"
     inkscape:pageshadow="2"
     inkscape:pageopacity="0.0"
     inkscape:pagecheckerboard="0"
     inkscape:document-units="mm"
     showgrid="false"
     inkscape:zoom="1.2810466"
     inkscape:cx="513.25222"
     inkscape:cy="377.03547"
     inkscape:window-width="2256"
     inkscape:window-height="1435"
     inkscape:window-x="0"
     inkscape:window-y="41"
     inkscape:window-maximized="1"
     inkscape:current-layer="svg2" />
  <defs
     id="defs4">
    <marker
       orient="auto"
       refY="0"
       refX="0"
       id="Arrow1Mend"
       style="overflow:visible">
      <path
         d="M 0,0 2,-5 -12.5,0 5,5 Z"
         style="fill-rule:evenodd;stroke-width:1pt"
         transform="matrix(-0.22,0,0,-0.22,-2,0)"
         id="path2" />
    </marker>
  </defs>
  <g
     id="g4314"
     transform="translate(-39,-12)">
    <g
       id="svg-r1-c3"
       style="stroke:#000000"
       transform="matrix(2.7,0,0,2.7,146.6,-2596.8)">
      <path
         style="fill:#ffffff;stroke-width:1"
         d="m -18.064645,978.05982 c 0,0.55229 -0.223858,1.05229 -0.585787,1.41422 -0.361929,0.36192 -0.861929,0.58578 -1.414213,0.58578 -0.552284,0 -1.052284,-0.22386 -1.414213,-0.58578 -0.361929,-0.36193 -0.585787,-0.86193 -0.585787,-1.41422 0,-0.55228 0.223858,-1.05228 0.585787,-1.41421 0.361929,-0.36193 0.861929,-0.58579 1.414213,-0.58579 0.552284,0 1.052284,0.22386 1.414213,0.58579 0.361929,0.36193 0.585787,0.86193 0.585787,1.41421 z"
         id="path2319" />
      <text
         y="979.27722"
         x="-21.02791"
         style="font-size:3.3px;font-family:Arial;fill:#000000;stroke:none"
         id="text2321">2</text>
      <path
         d="m -12,978 h -6"
         style="fill:none;stroke:#000000;stroke-width:1.1;marker-end:url(#Arrow1Mend)"
         id="path2323" />
      <path
         d="m -29,969 7,7"
         style="fill:none;stroke:#000000;stroke-width:1.1;marker-end:url(#Arrow1Mend)"
         id="path2325" />
    </g>
    <g
       id="svg-r1-c2"
       style="stroke:#000000"
       transform="matrix(2.7,0,0,2.7,119.6,-2596.8)">
      <path
         style="fill:#ffffff;stroke-width:1"
         d="m -18.064645,978.05982 c 0,0.55229 -0.223858,1.05229 -0.585787,1.41422 -0.361929,0.36192 -0.861929,0.58578 -1.414213,0.58578 -0.552284,0 -1.052284,-0.22386 -1.414213,-0.58578 -0.361929,-0.36193 -0.585787,-0.86193 -0.585787,-1.41422 0,-0.55228 0.223858,-1.05228 0.585787,-1.41421 0.361929,-0.36193 0.861929,-0.58579 1.414213,-0.58579 0.552284,0 1.052284,0.22386 1.414213,0.58579 0.361929,0.36193 0.585787,0.86193 0.585787,1.41421 z"
         id="path2469" />
      <text
         y="979.27722"
         x="-21.02791"
         style="font-size:3.3px;font-family:Arial;fill:#000000;stroke:none"
         id="text2471">3</text>
      <path
         d="m -28,978 h 6"
         style="fill:none;stroke:#000000;stroke-width:1.1;marker-end:url(#Arrow1Mend)"
         id="path2473" />
      <path
         d="m -12,978 h -6"
         style="fill:none;stroke:#000000;stroke-width:1.1;marker-end:url(#Arrow1Mend)"
         id="path2475" />
    </g>
    <g
       id="svg-r2-c3"
       style="stroke:#000000"
       transform="matrix(2.7,0,0,2.7,146.6,-2569.8)">
      <path
         style="fill:#ffffff;stroke-width:1"
         d="m -18.064645,978.05982 c 0,0.55229 -0.223858,1.05229 -0.585787,1.41422 -0.361929,0.36192 -0.861929,0.58578 -1.414213,0.58578 -0.552284,0 -1.052284,-0.22386 -1.414213,-0.58578 -0.361929,-0.36193 -0.585787,-0.86193 -0.585787,-1.41422 0,-0.55228 0.223858,-1.05228 0.585787,-1.41421 0.361929,-0.36193 0.861929,-0.58579 1.414213,-0.58579 0.552284,0 1.052284,0.22386 1.414213,0.58579 0.361929,0.36193 0.585787,0.86193 0.585787,1.41421 z"
         id="path2829" />
      <text
         y="979.27722"
         x="-21.02791"
         style="font-size:3.3px;font-family:Arial;fill:#000000;stroke:none"
         id="text2831">7</text>
      <path
         d="m -20,970 v 6"
         style="fill:none;stroke:#000000;stroke-width:1.1;marker-end:url(#Arrow1Mend)"
         id="path2833" />
      <path
         d="m -29,969 7,7"
         style="fill:none;stroke:#000000;stroke-width:1.1;marker-end:url(#Arrow1Mend)"
         id="path2835" />
    </g>
  </g>
  <g
     id="g4331"
     transform="translate(-53,28)">
    <g
       id="svg-r2-c5"
       style="stroke:#000000"
       transform="matrix(2.7,0,0,2.7,160.6,-2518.675)">
      <path
         style="fill:#ffffff;stroke-width:1"
         d="m -18.064645,978.05982 c 0,0.55229 -0.223858,1.05229 -0.585787,1.41422 -0.361929,0.36192 -0.861929,0.58578 -1.414213,0.58578 -0.552284,0 -1.052284,-0.22386 -1.414213,-0.58578 -0.361929,-0.36193 -0.585787,-0.86193 -0.585787,-1.41422 0,-0.55228 0.223858,-1.05228 0.585787,-1.41421 0.361929,-0.36193 0.861929,-0.58579 1.414213,-0.58579 0.552284,0 1.052284,0.22386 1.414213,0.58579 0.361929,0.36193 0.585787,0.86193 0.585787,1.41421 z"
         id="path2489" />
      <text
         y="979.27722"
         x="-21.02791"
         style="font-size:3.3px;font-family:Arial;fill:#000000;stroke:none"
         id="text2491">3</text>
      <path
         d="m -28,978 h 6"
         style="fill:none;stroke:#000000;stroke-width:1.1;marker-end:url(#Arrow1Mend)"
         id="path2493" />
      <path
         d="m -12,978 h -6"
         style="fill:none;stroke:#000000;stroke-width:1.1;marker-end:url(#Arrow1Mend)"
         id="path2495" />
    </g>
    <g
       id="svg-r2-c4"
       style="stroke:#000000"
       transform="matrix(2.7,0,0,2.7,133.6,-2518.675)">
      <path
         style="fill:#ffffff;stroke-width:1"
         d="m -18.064645,978.05982 c 0,0.55229 -0.223858,1.05229 -0.585787,1.41422 -0.361929,0.36192 -0.861929,0.58578 -1.414213,0.58578 -0.552284,0 -1.052284,-0.22386 -1.414213,-0.58578 -0.361929,-0.36193 -0.585787,-0.86193 -0.585787,-1.41422 0,-0.55228 0.223858,-1.05228 0.585787,-1.41421 0.361929,-0.36193 0.861929,-0.58579 1.414213,-0.58579 0.552284,0 1.052284,0.22386 1.414213,0.58579 0.361929,0.36193 0.585787,0.86193 0.585787,1.41421 z"
         id="path3049" />
      <text
         y="979.27722"
         x="-21.02791"
         style="font-size:3.3px;font-family:Arial;fill:#000000;stroke:none"
         id="text3051">8</text>
      <path
         d="m -20,970 v 6"
         style="fill:none;stroke:#000000;stroke-width:1.1;marker-end:url(#Arrow1Mend)"
         id="path3053" />
      <path
         d="m -28,978 h 6"
         style="fill:none;stroke:#000000;stroke-width:1.1;marker-end:url(#Arrow1Mend)"
         id="path3055" />
    </g>
    <g
       id="svg-r3-c4"
       style="stroke:#000000"
       transform="matrix(2.7,0,0,2.7,133.6,-2491.675)">
      <path
         style="fill:#ffffff;stroke-width:1"
         d="m -18.064645,978.05982 c 0,0.55229 -0.223858,1.05229 -0.585787,1.41422 -0.361929,0.36192 -0.861929,0.58578 -1.414213,0.58578 -0.552284,0 -1.052284,-0.22386 -1.414213,-0.58578 -0.361929,-0.36193 -0.585787,-0.86193 -0.585787,-1.41422 0,-0.55228 0.223858,-1.05228 0.585787,-1.41421 0.361929,-0.36193 0.861929,-0.58579 1.414213,-0.58579 0.552284,0 1.052284,0.22386 1.414213,0.58579 0.361929,0.36193 0.585787,0.86193 0.585787,1.41421 z"
         id="path2739" />
      <text
         y="979.27722"
         x="-21.02791"
         style="font-size:3.3px;font-family:Arial;fill:#000000;stroke:none"
         id="text2741">4</text>
      <path
         d="m -12,969 -7,7"
         style="fill:none;stroke:#000000;stroke-width:1.1;marker-end:url(#Arrow1Mend)"
         id="path2743" />
      <path
         d="m -20,970 v 6"
         style="fill:none;stroke:#000000;stroke-width:1.1;marker-end:url(#Arrow1Mend)"
         id="path2745" />
    </g>
  </g>
  <g
     id="g4353"
     transform="translate(-49,-12)">
    <g
       id="g3983"
       style="stroke:#000000"
       transform="matrix(2.7,0,0,2.7,266.6,-2596.8)">
      <path
         style="fill:#ffffff;stroke-width:1"
         d="m -18.064645,978.05982 c 0,0.55229 -0.223858,1.05229 -0.585787,1.41422 -0.361929,0.36192 -0.861929,0.58578 -1.414213,0.58578 -0.552284,0 -1.052284,-0.22386 -1.414213,-0.58578 -0.361929,-0.36193 -0.585787,-0.86193 -0.585787,-1.41422 0,-0.55228 0.223858,-1.05228 0.585787,-1.41421 0.361929,-0.36193 0.861929,-0.58579 1.414213,-0.58579 0.552284,0 1.052284,0.22386 1.414213,0.58579 0.361929,0.36193 0.585787,0.86193 0.585787,1.41421 z"
         id="path3975" />
      <text
         y="979.27722"
         x="-21.02791"
         style="font-size:3.3px;font-family:Arial;fill:#000000;stroke:none"
         id="text3977">2</text>
      <path
         d="m -12,978 h -6"
         style="fill:none;stroke:#000000;stroke-width:1.1;marker-end:url(#Arrow1Mend)"
         id="path3979" />
      <path
         d="m -29,969 7,7"
         style="fill:none;stroke:#000000;stroke-width:1.1;marker-end:url(#Arrow1Mend)"
         id="path3981" />
    </g>
    <g
       id="g3993"
       style="stroke:#000000"
       transform="matrix(2.7,0,0,2.7,239.6,-2596.8)">
      <path
         style="fill:#ffffff;stroke-width:1"
         d="m -18.064645,978.05982 c 0,0.55229 -0.223858,1.05229 -0.585787,1.41422 -0.361929,0.36192 -0.861929,0.58578 -1.414213,0.58578 -0.552284,0 -1.052284,-0.22386 -1.414213,-0.58578 -0.361929,-0.36193 -0.585787,-0.86193 -0.585787,-1.41422 0,-0.55228 0.223858,-1.05228 0.585787,-1.41421 0.361929,-0.36193 0.861929,-0.58579 1.414213,-0.58579 0.552284,0 1.052284,0.22386 1.414213,0.58579 0.361929,0.36193 0.585787,0.86193 0.585787,1.41421 z"
         id="path3985" />
      <text
         y="979.27722"
         x="-21.02791"
         style="font-size:3.3px;font-family:Arial;fill:#000000;stroke:none"
         id="text3987">3</text>
      <path
         d="m -28,978 h 6"
         style="fill:none;stroke:#000000;stroke-width:1.1;marker-end:url(#Arrow1Mend)"
         id="path3989" />
      <path
         d="m -12,978 h -6"
         style="fill:none;stroke:#000000;stroke-width:1.1;marker-end:url(#Arrow1Mend)"
         id="path3991" />
    </g>
    <g
       id="g4003"
       style="stroke:#000000"
       transform="matrix(2.7,0,0,2.7,266.6,-2569.8)">
      <path
         style="fill:#ffffff;stroke-width:1"
         d="m -18.064645,978.05982 c 0,0.55229 -0.223858,1.05229 -0.585787,1.41422 -0.361929,0.36192 -0.861929,0.58578 -1.414213,0.58578 -0.552284,0 -1.052284,-0.22386 -1.414213,-0.58578 -0.361929,-0.36193 -0.585787,-0.86193 -0.585787,-1.41422 0,-0.55228 0.223858,-1.05228 0.585787,-1.41421 0.361929,-0.36193 0.861929,-0.58579 1.414213,-0.58579 0.552284,0 1.052284,0.22386 1.414213,0.58579 0.361929,0.36193 0.585787,0.86193 0.585787,1.41421 z"
         id="path3995" />
      <text
         y="979.27722"
         x="-21.02791"
         style="font-size:3.3px;font-family:Arial;fill:#000000;stroke:none"
         id="text3997">7</text>
      <path
         d="m -20,970 v 6"
         style="fill:none;stroke:#000000;stroke-width:1.1;marker-end:url(#Arrow1Mend)"
         id="path3999" />
      <path
         d="m -29,969 7,7"
         style="fill:none;stroke:#000000;stroke-width:1.1;marker-end:url(#Arrow1Mend)"
         id="path4001" />
    </g>
    <g
       id="g4013"
       style="stroke:#000000"
       transform="matrix(2.7,0,0,2.7,239.6,-2569.8)">
      <path
         style="fill:#ffffff;stroke-width:1"
         d="m -18.064645,978.05982 c 0,0.55229 -0.223858,1.05229 -0.585787,1.41422 -0.361929,0.36192 -0.861929,0.58578 -1.414213,0.58578 -0.552284,0 -1.052284,-0.22386 -1.414213,-0.58578 -0.361929,-0.36193 -0.585787,-0.86193 -0.585787,-1.41422 0,-0.55228 0.223858,-1.05228 0.585787,-1.41421 0.361929,-0.36193 0.861929,-0.58579 1.414213,-0.58579 0.552284,0 1.052284,0.22386 1.414213,0.58579 0.361929,0.36193 0.585787,0.86193 0.585787,1.41421 z"
         id="path4005" />
      <text
         y="979.27722"
         x="-21.02791"
         style="font-size:3.3px;font-family:Arial;fill:#000000;stroke:none"
         id="text4007">1</text>
      <path
         d="m -12,978 h -6"
         style="fill:none;stroke:#000000;stroke-width:1.1;marker-end:url(#Arrow1Mend)"
         id="path4009" />
      <path
         d="m -20,970 v 6"
         style="fill:none;stroke:#000000;stroke-width:1.1;marker-end:url(#Arrow1Mend)"
         id="path4011" />
    </g>
  </g>
  <g
     id="g4375"
     transform="translate(-43,28)">
    <g
       id="g4025"
       style="stroke:#000000"
       transform="matrix(2.7,0,0,2.7,260.6,-2518.675)">
      <path
         style="fill:#ffffff;stroke-width:1"
         d="m -18.064645,978.05982 c 0,0.55229 -0.223858,1.05229 -0.585787,1.41422 -0.361929,0.36192 -0.861929,0.58578 -1.414213,0.58578 -0.552284,0 -1.052284,-0.22386 -1.414213,-0.58578 -0.361929,-0.36193 -0.585787,-0.86193 -0.585787,-1.41422 0,-0.55228 0.223858,-1.05228 0.585787,-1.41421 0.361929,-0.36193 0.861929,-0.58579 1.414213,-0.58579 0.552284,0 1.052284,0.22386 1.414213,0.58579 0.361929,0.36193 0.585787,0.86193 0.585787,1.41421 z"
         id="path4017" />
      <text
         y="979.27722"
         x="-21.02791"
         style="font-size:3.3px;font-family:Arial;fill:#000000;stroke:none"
         id="text4019">3</text>
      <path
         d="m -28,978 h 6"
         style="fill:none;stroke:#000000;stroke-width:1.1;marker-end:url(#Arrow1Mend)"
         id="path4021" />
      <path
         d="m -12,978 h -6"
         style="fill:none;stroke:#000000;stroke-width:1.1;marker-end:url(#Arrow1Mend)"
         id="path4023" />
    </g>
    <g
       id="g4035"
       style="stroke:#000000"
       transform="matrix(2.7,0,0,2.7,233.6,-2518.675)">
      <path
         style="fill:#ffffff;stroke-width:1"
         d="m -18.064645,978.05982 c 0,0.55229 -0.223858,1.05229 -0.585787,1.41422 -0.361929,0.36192 -0.861929,0.58578 -1.414213,0.58578 -0.552284,0 -1.052284,-0.22386 -1.414213,-0.58578 -0.361929,-0.36193 -0.585787,-0.86193 -0.585787,-1.41422 0,-0.55228 0.223858,-1.05228 0.585787,-1.41421 0.361929,-0.36193 0.861929,-0.58579 1.414213,-0.58579 0.552284,0 1.052284,0.22386 1.414213,0.58579 0.361929,0.36193 0.585787,0.86193 0.585787,1.41421 z"
         id="path4027" />
      <text
         y="979.27722"
         x="-21.02791"
         style="font-size:3.3px;font-family:Arial;fill:#000000;stroke:none"
         id="text4029">8</text>
      <path
         d="m -20,970 v 6"
         style="fill:none;stroke:#000000;stroke-width:1.1;marker-end:url(#Arrow1Mend)"
         id="path4031" />
      <path
         d="m -28,978 h 6"
         style="fill:none;stroke:#000000;stroke-width:1.1;marker-end:url(#Arrow1Mend)"
         id="path4033" />
    </g>
    <g
       id="g4045"
       style="stroke:#000000"
       transform="matrix(2.7,0,0,2.7,260.6,-2491.675)">
      <path
         style="fill:#ffffff;stroke-width:1"
         d="m -18.064645,978.05982 c 0,0.55229 -0.223858,1.05229 -0.585787,1.41422 -0.361929,0.36192 -0.861929,0.58578 -1.414213,0.58578 -0.552284,0 -1.052284,-0.22386 -1.414213,-0.58578 -0.361929,-0.36193 -0.585787,-0.86193 -0.585787,-1.41422 0,-0.55228 0.223858,-1.05228 0.585787,-1.41421 0.361929,-0.36193 0.861929,-0.58579 1.414213,-0.58579 0.552284,0 1.052284,0.22386 1.414213,0.58579 0.361929,0.36193 0.585787,0.86193 0.585787,1.41421 z"
         id="path4037" />
      <text
         y="979.27722"
         x="-21.02791"
         style="font-size:3.3px;font-family:Arial;fill:#000000;stroke:none"
         id="text4039">8</text>
      <path
         d="m -20,970 v 6"
         style="fill:none;stroke:#000000;stroke-width:1.1;marker-end:url(#Arrow1Mend)"
         id="path4041" />
      <path
         d="m -28,978 h 6"
         style="fill:none;stroke:#000000;stroke-width:1.1;marker-end:url(#Arrow1Mend)"
         id="path4043" />
    </g>
    <g
       id="g4055"
       style="stroke:#000000"
       transform="matrix(2.7,0,0,2.7,233.6,-2491.675)">
      <path
         style="fill:#ffffff;stroke-width:1"
         d="m -18.064645,978.05982 c 0,0.55229 -0.223858,1.05229 -0.585787,1.41422 -0.361929,0.36192 -0.861929,0.58578 -1.414213,0.58578 -0.552284,0 -1.052284,-0.22386 -1.414213,-0.58578 -0.361929,-0.36193 -0.585787,-0.86193 -0.585787,-1.41422 0,-0.55228 0.223858,-1.05228 0.585787,-1.41421 0.361929,-0.36193 0.861929,-0.58579 1.414213,-0.58579 0.552284,0 1.052284,0.22386 1.414213,0.58579 0.361929,0.36193 0.585787,0.86193 0.585787,1.41421 z"
         id="path4047" />
      <text
         y="979.27722"
         x="-21.02791"
         style="font-size:3.3px;font-family:Arial;fill:#000000;stroke:none"
         id="text4049">4</text>
      <path
         d="m -12,969 -7,7"
         style="fill:none;stroke:#000000;stroke-width:1.1;marker-end:url(#Arrow1Mend)"
         id="path4051" />
      <path
         d="m -20,970 v 6"
         style="fill:none;stroke:#000000;stroke-width:1.1;marker-end:url(#Arrow1Mend)"
         id="path4053" />
    </g>
  </g>
  <g
     id="g4417"
     transform="translate(51,-12)">
    <g
       id="g4385"
       style="stroke:#000000"
       transform="matrix(2.7,0,0,2.7,266.6,-2596.8)">
      <path
         style="fill:#ffffff;stroke-width:1"
         d="m -18.064645,978.05982 c 0,0.55229 -0.223858,1.05229 -0.585787,1.41422 -0.361929,0.36192 -0.861929,0.58578 -1.414213,0.58578 -0.552284,0 -1.052284,-0.22386 -1.414213,-0.58578 -0.361929,-0.36193 -0.585787,-0.86193 -0.585787,-1.41422 0,-0.55228 0.223858,-1.05228 0.585787,-1.41421 0.361929,-0.36193 0.861929,-0.58579 1.414213,-0.58579 0.552284,0 1.052284,0.22386 1.414213,0.58579 0.361929,0.36193 0.585787,0.86193 0.585787,1.41421 z"
         id="path4377" />
      <text
         y="979.27722"
         x="-21.02791"
         style="font-size:3.3px;font-family:Arial;fill:#000000;stroke:none"
         id="text4379">2</text>
      <path
         d="m -12,978 h -6"
         style="fill:none;stroke:#000000;stroke-width:1.1;marker-end:url(#Arrow1Mend)"
         id="path4381" />
      <path
         d="m -29,969 7,7"
         style="fill:none;stroke:#000000;stroke-width:1.1;marker-end:url(#Arrow1Mend)"
         id="path4383" />
    </g>
    <g
       id="g4395"
       style="stroke:#000000"
       transform="matrix(2.7,0,0,2.7,239.6,-2596.8)">
      <path
         style="fill:#ffffff;stroke-width:1"
         d="m -18.064645,978.05982 c 0,0.55229 -0.223858,1.05229 -0.585787,1.41422 -0.361929,0.36192 -0.861929,0.58578 -1.414213,0.58578 -0.552284,0 -1.052284,-0.22386 -1.414213,-0.58578 -0.361929,-0.36193 -0.585787,-0.86193 -0.585787,-1.41422 0,-0.55228 0.223858,-1.05228 0.585787,-1.41421 0.361929,-0.36193 0.861929,-0.58579 1.414213,-0.58579 0.552284,0 1.052284,0.22386 1.414213,0.58579 0.361929,0.36193 0.585787,0.86193 0.585787,1.41421 z"
         id="path4387" />
      <text
         y="979.27722"
         x="-21.02791"
         style="font-size:3.3px;font-family:Arial;fill:#000000;stroke:none"
         id="text4389">3</text>
      <path
         d="m -28,978 h 6"
         style="fill:none;stroke:#000000;stroke-width:1.1;marker-end:url(#Arrow1Mend)"
         id="path4391" />
      <path
         d="m -12,978 h -6"
         style="fill:none;stroke:#000000;stroke-width:1.1;marker-end:url(#Arrow1Mend)"
         id="path4393" />
    </g>
    <g
       id="g4405"
       style="stroke:#000000"
       transform="matrix(2.7,0,0,2.7,266.6,-2569.8)">
      <path
         style="fill:#ffffff;stroke-width:1"
         d="m -18.064645,978.05982 c 0,0.55229 -0.223858,1.05229 -0.585787,1.41422 -0.361929,0.36192 -0.861929,0.58578 -1.414213,0.58578 -0.552284,0 -1.052284,-0.22386 -1.414213,-0.58578 -0.361929,-0.36193 -0.585787,-0.86193 -0.585787,-1.41422 0,-0.55228 0.223858,-1.05228 0.585787,-1.41421 0.361929,-0.36193 0.861929,-0.58579 1.414213,-0.58579 0.552284,0 1.052284,0.22386 1.414213,0.58579 0.361929,0.36193 0.585787,0.86193 0.585787,1.41421 z"
         id="path4397" />
      <text
         y="979.27722"
         x="-21.02791"
         style="font-size:3.3px;font-family:Arial;fill:#000000;stroke:none"
         id="text4399">7</text>
      <path
         d="m -20,970 v 6"
         style="fill:none;stroke:#000000;stroke-width:1.1;marker-end:url(#Arrow1Mend)"
         id="path4401" />
      <path
         d="m -29,969 7,7"
         style="fill:none;stroke:#000000;stroke-width:1.1;marker-end:url(#Arrow1Mend)"
         id="path4403" />
    </g>
    <g
       id="g4415"
       style="stroke:#000000"
       transform="matrix(2.7,0,0,2.7,239.6,-2569.8)">
      <path
         style="fill:#ffffff;stroke-width:1"
         d="m -18.064645,978.05982 c 0,0.55229 -0.223858,1.05229 -0.585787,1.41422 -0.361929,0.36192 -0.861929,0.58578 -1.414213,0.58578 -0.552284,0 -1.052284,-0.22386 -1.414213,-0.58578 -0.361929,-0.36193 -0.585787,-0.86193 -0.585787,-1.41422 0,-0.55228 0.223858,-1.05228 0.585787,-1.41421 0.361929,-0.36193 0.861929,-0.58579 1.414213,-0.58579 0.552284,0 1.052284,0.22386 1.414213,0.58579 0.361929,0.36193 0.585787,0.86193 0.585787,1.41421 z"
         id="path4407" />
      <text
         y="979.27722"
         x="-21.02791"
         style="font-size:3.3px;font-family:Arial;fill:#000000;stroke:none"
         id="text4409">1</text>
      <path
         d="m -12,978 h -6"
         style="fill:none;stroke:#000000;stroke-width:1.1;marker-end:url(#Arrow1Mend)"
         id="path4411" />
      <path
         d="m -20,970 v 6"
         style="fill:none;stroke:#000000;stroke-width:1.1;marker-end:url(#Arrow1Mend)"
         id="path4413" />
    </g>
    <g
       id="g4479"
       style="stroke:#000000"
       transform="matrix(2.7,0,0,2.7,266.6,-2541.8)">
      <path
         style="fill:#ffffff;stroke-width:1"
         d="m -18.064645,978.05982 c 0,0.55229 -0.223858,1.05229 -0.585787,1.41422 -0.361929,0.36192 -0.861929,0.58578 -1.414213,0.58578 -0.552284,0 -1.052284,-0.22386 -1.414213,-0.58578 -0.361929,-0.36193 -0.585787,-0.86193 -0.585787,-1.41422 0,-0.55228 0.223858,-1.05228 0.585787,-1.41421 0.361929,-0.36193 0.861929,-0.58579 1.414213,-0.58579 0.552284,0 1.052284,0.22386 1.414213,0.58579 0.361929,0.36193 0.585787,0.86193 0.585787,1.41421 z"
         id="path4471" />
      <text
         y="979.27722"
         x="-21.02791"
         style="font-size:3.3px;font-family:Arial;fill:#000000;stroke:none"
         id="text4473">7</text>
      <path
         d="m -20,970 v 6"
         style="fill:none;stroke:#000000;stroke-width:1.1;marker-end:url(#Arrow1Mend)"
         id="path4475" />
      <path
         d="m -29,969 7,7"
         style="fill:none;stroke:#000000;stroke-width:1.1;marker-end:url(#Arrow1Mend)"
         id="path4477" />
    </g>
  </g>
  <g
     id="g4459"
     transform="translate(57,28)">
    <g
       id="g4427"
       style="stroke:#000000"
       transform="matrix(2.7,0,0,2.7,260.6,-2518.675)">
      <path
         style="fill:#ffffff;stroke-width:1"
         d="m -18.064645,978.05982 c 0,0.55229 -0.223858,1.05229 -0.585787,1.41422 -0.361929,0.36192 -0.861929,0.58578 -1.414213,0.58578 -0.552284,0 -1.052284,-0.22386 -1.414213,-0.58578 -0.361929,-0.36193 -0.585787,-0.86193 -0.585787,-1.41422 0,-0.55228 0.223858,-1.05228 0.585787,-1.41421 0.361929,-0.36193 0.861929,-0.58579 1.414213,-0.58579 0.552284,0 1.052284,0.22386 1.414213,0.58579 0.361929,0.36193 0.585787,0.86193 0.585787,1.41421 z"
         id="path4419" />
      <text
         y="979.27722"
         x="-21.02791"
         style="font-size:3.3px;font-family:Arial;fill:#000000;stroke:none"
         id="text4421">3</text>
      <path
         d="m -28,978 h 6"
         style="fill:none;stroke:#000000;stroke-width:1.1;marker-end:url(#Arrow1Mend)"
         id="path4423" />
      <path
         d="m -12,978 h -6"
         style="fill:none;stroke:#000000;stroke-width:1.1;marker-end:url(#Arrow1Mend)"
         id="path4425" />
    </g>
    <g
       id="g4437"
       style="stroke:#000000"
       transform="matrix(2.7,0,0,2.7,233.6,-2518.675)">
      <path
         style="fill:#ffffff;stroke-width:1"
         d="m -18.064645,978.05982 c 0,0.55229 -0.223858,1.05229 -0.585787,1.41422 -0.361929,0.36192 -0.861929,0.58578 -1.414213,0.58578 -0.552284,0 -1.052284,-0.22386 -1.414213,-0.58578 -0.361929,-0.36193 -0.585787,-0.86193 -0.585787,-1.41422 0,-0.55228 0.223858,-1.05228 0.585787,-1.41421 0.361929,-0.36193 0.861929,-0.58579 1.414213,-0.58579 0.552284,0 1.052284,0.22386 1.414213,0.58579 0.361929,0.36193 0.585787,0.86193 0.585787,1.41421 z"
         id="path4429" />
      <text
         y="979.27722"
         x="-21.02791"
         style="font-size:3.3px;font-family:Arial;fill:#000000;stroke:none"
         id="text4431">8</text>
      <path
         d="m -20,970 v 6"
         style="fill:none;stroke:#000000;stroke-width:1.1;marker-end:url(#Arrow1Mend)"
         id="path4433" />
      <path
         d="m -28,978 h 6"
         style="fill:none;stroke:#000000;stroke-width:1.1;marker-end:url(#Arrow1Mend)"
         id="path4435" />
    </g>
    <g
       id="g4447"
       style="stroke:#000000"
       transform="matrix(2.7,0,0,2.7,260.6,-2491.675)">
      <path
         style="fill:#ffffff;stroke-width:1"
         d="m -18.064645,978.05982 c 0,0.55229 -0.223858,1.05229 -0.585787,1.41422 -0.361929,0.36192 -0.861929,0.58578 -1.414213,0.58578 -0.552284,0 -1.052284,-0.22386 -1.414213,-0.58578 -0.361929,-0.36193 -0.585787,-0.86193 -0.585787,-1.41422 0,-0.55228 0.223858,-1.05228 0.585787,-1.41421 0.361929,-0.36193 0.861929,-0.58579 1.414213,-0.58579 0.552284,0 1.052284,0.22386 1.414213,0.58579 0.361929,0.36193 0.585787,0.86193 0.585787,1.41421 z"
         id="path4439" />
      <text
         y="979.27722"
         x="-21.02791"
         style="font-size:3.3px;font-family:Arial;fill:#000000;stroke:none"
         id="text4441">8</text>
      <path
         d="m -20,970 v 6"
         style="fill:none;stroke:#000000;stroke-width:1.1;marker-end:url(#Arrow1Mend)"
         id="path4443" />
      <path
         d="m -28,978 h 6"
         style="fill:none;stroke:#000000;stroke-width:1.1;marker-end:url(#Arrow1Mend)"
         id="path4445" />
    </g>
    <g
       id="g4457"
       style="stroke:#000000"
       transform="matrix(2.7,0,0,2.7,233.6,-2491.675)">
      <path
         style="fill:#ffffff;stroke-width:1"
         d="m -18.064645,978.05982 c 0,0.55229 -0.223858,1.05229 -0.585787,1.41422 -0.361929,0.36192 -0.861929,0.58578 -1.414213,0.58578 -0.552284,0 -1.052284,-0.22386 -1.414213,-0.58578 -0.361929,-0.36193 -0.585787,-0.86193 -0.585787,-1.41422 0,-0.55228 0.223858,-1.05228 0.585787,-1.41421 0.361929,-0.36193 0.861929,-0.58579 1.414213,-0.58579 0.552284,0 1.052284,0.22386 1.414213,0.58579 0.361929,0.36193 0.585787,0.86193 0.585787,1.41421 z"
         id="path4449" />
      <text
         y="979.27722"
         x="-21.02791"
         style="font-size:3.3px;font-family:Arial;fill:#000000;stroke:none"
         id="text4451">4</text>
      <path
         d="m -12,969 -7,7"
         style="fill:none;stroke:#000000;stroke-width:1.1;marker-end:url(#Arrow1Mend)"
         id="path4453" />
      <path
         d="m -20,970 v 6"
         style="fill:none;stroke:#000000;stroke-width:1.1;marker-end:url(#Arrow1Mend)"
         id="path4455" />
    </g>
    <g
       id="g4499"
       style="stroke:#000000"
       transform="matrix(2.7,0,0,2.7,233.6,-2463.675)">
      <path
         style="fill:#ffffff;stroke-width:1"
         d="m -18.064645,978.05982 c 0,0.55229 -0.223858,1.05229 -0.585787,1.41422 -0.361929,0.36192 -0.861929,0.58578 -1.414213,0.58578 -0.552284,0 -1.052284,-0.22386 -1.414213,-0.58578 -0.361929,-0.36193 -0.585787,-0.86193 -0.585787,-1.41422 0,-0.55228 0.223858,-1.05228 0.585787,-1.41421 0.361929,-0.36193 0.861929,-0.58579 1.414213,-0.58579 0.552284,0 1.052284,0.22386 1.414213,0.58579 0.361929,0.36193 0.585787,0.86193 0.585787,1.41421 z"
         id="path4491" />
      <text
         y="979.27722"
         x="-21.02791"
         style="font-size:3.3px;font-family:Arial;fill:#000000;stroke:none"
         id="text4493">4</text>
      <path
         d="m -12,969 -7,7"
         style="fill:none;stroke:#000000;stroke-width:1.1;marker-end:url(#Arrow1Mend)"
         id="path4495" />
      <path
         d="m -20,970 v 6"
         style="fill:none;stroke:#000000;stroke-width:1.1;marker-end:url(#Arrow1Mend)"
         id="path4497" />
    </g>
  </g>
  <g
     id="g4551"
     transform="translate(151,-12)">
    <g
       id="g4509"
       style="stroke:#000000"
       transform="matrix(2.7,0,0,2.7,266.6,-2596.8)">
      <path
         style="fill:#ffffff;stroke-width:1"
         d="m -18.064645,978.05982 c 0,0.55229 -0.223858,1.05229 -0.585787,1.41422 -0.361929,0.36192 -0.861929,0.58578 -1.414213,0.58578 -0.552284,0 -1.052284,-0.22386 -1.414213,-0.58578 -0.361929,-0.36193 -0.585787,-0.86193 -0.585787,-1.41422 0,-0.55228 0.223858,-1.05228 0.585787,-1.41421 0.361929,-0.36193 0.861929,-0.58579 1.414213,-0.58579 0.552284,0 1.052284,0.22386 1.414213,0.58579 0.361929,0.36193 0.585787,0.86193 0.585787,1.41421 z"
         id="path4501" />
      <text
         y="979.27722"
         x="-21.02791"
         style="font-size:3.3px;font-family:Arial;fill:#000000;stroke:none"
         id="text4503">2</text>
      <path
         d="m -12,978 h -6"
         style="fill:none;stroke:#000000;stroke-width:1.1;marker-end:url(#Arrow1Mend)"
         id="path4505" />
      <path
         d="m -29,969 7,7"
         style="fill:none;stroke:#000000;stroke-width:1.1;marker-end:url(#Arrow1Mend)"
         id="path4507" />
    </g>
    <g
       id="g4519"
       style="stroke:#000000"
       transform="matrix(2.7,0,0,2.7,239.6,-2596.8)">
      <path
         style="fill:#ffffff;stroke-width:1"
         d="m -18.064645,978.05982 c 0,0.55229 -0.223858,1.05229 -0.585787,1.41422 -0.361929,0.36192 -0.861929,0.58578 -1.414213,0.58578 -0.552284,0 -1.052284,-0.22386 -1.414213,-0.58578 -0.361929,-0.36193 -0.585787,-0.86193 -0.585787,-1.41422 0,-0.55228 0.223858,-1.05228 0.585787,-1.41421 0.361929,-0.36193 0.861929,-0.58579 1.414213,-0.58579 0.552284,0 1.052284,0.22386 1.414213,0.58579 0.361929,0.36193 0.585787,0.86193 0.585787,1.41421 z"
         id="path4511" />
      <text
         y="979.27722"
         x="-21.02791"
         style="font-size:3.3px;font-family:Arial;fill:#000000;stroke:none"
         id="text4513">3</text>
      <path
         d="m -28,978 h 6"
         style="fill:none;stroke:#000000;stroke-width:1.1;marker-end:url(#Arrow1Mend)"
         id="path4515" />
      <path
         d="m -12,978 h -6"
         style="fill:none;stroke:#000000;stroke-width:1.1;marker-end:url(#Arrow1Mend)"
         id="path4517" />
    </g>
    <g
       id="g4529"
       style="stroke:#000000"
       transform="matrix(2.7,0,0,2.7,266.6,-2569.8)">
      <path
         style="fill:#ffffff;stroke-width:1"
         d="m -18.064645,978.05982 c 0,0.55229 -0.223858,1.05229 -0.585787,1.41422 -0.361929,0.36192 -0.861929,0.58578 -1.414213,0.58578 -0.552284,0 -1.052284,-0.22386 -1.414213,-0.58578 -0.361929,-0.36193 -0.585787,-0.86193 -0.585787,-1.41422 0,-0.55228 0.223858,-1.05228 0.585787,-1.41421 0.361929,-0.36193 0.861929,-0.58579 1.414213,-0.58579 0.552284,0 1.052284,0.22386 1.414213,0.58579 0.361929,0.36193 0.585787,0.86193 0.585787,1.41421 z"
         id="path4521" />
      <text
         y="979.27722"
         x="-21.02791"
         style="font-size:3.3px;font-family:Arial;fill:#000000;stroke:none"
         id="text4523">7</text>
      <path
         d="m -20,970 v 6"
         style="fill:none;stroke:#000000;stroke-width:1.1;marker-end:url(#Arrow1Mend)"
         id="path4525" />
      <path
         d="m -29,969 7,7"
         style="fill:none;stroke:#000000;stroke-width:1.1;marker-end:url(#Arrow1Mend)"
         id="path4527" />
    </g>
    <g
       id="g4539"
       style="stroke:#000000"
       transform="matrix(2.7,0,0,2.7,239.6,-2569.8)">
      <path
         style="fill:#ffffff;stroke-width:1"
         d="m -18.064645,978.05982 c 0,0.55229 -0.223858,1.05229 -0.585787,1.41422 -0.361929,0.36192 -0.861929,0.58578 -1.414213,0.58578 -0.552284,0 -1.052284,-0.22386 -1.414213,-0.58578 -0.361929,-0.36193 -0.585787,-0.86193 -0.585787,-1.41422 0,-0.55228 0.223858,-1.05228 0.585787,-1.41421 0.361929,-0.36193 0.861929,-0.58579 1.414213,-0.58579 0.552284,0 1.052284,0.22386 1.414213,0.58579 0.361929,0.36193 0.585787,0.86193 0.585787,1.41421 z"
         id="path4531" />
      <text
         y="979.27722"
         x="-21.02791"
         style="font-size:3.3px;font-family:Arial;fill:#000000;stroke:none"
         id="text4533">1</text>
      <path
         d="m -12,978 h -6"
         style="fill:none;stroke:#000000;stroke-width:1.1;marker-end:url(#Arrow1Mend)"
         id="path4535" />
      <path
         d="m -20,970 v 6"
         style="fill:none;stroke:#000000;stroke-width:1.1;marker-end:url(#Arrow1Mend)"
         id="path4537" />
    </g>
    <g
       id="g4549"
       style="stroke:#000000"
       transform="matrix(2.7,0,0,2.7,266.6,-2541.8)">
      <path
         style="fill:#ffffff;stroke-width:1"
         d="m -18.064645,978.05982 c 0,0.55229 -0.223858,1.05229 -0.585787,1.41422 -0.361929,0.36192 -0.861929,0.58578 -1.414213,0.58578 -0.552284,0 -1.052284,-0.22386 -1.414213,-0.58578 -0.361929,-0.36193 -0.585787,-0.86193 -0.585787,-1.41422 0,-0.55228 0.223858,-1.05228 0.585787,-1.41421 0.361929,-0.36193 0.861929,-0.58579 1.414213,-0.58579 0.552284,0 1.052284,0.22386 1.414213,0.58579 0.361929,0.36193 0.585787,0.86193 0.585787,1.41421 z"
         id="path4541" />
      <text
         y="979.27722"
         x="-21.02791"
         style="font-size:3.3px;font-family:Arial;fill:#000000;stroke:none"
         id="text4543">7</text>
      <path
         d="m -20,970 v 6"
         style="fill:none;stroke:#000000;stroke-width:1.1;marker-end:url(#Arrow1Mend)"
         id="path4545" />
      <path
         d="m -29,969 7,7"
         style="fill:none;stroke:#000000;stroke-width:1.1;marker-end:url(#Arrow1Mend)"
         id="path4547" />
    </g>
    <g
       id="g4613"
       style="stroke:#000000"
       transform="matrix(2.7,0,0,2.7,239.6,-2541.8)">
      <path
         style="fill:#ffffff;stroke-width:1"
         d="m -18.064645,978.05982 c 0,0.55229 -0.223858,1.05229 -0.585787,1.41422 -0.361929,0.36192 -0.861929,0.58578 -1.414213,0.58578 -0.552284,0 -1.052284,-0.22386 -1.414213,-0.58578 -0.361929,-0.36193 -0.585787,-0.86193 -0.585787,-1.41422 0,-0.55228 0.223858,-1.05228 0.585787,-1.41421 0.361929,-0.36193 0.861929,-0.58579 1.414213,-0.58579 0.552284,0 1.052284,0.22386 1.414213,0.58579 0.361929,0.36193 0.585787,0.86193 0.585787,1.41421 z"
         id="path4605" />
      <text
         y="979.27722"
         x="-21.02791"
         style="font-size:3.3px;font-family:Arial;fill:#000000;stroke:none"
         id="text4607">1</text>
      <path
         d="m -12,978 h -6"
         style="fill:none;stroke:#000000;stroke-width:1.1;marker-end:url(#Arrow1Mend)"
         id="path4609" />
      <path
         d="m -20,970 v 6"
         style="fill:none;stroke:#000000;stroke-width:1.1;marker-end:url(#Arrow1Mend)"
         id="path4611" />
    </g>
  </g>
  <g
     id="g4603"
     transform="translate(157,28)">
    <g
       id="g4561"
       style="stroke:#000000"
       transform="matrix(2.7,0,0,2.7,260.6,-2518.675)">
      <path
         style="fill:#ffffff;stroke-width:1"
         d="m -18.064645,978.05982 c 0,0.55229 -0.223858,1.05229 -0.585787,1.41422 -0.361929,0.36192 -0.861929,0.58578 -1.414213,0.58578 -0.552284,0 -1.052284,-0.22386 -1.414213,-0.58578 -0.361929,-0.36193 -0.585787,-0.86193 -0.585787,-1.41422 0,-0.55228 0.223858,-1.05228 0.585787,-1.41421 0.361929,-0.36193 0.861929,-0.58579 1.414213,-0.58579 0.552284,0 1.052284,0.22386 1.414213,0.58579 0.361929,0.36193 0.585787,0.86193 0.585787,1.41421 z"
         id="path4553" />
      <text
         y="979.27722"
         x="-21.02791"
         style="font-size:3.3px;font-family:Arial;fill:#000000;stroke:none"
         id="text4555">3</text>
      <path
         d="m -28,978 h 6"
         style="fill:none;stroke:#000000;stroke-width:1.1;marker-end:url(#Arrow1Mend)"
         id="path4557" />
      <path
         d="m -12,978 h -6"
         style="fill:none;stroke:#000000;stroke-width:1.1;marker-end:url(#Arrow1Mend)"
         id="path4559" />
    </g>
    <g
       id="g4571"
       style="stroke:#000000"
       transform="matrix(2.7,0,0,2.7,233.6,-2518.675)">
      <path
         style="fill:#ffffff;stroke-width:1"
         d="m -18.064645,978.05982 c 0,0.55229 -0.223858,1.05229 -0.585787,1.41422 -0.361929,0.36192 -0.861929,0.58578 -1.414213,0.58578 -0.552284,0 -1.052284,-0.22386 -1.414213,-0.58578 -0.361929,-0.36193 -0.585787,-0.86193 -0.585787,-1.41422 0,-0.55228 0.223858,-1.05228 0.585787,-1.41421 0.361929,-0.36193 0.861929,-0.58579 1.414213,-0.58579 0.552284,0 1.052284,0.22386 1.414213,0.58579 0.361929,0.36193 0.585787,0.86193 0.585787,1.41421 z"
         id="path4563" />
      <text
         y="979.27722"
         x="-21.02791"
         style="font-size:3.3px;font-family:Arial;fill:#000000;stroke:none"
         id="text4565">8</text>
      <path
         d="m -20,970 v 6"
         style="fill:none;stroke:#000000;stroke-width:1.1;marker-end:url(#Arrow1Mend)"
         id="path4567" />
      <path
         d="m -28,978 h 6"
         style="fill:none;stroke:#000000;stroke-width:1.1;marker-end:url(#Arrow1Mend)"
         id="path4569" />
    </g>
    <g
       id="g4581"
       style="stroke:#000000"
       transform="matrix(2.7,0,0,2.7,260.6,-2491.675)">
      <path
         style="fill:#ffffff;stroke-width:1"
         d="m -18.064645,978.05982 c 0,0.55229 -0.223858,1.05229 -0.585787,1.41422 -0.361929,0.36192 -0.861929,0.58578 -1.414213,0.58578 -0.552284,0 -1.052284,-0.22386 -1.414213,-0.58578 -0.361929,-0.36193 -0.585787,-0.86193 -0.585787,-1.41422 0,-0.55228 0.223858,-1.05228 0.585787,-1.41421 0.361929,-0.36193 0.861929,-0.58579 1.414213,-0.58579 0.552284,0 1.052284,0.22386 1.414213,0.58579 0.361929,0.36193 0.585787,0.86193 0.585787,1.41421 z"
         id="path4573" />
      <text
         y="979.27722"
         x="-21.02791"
         style="font-size:3.3px;font-family:Arial;fill:#000000;stroke:none"
         id="text4575">8</text>
      <path
         d="m -20,970 v 6"
         style="fill:none;stroke:#000000;stroke-width:1.1;marker-end:url(#Arrow1Mend)"
         id="path4577" />
      <path
         d="m -28,978 h 6"
         style="fill:none;stroke:#000000;stroke-width:1.1;marker-end:url(#Arrow1Mend)"
         id="path4579" />
    </g>
    <g
       id="g4591"
       style="stroke:#000000"
       transform="matrix(2.7,0,0,2.7,233.6,-2491.675)">
      <path
         style="fill:#ffffff;stroke-width:1"
         d="m -18.064645,978.05982 c 0,0.55229 -0.223858,1.05229 -0.585787,1.41422 -0.361929,0.36192 -0.861929,0.58578 -1.414213,0.58578 -0.552284,0 -1.052284,-0.22386 -1.414213,-0.58578 -0.361929,-0.36193 -0.585787,-0.86193 -0.585787,-1.41422 0,-0.55228 0.223858,-1.05228 0.585787,-1.41421 0.361929,-0.36193 0.861929,-0.58579 1.414213,-0.58579 0.552284,0 1.052284,0.22386 1.414213,0.58579 0.361929,0.36193 0.585787,0.86193 0.585787,1.41421 z"
         id="path4583" />
      <text
         y="979.27722"
         x="-21.02791"
         style="font-size:3.3px;font-family:Arial;fill:#000000;stroke:none"
         id="text4585">4</text>
      <path
         d="m -12,969 -7,7"
         style="fill:none;stroke:#000000;stroke-width:1.1;marker-end:url(#Arrow1Mend)"
         id="path4587" />
      <path
         d="m -20,970 v 6"
         style="fill:none;stroke:#000000;stroke-width:1.1;marker-end:url(#Arrow1Mend)"
         id="path4589" />
    </g>
    <g
       id="g4601"
       style="stroke:#000000"
       transform="matrix(2.7,0,0,2.7,233.6,-2463.675)">
      <path
         style="fill:#ffffff;stroke-width:1"
         d="m -18.064645,978.05982 c 0,0.55229 -0.223858,1.05229 -0.585787,1.41422 -0.361929,0.36192 -0.861929,0.58578 -1.414213,0.58578 -0.552284,0 -1.052284,-0.22386 -1.414213,-0.58578 -0.361929,-0.36193 -0.585787,-0.86193 -0.585787,-1.41422 0,-0.55228 0.223858,-1.05228 0.585787,-1.41421 0.361929,-0.36193 0.861929,-0.58579 1.414213,-0.58579 0.552284,0 1.052284,0.22386 1.414213,0.58579 0.361929,0.36193 0.585787,0.86193 0.585787,1.41421 z"
         id="path4593" />
      <text
         y="979.27722"
         x="-21.02791"
         style="font-size:3.3px;font-family:Arial;fill:#000000;stroke:none"
         id="text4595">4</text>
      <path
         d="m -12,969 -7,7"
         style="fill:none;stroke:#000000;stroke-width:1.1;marker-end:url(#Arrow1Mend)"
         id="path4597" />
      <path
         d="m -20,970 v 6"
         style="fill:none;stroke:#000000;stroke-width:1.1;marker-end:url(#Arrow1Mend)"
         id="path4599" />
    </g>
    <g
       id="g4623"
       style="stroke:#000000"
       transform="matrix(2.7,0,0,2.7,260.6,-2463.675)">
      <path
         style="fill:#ffffff;stroke-width:1"
         d="m -18.064645,978.05982 c 0,0.55229 -0.223858,1.05229 -0.585787,1.41422 -0.361929,0.36192 -0.861929,0.58578 -1.414213,0.58578 -0.552284,0 -1.052284,-0.22386 -1.414213,-0.58578 -0.361929,-0.36193 -0.585787,-0.86193 -0.585787,-1.41422 0,-0.55228 0.223858,-1.05228 0.585787,-1.41421 0.361929,-0.36193 0.861929,-0.58579 1.414213,-0.58579 0.552284,0 1.052284,0.22386 1.414213,0.58579 0.361929,0.36193 0.585787,0.86193 0.585787,1.41421 z"
         id="path4615" />
      <text
         y="979.27722"
         x="-21.02791"
         style="font-size:3.3px;font-family:Arial;fill:#000000;stroke:none"
         id="text4617">8</text>
      <path
         d="m -20,970 v 6"
         style="fill:none;stroke:#000000;stroke-width:1.1;marker-end:url(#Arrow1Mend)"
         id="path4619" />
      <path
         d="m -28,978 h 6"
         style="fill:none;stroke:#000000;stroke-width:1.1;marker-end:url(#Arrow1Mend)"
         id="path4621" />
    </g>
  </g>
  <g
     id="g4685"
     transform="translate(251,-12)">
    <g
       id="g4633"
       style="stroke:#000000"
       transform="matrix(2.7,0,0,2.7,266.6,-2596.8)">
      <path
         style="fill:#ffffff;stroke-width:1"
         d="m -18.064645,978.05982 c 0,0.55229 -0.223858,1.05229 -0.585787,1.41422 -0.361929,0.36192 -0.861929,0.58578 -1.414213,0.58578 -0.552284,0 -1.052284,-0.22386 -1.414213,-0.58578 -0.361929,-0.36193 -0.585787,-0.86193 -0.585787,-1.41422 0,-0.55228 0.223858,-1.05228 0.585787,-1.41421 0.361929,-0.36193 0.861929,-0.58579 1.414213,-0.58579 0.552284,0 1.052284,0.22386 1.414213,0.58579 0.361929,0.36193 0.585787,0.86193 0.585787,1.41421 z"
         id="path4625" />
      <text
         y="979.27722"
         x="-21.02791"
         style="font-size:3.3px;font-family:Arial;fill:#000000;stroke:none"
         id="text4627">2</text>
      <path
         d="m -12,978 h -6"
         style="fill:none;stroke:#000000;stroke-width:1.1;marker-end:url(#Arrow1Mend)"
         id="path4629" />
      <path
         d="m -29,969 7,7"
         style="fill:none;stroke:#000000;stroke-width:1.1;marker-end:url(#Arrow1Mend)"
         id="path4631" />
    </g>
    <g
       id="g4643"
       style="stroke:#000000"
       transform="matrix(2.7,0,0,2.7,239.6,-2596.8)">
      <path
         style="fill:#ffffff;stroke-width:1"
         d="m -18.064645,978.05982 c 0,0.55229 -0.223858,1.05229 -0.585787,1.41422 -0.361929,0.36192 -0.861929,0.58578 -1.414213,0.58578 -0.552284,0 -1.052284,-0.22386 -1.414213,-0.58578 -0.361929,-0.36193 -0.585787,-0.86193 -0.585787,-1.41422 0,-0.55228 0.223858,-1.05228 0.585787,-1.41421 0.361929,-0.36193 0.861929,-0.58579 1.414213,-0.58579 0.552284,0 1.052284,0.22386 1.414213,0.58579 0.361929,0.36193 0.585787,0.86193 0.585787,1.41421 z"
         id="path4635" />
      <text
         y="979.27722"
         x="-21.02791"
         style="font-size:3.3px;font-family:Arial;fill:#000000;stroke:none"
         id="text4637">3</text>
      <path
         d="m -28,978 h 6"
         style="fill:none;stroke:#000000;stroke-width:1.1;marker-end:url(#Arrow1Mend)"
         id="path4639" />
      <path
         d="m -12,978 h -6"
         style="fill:none;stroke:#000000;stroke-width:1.1;marker-end:url(#Arrow1Mend)"
         id="path4641" />
    </g>
    <g
       id="g4653"
       style="stroke:#000000"
       transform="matrix(2.7,0,0,2.7,266.6,-2569.8)">
      <path
         style="fill:#ffffff;stroke-width:1"
         d="m -18.064645,978.05982 c 0,0.55229 -0.223858,1.05229 -0.585787,1.41422 -0.361929,0.36192 -0.861929,0.58578 -1.414213,0.58578 -0.552284,0 -1.052284,-0.22386 -1.414213,-0.58578 -0.361929,-0.36193 -0.585787,-0.86193 -0.585787,-1.41422 0,-0.55228 0.223858,-1.05228 0.585787,-1.41421 0.361929,-0.36193 0.861929,-0.58579 1.414213,-0.58579 0.552284,0 1.052284,0.22386 1.414213,0.58579 0.361929,0.36193 0.585787,0.86193 0.585787,1.41421 z"
         id="path4645" />
      <text
         y="979.27722"
         x="-21.02791"
         style="font-size:3.3px;font-family:Arial;fill:#000000;stroke:none"
         id="text4647">7</text>
      <path
         d="m -20,970 v 6"
         style="fill:none;stroke:#000000;stroke-width:1.1;marker-end:url(#Arrow1Mend)"
         id="path4649" />
      <path
         d="m -29,969 7,7"
         style="fill:none;stroke:#000000;stroke-width:1.1;marker-end:url(#Arrow1Mend)"
         id="path4651" />
    </g>
    <g
       id="g4663"
       style="stroke:#000000"
       transform="matrix(2.7,0,0,2.7,239.6,-2569.8)">
      <path
         style="fill:#ffffff;stroke-width:1"
         d="m -18.064645,978.05982 c 0,0.55229 -0.223858,1.05229 -0.585787,1.41422 -0.361929,0.36192 -0.861929,0.58578 -1.414213,0.58578 -0.552284,0 -1.052284,-0.22386 -1.414213,-0.58578 -0.361929,-0.36193 -0.585787,-0.86193 -0.585787,-1.41422 0,-0.55228 0.223858,-1.05228 0.585787,-1.41421 0.361929,-0.36193 0.861929,-0.58579 1.414213,-0.58579 0.552284,0 1.052284,0.22386 1.414213,0.58579 0.361929,0.36193 0.585787,0.86193 0.585787,1.41421 z"
         id="path4655" />
      <text
         y="979.27722"
         x="-21.02791"
         style="font-size:3.3px;font-family:Arial;fill:#000000;stroke:none"
         id="text4657">1</text>
      <path
         d="m -12,978 h -6"
         style="fill:none;stroke:#000000;stroke-width:1.1;marker-end:url(#Arrow1Mend)"
         id="path4659" />
      <path
         d="m -20,970 v 6"
         style="fill:none;stroke:#000000;stroke-width:1.1;marker-end:url(#Arrow1Mend)"
         id="path4661" />
    </g>
    <g
       id="g4673"
       style="stroke:#000000"
       transform="matrix(2.7,0,0,2.7,266.6,-2541.8)">
      <path
         style="fill:#ffffff;stroke-width:1"
         d="m -18.064645,978.05982 c 0,0.55229 -0.223858,1.05229 -0.585787,1.41422 -0.361929,0.36192 -0.861929,0.58578 -1.414213,0.58578 -0.552284,0 -1.052284,-0.22386 -1.414213,-0.58578 -0.361929,-0.36193 -0.585787,-0.86193 -0.585787,-1.41422 0,-0.55228 0.223858,-1.05228 0.585787,-1.41421 0.361929,-0.36193 0.861929,-0.58579 1.414213,-0.58579 0.552284,0 1.052284,0.22386 1.414213,0.58579 0.361929,0.36193 0.585787,0.86193 0.585787,1.41421 z"
         id="path4665" />
      <text
         y="979.27722"
         x="-21.02791"
         style="font-size:3.3px;font-family:Arial;fill:#000000;stroke:none"
         id="text4667">7</text>
      <path
         d="m -20,970 v 6"
         style="fill:none;stroke:#000000;stroke-width:1.1;marker-end:url(#Arrow1Mend)"
         id="path4669" />
      <path
         d="m -29,969 7,7"
         style="fill:none;stroke:#000000;stroke-width:1.1;marker-end:url(#Arrow1Mend)"
         id="path4671" />
    </g>
    <g
       id="g4683"
       style="stroke:#000000"
       transform="matrix(2.7,0,0,2.7,239.6,-2541.8)">
      <path
         style="fill:#ffffff;stroke-width:1"
         d="m -18.064645,978.05982 c 0,0.55229 -0.223858,1.05229 -0.585787,1.41422 -0.361929,0.36192 -0.861929,0.58578 -1.414213,0.58578 -0.552284,0 -1.052284,-0.22386 -1.414213,-0.58578 -0.361929,-0.36193 -0.585787,-0.86193 -0.585787,-1.41422 0,-0.55228 0.223858,-1.05228 0.585787,-1.41421 0.361929,-0.36193 0.861929,-0.58579 1.414213,-0.58579 0.552284,0 1.052284,0.22386 1.414213,0.58579 0.361929,0.36193 0.585787,0.86193 0.585787,1.41421 z"
         id="path4675" />
      <text
         y="979.27722"
         x="-21.02791"
         style="font-size:3.3px;font-family:Arial;fill:#000000;stroke:none"
         id="text4677">1</text>
      <path
         d="m -12,978 h -6"
         style="fill:none;stroke:#000000;stroke-width:1.1;marker-end:url(#Arrow1Mend)"
         id="path4679" />
      <path
         d="m -20,970 v 6"
         style="fill:none;stroke:#000000;stroke-width:1.1;marker-end:url(#Arrow1Mend)"
         id="path4681" />
    </g>
    <g
       id="g4757"
       style="stroke:#000000"
       transform="matrix(2.7,0,0,2.7,266.6,-2513.8)">
      <path
         style="fill:#ffffff;stroke-width:1"
         d="m -18.064645,978.05982 c 0,0.55229 -0.223858,1.05229 -0.585787,1.41422 -0.361929,0.36192 -0.861929,0.58578 -1.414213,0.58578 -0.552284,0 -1.052284,-0.22386 -1.414213,-0.58578 -0.361929,-0.36193 -0.585787,-0.86193 -0.585787,-1.41422 0,-0.55228 0.223858,-1.05228 0.585787,-1.41421 0.361929,-0.36193 0.861929,-0.58579 1.414213,-0.58579 0.552284,0 1.052284,0.22386 1.414213,0.58579 0.361929,0.36193 0.585787,0.86193 0.585787,1.41421 z"
         id="path4749" />
      <text
         y="979.27722"
         x="-21.02791"
         style="font-size:3.3px;font-family:Arial;fill:#000000;stroke:none"
         id="text4751">7</text>
      <path
         d="m -20,970 v 6"
         style="fill:none;stroke:#000000;stroke-width:1.1;marker-end:url(#Arrow1Mend)"
         id="path4753" />
      <path
         d="m -29,969 7,7"
         style="fill:none;stroke:#000000;stroke-width:1.1;marker-end:url(#Arrow1Mend)"
         id="path4755" />
    </g>
  </g>
  <g
     id="g4747"
     transform="translate(257,28)">
    <g
       id="g4695"
       style="stroke:#000000"
       transform="matrix(2.7,0,0,2.7,260.6,-2518.675)">
      <path
         style="fill:#ffffff;stroke-width:1"
         d="m -18.064645,978.05982 c 0,0.55229 -0.223858,1.05229 -0.585787,1.41422 -0.361929,0.36192 -0.861929,0.58578 -1.414213,0.58578 -0.552284,0 -1.052284,-0.22386 -1.414213,-0.58578 -0.361929,-0.36193 -0.585787,-0.86193 -0.585787,-1.41422 0,-0.55228 0.223858,-1.05228 0.585787,-1.41421 0.361929,-0.36193 0.861929,-0.58579 1.414213,-0.58579 0.552284,0 1.052284,0.22386 1.414213,0.58579 0.361929,0.36193 0.585787,0.86193 0.585787,1.41421 z"
         id="path4687" />
      <text
         y="979.27722"
         x="-21.02791"
         style="font-size:3.3px;font-family:Arial;fill:#000000;stroke:none"
         id="text4689">3</text>
      <path
         d="m -28,978 h 6"
         style="fill:none;stroke:#000000;stroke-width:1.1;marker-end:url(#Arrow1Mend)"
         id="path4691" />
      <path
         d="m -12,978 h -6"
         style="fill:none;stroke:#000000;stroke-width:1.1;marker-end:url(#Arrow1Mend)"
         id="path4693" />
    </g>
    <g
       id="g4705"
       style="stroke:#000000"
       transform="matrix(2.7,0,0,2.7,233.6,-2518.675)">
      <path
         style="fill:#ffffff;stroke-width:1"
         d="m -18.064645,978.05982 c 0,0.55229 -0.223858,1.05229 -0.585787,1.41422 -0.361929,0.36192 -0.861929,0.58578 -1.414213,0.58578 -0.552284,0 -1.052284,-0.22386 -1.414213,-0.58578 -0.361929,-0.36193 -0.585787,-0.86193 -0.585787,-1.41422 0,-0.55228 0.223858,-1.05228 0.585787,-1.41421 0.361929,-0.36193 0.861929,-0.58579 1.414213,-0.58579 0.552284,0 1.052284,0.22386 1.414213,0.58579 0.361929,0.36193 0.585787,0.86193 0.585787,1.41421 z"
         id="path4697" />
      <text
         y="979.27722"
         x="-21.02791"
         style="font-size:3.3px;font-family:Arial;fill:#000000;stroke:none"
         id="text4699">8</text>
      <path
         d="m -20,970 v 6"
         style="fill:none;stroke:#000000;stroke-width:1.1;marker-end:url(#Arrow1Mend)"
         id="path4701" />
      <path
         d="m -28,978 h 6"
         style="fill:none;stroke:#000000;stroke-width:1.1;marker-end:url(#Arrow1Mend)"
         id="path4703" />
    </g>
    <g
       id="g4715"
       style="stroke:#000000"
       transform="matrix(2.7,0,0,2.7,260.6,-2491.675)">
      <path
         style="fill:#ffffff;stroke-width:1"
         d="m -18.064645,978.05982 c 0,0.55229 -0.223858,1.05229 -0.585787,1.41422 -0.361929,0.36192 -0.861929,0.58578 -1.414213,0.58578 -0.552284,0 -1.052284,-0.22386 -1.414213,-0.58578 -0.361929,-0.36193 -0.585787,-0.86193 -0.585787,-1.41422 0,-0.55228 0.223858,-1.05228 0.585787,-1.41421 0.361929,-0.36193 0.861929,-0.58579 1.414213,-0.58579 0.552284,0 1.052284,0.22386 1.414213,0.58579 0.361929,0.36193 0.585787,0.86193 0.585787,1.41421 z"
         id="path4707" />
      <text
         y="979.27722"
         x="-21.02791"
         style="font-size:3.3px;font-family:Arial;fill:#000000;stroke:none"
         id="text4709">8</text>
      <path
         d="m -20,970 v 6"
         style="fill:none;stroke:#000000;stroke-width:1.1;marker-end:url(#Arrow1Mend)"
         id="path4711" />
      <path
         d="m -28,978 h 6"
         style="fill:none;stroke:#000000;stroke-width:1.1;marker-end:url(#Arrow1Mend)"
         id="path4713" />
    </g>
    <g
       id="g4725"
       style="stroke:#000000"
       transform="matrix(2.7,0,0,2.7,233.6,-2491.675)">
      <path
         style="fill:#ffffff;stroke-width:1"
         d="m -18.064645,978.05982 c 0,0.55229 -0.223858,1.05229 -0.585787,1.41422 -0.361929,0.36192 -0.861929,0.58578 -1.414213,0.58578 -0.552284,0 -1.052284,-0.22386 -1.414213,-0.58578 -0.361929,-0.36193 -0.585787,-0.86193 -0.585787,-1.41422 0,-0.55228 0.223858,-1.05228 0.585787,-1.41421 0.361929,-0.36193 0.861929,-0.58579 1.414213,-0.58579 0.552284,0 1.052284,0.22386 1.414213,0.58579 0.361929,0.36193 0.585787,0.86193 0.585787,1.41421 z"
         id="path4717" />
      <text
         y="979.27722"
         x="-21.02791"
         style="font-size:3.3px;font-family:Arial;fill:#000000;stroke:none"
         id="text4719">4</text>
      <path
         d="m -12,969 -7,7"
         style="fill:none;stroke:#000000;stroke-width:1.1;marker-end:url(#Arrow1Mend)"
         id="path4721" />
      <path
         d="m -20,970 v 6"
         style="fill:none;stroke:#000000;stroke-width:1.1;marker-end:url(#Arrow1Mend)"
         id="path4723" />
    </g>
    <g
       id="g4735"
       style="stroke:#000000"
       transform="matrix(2.7,0,0,2.7,233.6,-2463.675)">
      <path
         style="fill:#ffffff;stroke-width:1"
         d="m -18.064645,978.05982 c 0,0.55229 -0.223858,1.05229 -0.585787,1.41422 -0.361929,0.36192 -0.861929,0.58578 -1.414213,0.58578 -0.552284,0 -1.052284,-0.22386 -1.414213,-0.58578 -0.361929,-0.36193 -0.585787,-0.86193 -0.585787,-1.41422 0,-0.55228 0.223858,-1.05228 0.585787,-1.41421 0.361929,-0.36193 0.861929,-0.58579 1.414213,-0.58579 0.552284,0 1.052284,0.22386 1.414213,0.58579 0.361929,0.36193 0.585787,0.86193 0.585787,1.41421 z"
         id="path4727" />
      <text
         y="979.27722"
         x="-21.02791"
         style="font-size:3.3px;font-family:Arial;fill:#000000;stroke:none"
         id="text4729">4</text>
      <path
         d="m -12,969 -7,7"
         style="fill:none;stroke:#000000;stroke-width:1.1;marker-end:url(#Arrow1Mend)"
         id="path4731" />
      <path
         d="m -20,970 v 6"
         style="fill:none;stroke:#000000;stroke-width:1.1;marker-end:url(#Arrow1Mend)"
         id="path4733" />
    </g>
    <g
       id="g4745"
       style="stroke:#000000"
       transform="matrix(2.7,0,0,2.7,260.6,-2463.675)">
      <path
         style="fill:#ffffff;stroke-width:1"
         d="m -18.064645,978.05982 c 0,0.55229 -0.223858,1.05229 -0.585787,1.41422 -0.361929,0.36192 -0.861929,0.58578 -1.414213,0.58578 -0.552284,0 -1.052284,-0.22386 -1.414213,-0.58578 -0.361929,-0.36193 -0.585787,-0.86193 -0.585787,-1.41422 0,-0.55228 0.223858,-1.05228 0.585787,-1.41421 0.361929,-0.36193 0.861929,-0.58579 1.414213,-0.58579 0.552284,0 1.052284,0.22386 1.414213,0.58579 0.361929,0.36193 0.585787,0.86193 0.585787,1.41421 z"
         id="path4737" />
      <text
         y="979.27722"
         x="-21.02791"
         style="font-size:3.3px;font-family:Arial;fill:#000000;stroke:none"
         id="text4739">8</text>
      <path
         d="m -20,970 v 6"
         style="fill:none;stroke:#000000;stroke-width:1.1;marker-end:url(#Arrow1Mend)"
         id="path4741" />
      <path
         d="m -28,978 h 6"
         style="fill:none;stroke:#000000;stroke-width:1.1;marker-end:url(#Arrow1Mend)"
         id="path4743" />
    </g>
    <g
       id="g4857"
       style="stroke:#000000"
       transform="matrix(2.7,0,0,2.7,233.6,-2437.675)">
      <path
         style="fill:#ffffff;stroke-width:1"
         d="m -18.064645,978.05982 c 0,0.55229 -0.223858,1.05229 -0.585787,1.41422 -0.361929,0.36192 -0.861929,0.58578 -1.414213,0.58578 -0.552284,0 -1.052284,-0.22386 -1.414213,-0.58578 -0.361929,-0.36193 -0.585787,-0.86193 -0.585787,-1.41422 0,-0.55228 0.223858,-1.05228 0.585787,-1.41421 0.361929,-0.36193 0.861929,-0.58579 1.414213,-0.58579 0.552284,0 1.052284,0.22386 1.414213,0.58579 0.361929,0.36193 0.585787,0.86193 0.585787,1.41421 z"
         id="path4849" />
      <text
         y="979.27722"
         x="-21.02791"
         style="font-size:3.3px;font-family:Arial;fill:#000000;stroke:none"
         id="text4851">4</text>
      <path
         d="m -12,969 -7,7"
         style="fill:none;stroke:#000000;stroke-width:1.1;marker-end:url(#Arrow1Mend)"
         id="path4853" />
      <path
         d="m -20,970 v 6"
         style="fill:none;stroke:#000000;stroke-width:1.1;marker-end:url(#Arrow1Mend)"
         id="path4855" />
    </g>
  </g>
</svg>
