<?xml version="1.0" encoding="UTF-8"?>
<!-- Created with Inkscape (http://www.inkscape.org/) -->
<svg width="75.173pt" height="50.666pt" version="1.1" viewBox="0 0 26.519 17.874" xmlns="http://www.w3.org/2000/svg">
 <g transform="translate(-33.541 -207.98)" stroke-width="3.5967">
  <g transform="matrix(.27899 0 0 .27709 25.024 151.21)" stroke="#666">
   <path d="m48.567 210.65-11.696 7.1818c-0.59331 1.3552-1.1866 2.7103-1.7799 4.0655v0l-0.29979 16.704 2.3759 4.3605 14.364 8.286 4.369-3e-3 1.5615-0.35247 13.51-8.0708c0.83983-0.3932 2.4975-3.5481 2.4866-4.7323v0l-0.24441-15.702c-0.44973-0.63131-1.2532-2.8248-1.7114-3.9637v0l-14.935-8.6366-4.7005-0.50895z" fill="#666" stroke-dashoffset="7712.4" stroke-linecap="round" stroke-linejoin="round" stroke-width="1.2688"/>
   <path transform="matrix(.77986 0 0 .91139 14.77 114.19)" x="50.454254" y="127.52024" width="24.647223" height="24.647223" ry="4.5175471" d="m55.11 125.33 15.609-7.3464c2.4351-1.1461 4.3823-0.12107 4.3823 2.2906v15.044c0 2.4116-1.9473 5.3405-4.3823 6.5752l-15.609 7.9146c-2.5715 1.3039-4.656 0.346-4.656-2.1567v-15.612c0-2.5027 2.0845-5.4986 4.656-6.7089z" fill="#fff" stroke-dashoffset="7712.4" stroke-linecap="round" stroke-linejoin="round" stroke-width="1.505"/>
   <g transform="matrix(.78742 0 0 .89686 15.611 151.36)">
    <path x="24.253471" y="88.547218" width="24.647223" height="24.647223" ry="4.5175471" d="m28.809 78.238 15.612 8.0109c2.4839 1.2745 4.4798 4.3133 4.4798 6.8157v15.612c0 2.503-1.9962 3.5144-4.4804 2.2653l-15.614-7.8508c-2.522-1.2681-4.5559-4.3266-4.5556-6.8553l0.0022-15.772c3.52e-4 -2.5281 2.0346-3.5197 4.5562-2.2258z" fill="#fff" stroke="#666" stroke-dashoffset="7712.4" stroke-linecap="round" stroke-linejoin="round" stroke-width="1.5098"/>
    <path d="m37.416 97.936c-4e-6 0.06645-0.0021 0.12356-0.0062 0.17134-0.0041 0.04775-0.0124 0.08717-0.02481 0.11828-0.0083 0.03319-0.02066 0.06014-0.0372 0.08084-0.01653 0.0207-0.04546 0.04136-0.08678 0.06197-0.04133 0.0206-0.12811 0.04104-0.26037 0.06131-0.13227 0.01612-0.29763 0.01548-0.4961-0.0019-0.19436-0.01945-0.41977-0.06708-0.67625-0.14289-0.2524-0.06959-0.52968-0.18087-0.83187-0.33385-0.52176-0.26414-0.99402-0.59058-1.4167-0.97933-0.4187-0.38679-0.77739-0.8265-1.076-1.3191-0.29456-0.49062-0.52277-1.0268-0.6846-1.6085-0.1577-0.58383-0.23652-1.2026-0.23646-1.8564 6.6e-5 -0.67039 0.08523-1.2246 0.25548-1.6627 0.17437-0.43588 0.41718-0.75566 0.72837-0.95936 0.31111-0.20781 0.68226-0.29755 1.1134-0.26928 0.4351 0.03037 0.91559 0.1796 1.4414 0.44761 0.23179 0.11814 0.45732 0.25595 0.6766 0.41344 0.21924 0.1533 0.4219 0.31061 0.60799 0.47193 0.18606 0.1613 0.35142 0.32242 0.49608 0.48339 0.14465 0.16094 0.24383 0.28417 0.29755 0.3697 0.05785 0.08347 0.09504 0.14395 0.11156 0.18145 0.01653 0.0375 0.02892 0.07912 0.03718 0.12486 0.01239 0.0437 0.02065 0.0936 0.02479 0.1497 0.0083 0.0582 0.01238 0.12469 0.01238 0.19946-6e-6 0.08308-0.0041 0.15159-0.01241 0.20554-0.0083 0.05395-0.02067 0.09749-0.0372 0.13061-0.01653 0.02897-0.03719 0.04753-0.06198 0.05569-0.02066 0.0061-0.04753 7.41e-4 -0.08058-0.01608-0.05786-0.02945-0.13844-0.10993-0.24176-0.24146-0.10333-0.13569-0.23767-0.29342-0.40303-0.47318-0.16125-0.18183-0.35975-0.37226-0.5955-0.57128-0.23166-0.20111-0.51097-0.38492-0.83794-0.55145-0.35605-0.18133-0.68114-0.27412-0.97526-0.27832-0.29005-0.0063-0.53872 0.07724-0.746 0.2505-0.20732 0.17329-0.36906 0.43224-0.48521 0.77684-0.11201 0.34259-0.16805 0.77193-0.1681 1.288-4.7e-5 0.51192 0.05383 0.99293 0.16163 1.443 0.11194 0.44799 0.26948 0.85666 0.4726 1.226 0.20724 0.36719 0.46004 0.69502 0.75836 0.98347 0.29825 0.28423 0.63577 0.52178 1.0125 0.71266 0.3187 0.16146 0.59595 0.26244 0.83176 0.30294 0.23991 0.04258 0.44255 0.05799 0.60795 0.04624 0.16951-0.01382 0.308-0.03297 0.41547-0.05743 0.10746-0.02447 0.19218-0.02099 0.25417 0.01043 0.02893 0.01466 0.05372 0.03346 0.07438 0.0564 0.02066 0.02293 0.03719 0.05623 0.04958 0.0999 0.01239 0.03951 0.02065 0.09147 0.02479 0.15588 0.0083 0.06649 0.01238 0.1475 0.01238 0.24306zm5.5586 3.4883c-2e-6 0.0829-0.0041 0.15126-0.01234 0.20512-0.0082 0.0497-0.02262 0.0901-0.04319 0.12112-0.01646 0.029-0.03908 0.0465-0.06786 0.0527-0.02468 4e-3 -0.05553-3e-3 -0.09255-0.022l-3.5345-1.7895c-0.09489-0.04804-0.18566-0.12513-0.27231-0.23126-0.08253-0.1082-0.12379-0.24327-0.12378-0.4052l4.24e-4 -7.4601c2e-6 -0.03321 0.0083-0.05806 0.02477-0.07456 0.01651-0.0165 0.04539-0.02046 0.08666-0.01188 0.04126 0.0044 0.09696 0.02036 0.1671 0.0478 0.07014 0.0233 0.1547 0.06017 0.2537 0.11063 0.10312 0.05255 0.18766 0.10187 0.25365 0.14795 0.07011 0.04403 0.12577 0.08485 0.16701 0.12246 0.04123 0.03346 0.07009 0.06684 0.08659 0.10015 0.01649 0.0333 0.02473 0.06655 0.02473 0.09975l-3.55e-4 6.9651 2.8663 1.4523c0.03702 0.0188 0.06787 0.0448 0.09255 0.078 0.02879 0.0312 0.05141 0.0696 0.06786 0.11518 0.02056 0.0436 0.03496 0.0965 0.04318 0.15866 0.0082 0.0622 0.01233 0.13471 0.01233 0.21761z" stroke="#000" stroke-width="1.1324" aria-label="CL"/>
    <text transform="scale(1.0672 .937)" x="14.077783" y="56.45393" fill="#ffffff" font-family="Calibri" font-size="4.7598px" stop-color="#000000" stroke="#666666" stroke-width="1.1324" style="-inkscape-stroke:none;line-height:1.204;text-decoration-color:#000000" xml:space="preserve"><tspan x="14.077783" y="56.45393" fill="#ffffff" stroke="#666666" stroke-width="1.1324"/></text>
   </g>
   <g transform="translate(61.213 118.78)" fill="#fff" stroke-width="3.5967">
    <g transform="matrix(.92434 0 0 .92434 -111.16 7.6743)">
     <path x="100.16459" y="88.547218" width="24.647223" height="24.647223" ry="4.5175471" d="m115.8 90.444 14.473 8.1709c2.294 1.2951 2.1453 3.3423-0.28438 4.5724l-14.171 7.1741c-2.1253 1.0759-5.5157 0.99222-7.6411-0.1735l-13.397-7.3475c-2.1699-1.1901-2.3674-3.0996-0.4054-4.2976l13.095-7.9962c2.2475-1.3724 5.9835-1.4273 8.3302-0.10246z" fill="#fff" stroke="#666" stroke-dashoffset="7712.4" stroke-linecap="round" stroke-linejoin="round" stroke-width="1.3727"/>
     <path d="m106.08 100.41c-0.0558 0.0319-0.10647 0.0588-0.15188 0.0808-0.0454 0.0219-0.0893 0.0388-0.13176 0.0505-0.0387 0.0139-0.0775 0.0237-0.11651 0.0295-0.039 6e-3 -0.0942 9e-3 -0.16561 8e-3 -0.0714-4e-4 -0.2021-0.0122-0.39216-0.0353-0.18648-0.0251-0.40217-0.0664-0.64705-0.12395-0.23767-0.0575-0.49238-0.13605-0.76416-0.23581-0.27151-0.0957-0.54092-0.21756-0.80831-0.36555-0.46177-0.25556-0.80794-0.52906-1.0386-0.82075-0.2274-0.29018-0.33337-0.59184-0.31757-0.90526 0.0195-0.31228 0.16367-0.63159 0.43315-0.95822 0.27769-0.32791 0.68969-0.65526 1.2372-0.98228 0.5642-0.337 1.1461-0.5961 1.7453-0.77654 0.60518-0.17902 1.2048-0.28267 1.7983-0.31052 0.59847-0.03004 1.177 0.01512 1.7348 0.13562 0.56214 0.12271 1.0823 0.31762 1.56 0.58452 0.21051 0.11763 0.39522 0.24373 0.55409 0.37826 0.16243 0.13233 0.29877 0.26254 0.40904 0.39059 0.11019 0.12796 0.19241 0.25062 0.24669 0.36797 0.0542 0.11725 0.08 0.20408 0.0775 0.26056 5e-3 0.05644 2e-3 0.09614-9e-3 0.11913-0.0106 0.02298-0.0305 0.04699-0.0595 0.07205-0.0217 0.02505-0.0543 0.05217-0.0981 0.08137-0.04 0.03127-0.0928 0.06566-0.15837 0.10315-0.0729 0.04163-0.13849 0.07492-0.1969 0.09986-0.0584 0.02494-0.11321 0.04363-0.16447 0.05608-0.0476 0.01037-0.0917 0.01451-0.13222 0.01241-0.0332-0.0021-0.0647-0.01145-0.0945-0.02809-0.0522-0.02912-0.0905-0.08942-0.11483-0.18096-0.0207-0.09369-0.064-0.2062-0.12997-0.33758-0.0586-0.13151-0.16004-0.27669-0.30433-0.43556-0.13704-0.15902-0.3536-0.32119-0.64966-0.48645-0.32244-0.17998-0.68017-0.30734-1.0729-0.38199-0.38505-0.07462-0.79162-0.0934-1.2193-0.05643-0.42691 0.0369-0.86531 0.12823-1.3148 0.27372-0.44095 0.14506-0.87968 0.34693-1.3159 0.60517-0.43102 0.25518-0.76339 0.50729-0.99781 0.75648-0.22653 0.24844-0.35983 0.48803-0.40033 0.71896-0.0333 0.23043 0.0258 0.45242 0.17701 0.66613 0.15445 0.21141 0.39886 0.40967 0.73325 0.59494 0.28283 0.1567 0.56176 0.27396 0.83694 0.35183 0.27894 0.07993 0.53187 0.13756 0.75883 0.1729 0.23422 0.03538 0.4323 0.06052 0.59419 0.0754 0.16197 0.0149 0.27053 0.0376 0.32563 0.0682 0.0257 0.0143 0.0425 0.0295 0.0503 0.0457 8e-3 0.0162 2e-3 0.0363-0.019 0.0605-0.017 0.0221-0.0499 0.0492-0.0987 0.0812-0.0451 0.034-0.10784 0.074-0.18818 0.11989zm11.429 0.0977c-0.071 0.0386-0.13641 0.0701-0.19612 0.0944-0.0597 0.0243-0.11558 0.0404-0.1677 0.0483-0.0447 8e-3 -0.0874 9e-3 -0.12829 2e-3 -0.0371-4e-3 -0.0706-0.0147-0.10022-0.0313l-2.0278-1.1317-6.066 3.3602c-0.0281 0.0156-0.0599 0.0252-0.0956 0.0288-0.0356 4e-3 -0.0786-7.6e-4 -0.12899-0.0131-0.0469-0.0143-0.10476-0.0366-0.17362-0.067-0.0687-0.0264-0.14855-0.0647-0.23953-0.11509-0.0873-0.0483-0.15669-0.0926-0.20807-0.13265-0.0549-0.0382-0.0953-0.0702-0.12122-0.0962-0.0224-0.028-0.0304-0.0518-0.024-0.0716 6e-3 -0.0198 0.0236-0.0375 0.0516-0.0531l6.0453-3.376-2.0359-1.1363c-0.0299-0.01667-0.0505-0.03646-0.062-0.05936-8e-3 -0.02083-4e-3 -0.04374 0.01-0.06873 0.018-0.02708 0.047-0.05834 0.0871-0.09377 0.0438-0.03337 0.10058-0.06988 0.17028-0.10953 0.0697-0.03968 0.13407-0.07208 0.19299-0.09717 0.0664-0.0251 0.1236-0.04289 0.17168-0.05336 0.0481-0.01047 0.0907-0.01362 0.12795-0.0095 0.0409 0.0063 0.0764 0.01777 0.10633 0.03451l5.0382 2.815c0.0298 0.0166 0.0483 0.0353 0.0556 0.0559 0.011 0.0227 7e-3 0.0474-0.0118 0.074-0.0152 0.0287-0.0471 0.0605-0.0959 0.0952-0.045 0.0327-0.10305 0.0683-0.17413 0.10695zm-0.82422 6.6946c-0.0289 0.0149-0.0596 0.025-0.092 0.0303-0.0325 5e-3 -0.0739 2e-3 -0.1243-0.0108-0.0504-0.0124-0.11162-0.0347-0.18363-0.0669-0.072-0.0321-0.162-0.0781-0.27002-0.13786-0.0936-0.0518-0.16747-0.0966-0.2215-0.13419-0.0504-0.0357-0.0865-0.0672-0.10813-0.0946-0.0181-0.0293-0.0235-0.0575-0.0163-0.0845 0.0108-0.025 0.0305-0.0528 0.0593-0.0833l1.0112-1.2256c0.1133-0.14188 0.20672-0.27738 0.28019-0.40645 0.0809-0.12916 0.12168-0.25507 0.1223-0.37769 4e-3 -0.12468-0.039-0.24612-0.12991-0.36427-0.0873-0.12018-0.23876-0.2402-0.45432-0.36001l-0.63061-0.35048-2.9837 1.595c-0.0285 0.0152-0.0625 0.0236-0.10196 0.025-0.0358 3e-3 -0.0789-1e-3 -0.12936-0.0135-0.0432-0.0123-0.0992-0.0336-0.16778-0.0638-0.0685-0.0263-0.14805-0.0645-0.23853-0.11459-0.0905-0.0501-0.16115-0.095-0.21204-0.1348-0.0508-0.0359-0.089-0.0667-0.11458-0.0925-0.022-0.0277-0.0296-0.0513-0.0228-0.0708 7e-3 -0.0195 0.0244-0.0369 0.0529-0.0522l6.5632-3.537c0.14651-0.079 0.28516-0.11294 0.41585-0.10188 0.13821 0.0111 0.25002 0.0405 0.33539 0.0882l1.5294 0.85452c0.18147 0.10139 0.32572 0.18818 0.43279 0.26038 0.11454 0.0723 0.2142 0.13825 0.29899 0.19801 0.22796 0.18097 0.39397 0.35819 0.49806 0.53161 0.10766 0.17528 0.15166 0.34566 0.1321 0.51113-0.0195 0.16521-0.10043 0.32245-0.24257 0.47171-0.13444 0.14906-0.32796 0.28916-0.58036 0.42027-0.24438 0.12694-0.49685 0.22262-0.75749 0.28715-0.25285 0.0645-0.51407 0.102-0.7837 0.11249-0.26565 9e-3 -0.53619-6e-3 -0.81171-0.043-0.27535-0.0372-0.55397-0.0943-0.83592-0.17122 0.0652 0.0921 0.10458 0.18576 0.11826 0.28103 0.0174 0.0933 0.0108 0.19108-0.0195 0.29343-0.0267 0.10427-0.0754 0.21404-0.14599 0.32929-0.0705 0.1151-0.15928 0.2396-0.26623 0.37347l-0.92766 1.158c-0.0799 0.0955-0.13974 0.16122-0.17957 0.19729-0.0362 0.0342-0.0687 0.0587-0.0977 0.0737zm3.6042-3.3969c0.28513-0.14937 0.46324-0.3103 0.53392-0.48274 0.0746-0.17473 8e-3 -0.36732-0.2004-0.57769-0.0658-0.0654-0.15217-0.13408-0.25898-0.20599-0.10315-0.0699-0.24891-0.15736-0.43729-0.26251l-0.80392-0.4487-2.4306 1.2994 0.92352 0.51381c0.24901 0.13853 0.49274 0.24205 0.7313 0.31061 0.24599 0.0687 0.48319 0.10829 0.71169 0.11891 0.23239 9e-3 0.45061-0.0107 0.65472-0.0584 0.20799-0.0456 0.39999-0.1145 0.57598-0.2067z" fill="#000" stroke="#000" stroke-width="1.0295" aria-label="CTR"/>
    </g>
   </g>
  </g>
  <g transform="matrix(.27691 -.033768 .034 .27502 13.157 152.29)">
   <path d="m107.88 235.97-11.696 7.1818c-0.59331 1.3552-1.1866 2.7103-1.7799 4.0655v0l-0.29979 16.704 2.3759 4.3605 14.364 8.286 4.369-3e-3 1.5615-0.35247 13.51-8.0708c0.83983-0.3932 2.4975-3.5481 2.4866-4.7323v0l-0.24441-15.702c-0.44973-0.63131-1.2532-2.8248-1.7114-3.9637v0l-14.935-8.6366-4.7005-0.50895z" fill="#666" stroke="#666" stroke-dashoffset="7712.4" stroke-linecap="round" stroke-linejoin="round" stroke-width="1.2688"/>
   <g transform="matrix(.81805 0 0 .90861 74.28 175.67)" fill="#fff" stroke="#666" stroke-width="4.1718">
    <path d="m28.809 78.238 15.612 8.0109c2.4839 1.2746 4.4798 4.3133 4.4798 6.8157v15.612c0 2.503-1.9962 3.5144-4.4804 2.2653l-15.614-7.8508c-2.522-1.2681-4.5559-4.3266-4.5556-6.8553l0.0022-15.772c3.52e-4 -2.5281 2.0345-3.5197 4.5562-2.2258z" stroke-dashoffset="7712.4" stroke-linecap="round" stroke-linejoin="round" stroke-width="1.4717"/>
    <path d="m32.992 95.694c-6e-6 0.06657-2e-3 0.12382-6e-3 0.17175-4e-3 0.0479-0.01231 0.08739-0.02489 0.11848-0.0083 0.03325-0.02074 0.06023-0.03733 0.08096-0.01659 0.02072-0.04562 0.0414-0.08709 0.06202-0.04147 0.02061-0.12858 0.041-0.26134 0.06117-0.13276 0.01602-0.29873 0.01523-0.49793-0.0024-0.19508-0.01967-0.42132-0.0676-0.67876-0.14379-0.25333-0.06996-0.53164-0.1817-0.83494-0.33524-0.52369-0.26511-0.99769-0.5926-1.4219-0.98246-0.42024-0.3879-0.78025-0.82875-1.08-1.3225-0.29564-0.4918-0.52469-1.0292-0.6871-1.6121-0.15827-0.58506-0.23738-1.2051-0.2373-1.86 8.3e-5 -0.67162 0.08558-1.2268 0.25647-1.6655 0.17503-0.43651 0.41875-0.75665 0.7311-0.96042 0.31228-0.20789 0.6848-0.29745 1.1175-0.26871 0.43671 0.03084 0.91898 0.1808 1.4467 0.4498 0.23264 0.11858 0.45901 0.25686 0.6791 0.41484 0.22005 0.15379 0.42346 0.31158 0.61023 0.47337 0.18674 0.16177 0.35271 0.32335 0.49792 0.48475 0.14518 0.16137 0.24472 0.28492 0.29863 0.37065 0.05805 0.08367 0.09537 0.1443 0.11197 0.18189 0.01658 0.03758 0.02902 0.07929 0.03731 0.12512 0.01243 0.04379 0.02072 0.09379 0.02486 0.15 0.0083 0.05832 0.01243 0.12493 0.01242 0.19984-8e-6 0.08323-0.0042 0.15186-0.01246 0.2059-0.0083 0.05404-0.02074 0.09765-0.03733 0.13082-0.01659 0.02901-0.03732 0.04759-0.06221 0.05574-0.02073 0.0061-0.04769 7.04e-4 -0.08086-0.01618-0.05806-0.02955-0.13894-0.11026-0.24264-0.24212-0.10371-0.13604-0.23854-0.29418-0.40452-0.47443-0.16185-0.18232-0.36107-0.37328-0.59769-0.57289-0.23252-0.2017-0.51286-0.38612-0.84104-0.55326-0.35736-0.182-0.68366-0.27527-0.97888-0.27976-0.29112-0.0065-0.54072 0.07687-0.74877 0.25025-0.20808 0.17342-0.37043 0.43268-0.48702 0.77781-0.11244 0.34311-0.16869 0.77319-0.16875 1.2902-6e-5 0.51285 0.05401 0.9948 0.16219 1.4458 0.11234 0.44892 0.27045 0.85848 0.47433 1.2287 0.208 0.36806 0.46172 0.69673 0.76114 0.98599 0.29935 0.28503 0.63812 0.52334 1.0163 0.71492 0.31988 0.16206 0.59815 0.26348 0.83484 0.30428 0.2408 0.04289 0.44419 0.05852 0.61021 0.0469 0.17014-0.01369 0.30913-0.03274 0.417-0.05715 0.10787-0.02441 0.1929-0.02085 0.25511 0.01069 0.02903 0.01472 0.05391 0.03357 0.07464 0.05656s0.03731 0.05637 0.04975 0.10012c0.01243 0.03959 0.02072 0.09166 0.02486 0.15619 0.0083 0.06662 0.01243 0.14779 0.01242 0.24351zm6.5079-3.158c-4e-6 0.07885-0.0041 0.14523-0.01238 0.19913-0.0083 0.0539-0.02269 0.09428-0.04331 0.12113-0.0165 0.0248-0.03918 0.03815-0.06805 0.04005-0.02474 4e-3 -0.05362-0.0024-0.08661-0.01921l-2.2544-1.1481-4.69e-4 6.9921c-3e-6 0.03323-0.0083 0.05812-0.0248 0.07468-0.01653 0.01656-0.04546 0.02268-0.08679 0.01837-0.04133-0.0085-0.09713-0.02633-0.16742-0.0536-0.06613-0.02102-0.15089-0.0577-0.25427-0.11003-0.09924-0.05024-0.18401-0.09939-0.25431-0.14745-0.07031-0.04391-0.12614-0.08257-0.16751-0.11597-0.04136-0.03756-0.0703-0.073-0.08685-0.10631-0.01654-0.03331-0.02481-0.06659-0.02481-0.09983l5.12e-4 -6.9952-2.2607-1.1513c-0.03315-0.01688-0.06423-0.04103-0.09323-0.07244-0.02486-0.02931-0.04558-0.06482-0.06215-0.10654-0.01657-0.04589-0.03107-0.10112-0.0435-0.1657-0.0083-0.06247-0.01242-0.13323-0.01242-0.21228 7e-6 -0.07905 0.0042-0.14558 0.01245-0.19961 0.01244-0.05607 0.02695-0.09861 0.04353-0.1276 0.01658-0.029 0.0373-0.04548 0.06217-0.04945 0.02901-0.0019 0.06009 0.0057 0.09323 0.02256l5.5818 2.8447c0.03299 0.01681 0.06186 0.03983 0.08661 0.06904 0.02887 0.03132 0.05155 0.06985 0.06804 0.11561 0.02062 0.04786 0.03505 0.10502 0.04329 0.17147 0.0082 0.06231 0.01236 0.13288 0.01236 0.21173zm6.4782 10.714c0 0.0331-0.0062 0.059-0.01846 0.0776-0.0123 0.0186-0.03897 0.0258-0.07998 0.0216-0.04102-4e-3 -0.09846-0.0209-0.17232-0.05s-0.17234-0.0748-0.29546-0.13716c-0.10672-0.054-0.19498-0.10285-0.26476-0.14646-0.06567-0.0415-0.11904-0.081-0.16011-0.11832-0.04105-0.0415-0.07389-0.085-0.09852-0.13062-0.02052-0.0435-0.039-0.0943-0.05542-0.1523l-0.73312-2.2664c-0.08628-0.25918-0.17668-0.50182-0.2712-0.72792-0.0904-0.22817-0.19932-0.43881-0.32674-0.63194-0.12743-0.19728-0.27749-0.37499-0.45019-0.53313-0.17272-0.1623-0.38044-0.30507-0.62316-0.42832l-0.70995-0.3605-1.39e-4 3.4271c-1e-6 0.0332-0.01029 0.057-0.03088 0.0714-0.01647 0.0165-0.04528 0.0227-0.08645 0.0184-0.03705-6e-3 -0.09058-0.023-0.16059-0.0502-0.06588-0.0209-0.1503-0.0574-0.25328-0.10957-0.10297-0.0521-0.18948-0.10214-0.25951-0.15004-0.0659-0.0417-0.11946-0.0791-0.16067-0.11245-0.04119-0.0375-0.07003-0.0728-0.08651-0.10602-0.01648-0.0332-0.02472-0.0664-0.02471-0.0996l3.47e-4 -7.4545c8e-6 -0.16178 0.04122-0.25278 0.12363-0.27301 0.08652-0.02228 0.17715-0.0093 0.27189 0.03901l1.6979 0.86532c0.20153 0.10271 0.36807 0.1938 0.49964 0.27328 0.13567 0.07743 0.25694 0.14959 0.36381 0.21649 0.30822 0.21094 0.5794 0.43404 0.81354 0.66931 0.2382 0.23732 0.43735 0.48579 0.59747 0.7454 0.1601 0.25958 0.27913 0.52514 0.3571 0.79668 0.08207 0.26948 0.12311 0.5429 0.1231 0.82027-5e-6 0.26909-0.03694 0.49249-0.11082 0.67021-0.06978 0.17568-0.1724 0.3119-0.30786 0.40866-0.13548 0.09264-0.29767 0.15103-0.48658 0.17515-0.18893 0.02413-0.40049 0.01815-0.63469-0.01796 0.13148 0.12477 0.25063 0.25984 0.35743 0.40521 0.1068 0.14122 0.20537 0.29688 0.29572 0.467 0.09445 0.1722 0.18274 0.35989 0.26485 0.56307 0.08212 0.20318 0.16422 0.42704 0.24632 0.67159l0.71405 2.1319c0.05742 0.17811 0.09434 0.30236 0.11076 0.37277 0.0164 0.0662 0.02461 0.11593 0.02461 0.14906zm-1.5946-6.4551c8e-6 -0.31478-0.06982-0.61539-0.20948-0.90187-0.13968-0.29065-0.3739-0.56733-0.70271-0.83006-0.10277-0.08134-0.21994-0.16173-0.35152-0.24117-0.12748-0.07735-0.2961-0.16944-0.50588-0.27627l-0.89506-0.45583-1.1e-4 2.7117 1.037 0.52694c0.27967 0.14211 0.52021 0.2312 0.72166 0.26728 0.20552 0.03401 0.37608 0.0254 0.51168-0.02581 0.13559-0.05535 0.2342-0.1502 0.29582-0.28455 0.06572-0.13226 0.09858-0.29572 0.09858-0.49039z" fill="#000" stroke="#000" stroke-width="1.1038" aria-label="CTR"/>
   </g>
   <g transform="matrix(.93825 0 0 .91536 7.9072 152.9)">
    <path d="m115.8 90.444 14.473 8.1709c2.294 1.2951 2.1453 3.3423-0.28438 4.5724l-14.171 7.1741c-2.1253 1.0759-5.5157 0.99222-7.6411-0.1735l-13.397-7.3475c-2.1699-1.1901-2.3674-3.0996-0.4054-4.2976l13.095-7.9962c2.2475-1.3724 5.9835-1.4273 8.3302-0.10245z" fill="#fff" stroke="#666" stroke-dashoffset="7712.4" stroke-linecap="round" stroke-linejoin="round" stroke-width="1.3691"/>
    <path d="m111.35 103.33c-0.0569 0.0311-0.10854 0.0572-0.15486 0.0785-0.0463 0.0213-0.0909 0.0376-0.13374 0.049-0.0392 0.0134-0.0785 0.0229-0.11792 0.0284-0.0394 6e-3 -0.095 8e-3 -0.1668 7e-3 -0.0718-7.8e-4 -0.20304-0.0131-0.39368-0.0368-0.18703-0.0257-0.40304-0.0674-0.64804-0.1253-0.23775-0.0578-0.49214-0.13641-0.7632-0.23594-0.2709-0.0956-0.53906-0.21683-0.80459-0.36378-0.45853-0.25377-0.80035-0.52457-1.0255-0.81266-0.22193-0.28658-0.32144-0.58381-0.29816-0.89196 0.027-0.30699 0.17952-0.62025 0.4583-0.94003 0.28707-0.321 0.70924-0.64073 1.2677-0.95941 0.57548-0.32841 1.167-0.58011 1.774-0.75436 0.61296-0.17282 1.2186-0.27157 1.8162-0.2958 0.60269-0.02636 1.1836 0.02111 1.7419 0.14256 0.56257 0.12364 1.0812 0.31806 1.5554 0.58302 0.20899 0.11678 0.39183 0.24176 0.54848 0.37488 0.16029 0.13099 0.29439 0.25974 0.40231 0.38624 0.10784 0.12641 0.18767 0.24746 0.23952 0.36314 0.0518 0.11558 0.0757 0.20111 0.0718 0.25663 4e-3 0.0555-2.8e-4 0.0945-0.0115 0.1171-0.0112 0.0225-0.0317 0.046-0.0616 0.0705-0.0224 0.0245-0.0559 0.051-0.10054 0.0795-0.0409 0.0305-0.0948 0.0641-0.16171 0.10059-0.0743 0.0406-0.14106 0.0729-0.2004 0.0972-0.0593 0.0242-0.1149 0.0423-0.16676 0.0543-0.0482 0.01-0.0926 0.0138-0.1333 0.0115-0.0333-2e-3 -0.0648-0.0116-0.0944-0.0281-0.0519-0.0289-0.0889-0.0884-0.11128-0.17856-0.0187-0.0922-0.0596-0.20311-0.12283-0.33265-0.0559-0.12963-0.15451-0.27293-0.29592-0.42991-0.13413-0.1571-0.34816-0.31771-0.6421-0.48178-0.32012-0.17868-0.67697-0.30582-1.0702-0.3813-0.38557-0.07541-0.7941-0.09603-1.2252-0.06195-0.4303 0.03402-0.87344 0.1215-1.329 0.26219-0.44697 0.14031-0.89305 0.33649-1.3379 0.58813-0.43958 0.24866-0.77987 0.49482-1.0215 0.73864-0.23373 0.24312-0.37346 0.47803-0.41964 0.70492-0.0389 0.22643 0.0153 0.44506 0.16241 0.65603 0.1504 0.20872 0.39161 0.40499 0.72365 0.58896 0.28085 0.1556 0.5587 0.27239 0.8337 0.35042 0.27873 0.0801 0.53183 0.13809 0.75931 0.17403 0.2348 0.036 0.43348 0.0618 0.59598 0.0773 0.16259 0.0155 0.27126 0.0384 0.32598 0.0688 0.0255 0.0142 0.0421 0.0292 0.0496 0.0452 8e-3 0.016 6.9e-4 0.0357-0.0205 0.0594-0.0176 0.0216-0.0513 0.0481-0.10119 0.0793-0.0462 0.0332-0.11022 0.0722-0.19212 0.11691z" stroke="#000" stroke-width="1.0268" aria-label="C"/>
   </g>
   <g transform="matrix(.74925 0 0 .91161 76.48 139.53)" stroke-width="4.3519">
    <g fill="#fff" stroke="#666" stroke-width="4.3519">
     <g transform="matrix(.91013 0 0 .91013 46.527 36.505)">
      <path d="m9.431 97.594 17.15-8.0717c2.6755-1.2592 4.8151-0.13303 4.8151 2.5167v16.529c0 2.6497-2.1396 5.8678-4.8151 7.2244l-17.15 8.696c-2.8254 1.4326-5.1157 0.38017-5.1157-2.3697v-17.154c0-2.7498 2.2903-6.0416 5.1157-7.3713z" stroke-dashoffset="7712.4" stroke-linecap="round" stroke-linejoin="round" stroke-width="1.6868"/>
      <path d="m15.356 112.32c0 0.0358-0.0069 0.0705-0.02058 0.10416-0.01372 0.0336-0.04346 0.0707-0.08921 0.11127-0.04576 0.0405-0.10984 0.0857-0.19226 0.13541-0.08243 0.0497-0.19236 0.10862-0.32983 0.17664-0.11918 0.059-0.21775 0.10328-0.29572 0.1329-0.07338 0.0273-0.13302 0.0434-0.17892 0.0482-0.04588 2.9e-4 -0.08259-0.0107-0.11013-0.0329-0.02295-0.0245-0.0436-0.0591-0.06196-0.10384l-0.82041-1.6475c-0.09664-0.18588-0.1979-0.34935-0.30381-0.49039-0.10132-0.14784-0.22341-0.25636-0.36628-0.32556-0.14293-0.0737-0.31129-0.10132-0.50511-0.0828-0.19392 0.014-0.42722 0.0878-0.69998 0.22128l-0.79865 0.39095v3.7226c0 0.036-0.01159 0.0733-0.03476 0.11178-0.01854 0.0362-0.05098 0.0748-0.09734 0.11572-0.04172 0.0342-0.10201 0.0752-0.18087 0.12329-0.07423 0.0503-0.16935 0.10408-0.28539 0.1615-0.11608 0.0574-0.21361 0.0989-0.29258 0.12449-0.074345 0.0278-0.13476 0.0464-0.18124 0.0559-0.046485 5e-3 -0.07903-2e-3 -0.097632-0.0194-0.018603-0.0179-0.027904-0.0448-0.027904-0.0809v-8.1069c0-0.17594 0.046496-0.32021 0.13947-0.43279 0.097598-0.11931 0.19982-0.20476 0.30665-0.25635l1.9108-0.9228c0.22632-0.1093 0.41328-0.19285 0.56093-0.25068 0.15221-0.0645 0.28822-0.11899 0.40805-0.16339 0.34545-0.10849 0.64918-0.16324 0.91128-0.1643 0.26651-3e-3 0.48922 0.0482 0.66821 0.15427 0.1789 0.10605 0.31188 0.26339 0.39897 0.47201 0.09165 0.20186 0.13747 0.4528 0.13747 0.75283 0 0.29108-0.04124 0.57313-0.12372 0.84619-0.07792 0.2664-0.19254 0.52612-0.3439 0.77918-0.15142 0.24868-0.33274 0.48963-0.54402 0.72286-0.2114 0.23337-0.44822 0.45906-0.7105 0.67706 0.14727-9e-3 0.28069 6e-3 0.40026 0.0465 0.11953 0.0357 0.22983 0.0961 0.33091 0.1811 0.10565 0.0827 0.20438 0.18904 0.2962 0.31884 0.0918 0.12976 0.18357 0.28191 0.27532 0.45641l0.79726 1.5218c0.06406 0.12948 0.10524 0.22325 0.12356 0.28133 0.0183 0.0536 0.02745 0.0983 0.02745 0.1341zm-1.7817-5.2352c0-0.34092-0.07816-0.59007-0.23454-0.74751-0.15644-0.16199-0.41886-0.2054-0.78749-0.13011-0.11526 0.0244-0.24672 0.0656-0.39437 0.1236-0.1431 0.0558-0.33244 0.14076-0.5681 0.25487l-1.0067 0.48748v2.9457l1.1661-0.56935c0.31404-0.15332 0.58399-0.32107 0.80996-0.50325 0.23042-0.18881 0.42157-0.38534 0.57349-0.58962 0.15186-0.20869 0.26227-0.41955 0.33126-0.63263 0.07356-0.21526 0.11033-0.42829 0.11033-0.63913zm9.22 0.51348c0 0.0709-0.0022 0.13395-0.0065 0.18925s-0.0133 0.10622-0.02689 0.1528c-9e-3 0.0443-0.02241 0.0864-0.04034 0.12623-0.01793 0.0399-0.04931 0.093-0.09415 0.15946-0.04484 0.0664-0.13904 0.18167-0.28265 0.34569-0.14365 0.15965-0.3233 0.33713-0.53899 0.53248-0.21132 0.1888-0.45652 0.38109-0.73566 0.57691-0.27485 0.19819-0.57696 0.37881-0.90642 0.54187-0.56936 0.2818-1.0853 0.44365-1.5475 0.48525-0.45827 0.0394-0.8512-0.0429-1.1786-0.2471-0.32314-0.20662-0.57364-0.53418-0.75138-0.9827-0.17327-0.45544-0.25993-1.034-0.25993-1.7355 0-0.71941 0.0935-1.4062 0.28044-2.06 0.1914-0.65574 0.45782-1.2605 0.7991-1.8142 0.34096-0.55763 0.74742-1.053 1.2192-1.4859 0.47566-0.43462 1.0004-0.79036 1.5741-1.0673 0.25268-0.12199 0.49841-0.2162 0.73722-0.28266 0.23865-0.0709 0.45916-0.11967 0.66154-0.14645 0.20228-0.0268 0.38198-0.0316 0.53915-0.0144 0.1571 0.0171 0.26478 0.0426 0.3231 0.0764 0.06278 0.0272 0.10314 0.052 0.12109 0.0743 0.01793 0.0223 0.03138 0.0535 0.04035 0.0934 0.01345 0.0333 0.02241 0.0777 0.0269 0.13316 9e-3 0.0533 0.01345 0.11973 0.01345 0.19947 0 0.0886-0.0045 0.16607-0.01345 0.23243-9e-3 0.0664-0.02241 0.12605-0.04034 0.17905-0.01793 0.0486-0.04035 0.0905-0.06725 0.12566-0.02242 0.0286-0.05157 0.0516-0.08744 0.069-0.06279 0.0305-0.15029 0.0308-0.2625 1e-3 -0.11224-0.0342-0.2582-0.0588-0.43794-0.0736-0.17532-0.0215-0.39122-0.0123-0.64775 0.0277-0.25222 0.0333-0.55647 0.13625-0.91287 0.30881-0.38838 0.18804-0.74325 0.43772-1.0645 0.74909-0.31702 0.305-0.58897 0.66179-0.81574 1.0703-0.22692 0.40881-0.40402 0.86047-0.53122 1.3549-0.1227 0.48793-0.18406 1.0085-0.18406 1.5616 0 0.54865 0.05909 1.0059 0.17724 1.3716 0.12266 0.35891 0.29522 0.62626 0.51761 0.80205 0.22679 0.169 0.50329 0.24652 0.82937 0.23263 0.3258-0.0183 0.69423-0.12897 1.1052-0.33178 0.34735-0.17143 0.64932-0.36266 0.90602-0.57367 0.26102-0.2131 0.4814-0.41496 0.6612-0.60563 0.1842-0.19722 0.33464-0.36667 0.45135-0.50838 0.11668-0.14168 0.20864-0.22906 0.27591-0.26219 0.03139-0.0155 0.05829-0.022 0.0807-0.0198 0.02241 2e-3 0.04034 0.02 0.05379 0.0532 0.01345 0.0288 0.02241 0.0753 0.02689 0.13957 9e-3 0.062 0.01345 0.14398 0.01345 0.24586zm5.9949-2.2445c0 0.0879-0.0044 0.16472-0.01322 0.23058-0.0088 0.0615-0.02425 0.11961-0.04629 0.17445-0.01764 0.0483-0.04189 0.091-0.07275 0.12826-0.02646 0.0307-0.05954 0.0558-0.09923 0.0755l-3.8053 1.8828c-0.10256 0.0507-0.20069 0.0662-0.29439 0.0462-0.08925-0.0266-0.13388-0.12605-0.13388-0.29844v-7.943c0-0.03536 0.0089-0.07062 0.02678-0.10576 0.01785-0.03514 0.04908-0.07012 0.0937-0.10492 0.04461-0.03922 0.10484-0.08156 0.18068-0.12703 0.07581-0.04986 0.16721-0.10062 0.27419-0.15228 0.1114-0.05379 0.20272-0.09127 0.27398-0.11244 0.0757-0.02773 0.1358-0.04351 0.18031-0.04735 0.0445-0.0083 0.07565-0.0034 0.09344 0.01445 0.0178 0.01788 0.02669 0.04448 0.02669 0.07979v7.4075l3.0837-1.5216c0.0397-0.0196 0.07277-0.0249 0.09923-0.016 0.03087 2e-3 0.05512 0.0189 0.07275 0.0498 0.02204 0.0243 0.03747 0.065 0.04629 0.12212 0.0088 0.0571 0.01322 0.12965 0.01322 0.21751z" fill="#000" stroke="#000" stroke-width="1.2652" aria-label="RCL"/>
     </g>
    </g>
   </g>
  </g>
 </g>
</svg>
