<?xml version="1.0" encoding="UTF-8"?>
<svg width="34.281mm" height="39.924mm" version="1.1" viewBox="0 0 34.281 39.924" xmlns="http://www.w3.org/2000/svg" xmlns:dc="http://purl.org/dc/elements/1.1/" xmlns:ns="https://creativecommons.org/ns#" xmlns:rdf="http://www.w3.org/1999/02/22-rdf-syntax-ns#" xmlns:xlink="http://www.w3.org/1999/xlink">
 <metadata>
  <rdf:RDF>
   <ns:Work rdf:about="">
    <dc:format>image/svg+xml</dc:format>
    <dc:type rdf:resource="http://purl.org/dc/dcmitype/StillImage"/>
   </ns:Work>
  </rdf:RDF>
 </metadata>
 <path d="m5.1248 39.623-4.8239-4.8239m14.559 4.9116-14.647-14.647m24.207 14.559-24.207-24.207m33.855 24.207-33.855-33.855m33.855 24.207-24.207-24.207m24.207 4.9116-4.8239-4.8239m4.8239 14.472-14.647-14.647m-14.296 0.0878-4.8239 4.8239m14.559-4.9116-14.647 14.647m24.207-14.559-24.207 24.207m33.855-24.207-33.855 33.855m33.855-24.207-24.207 24.207m24.207-14.559-14.647 14.647m14.647-4.9994-4.8239 4.8239" fill="#377eb8" fill-opacity=".53333" stroke="#000" stroke-linejoin="bevel" stroke-width=".60299"/>
 <rect transform="rotate(90)" x="8.8905" y="-9.2502" width="17.892" height="3.4027" rx="2.245" ry="1.7013" fill="#808080" opacity=".25" stop-color="#000000" stroke="#000" stroke-linecap="square" stroke-linejoin="round" stroke-width="1.0583" style="-inkscape-stroke:none;font-variation-settings:normal"/>
 <rect transform="rotate(90)" x="13.001" y="-14.086" width="17.892" height="3.4027" rx="2.245" ry="1.7013" fill="#808080" opacity=".25" stop-color="#000000" stroke="#000" stroke-linecap="square" stroke-linejoin="round" stroke-width="1.0583" style="-inkscape-stroke:none;font-variation-settings:normal"/>
 <rect transform="rotate(90)" x="18.562" y="-18.922" width="17.892" height="3.4027" rx="2.245" ry="1.7013" fill="#808080" opacity=".25" stop-color="#000000" stroke="#000" stroke-linecap="square" stroke-linejoin="round" stroke-width="1.0583" style="-inkscape-stroke:none;font-variation-settings:normal"/>
 <rect transform="rotate(90)" x="24.139" y="-4.4142" width="17.892" height="3.4027" rx="2.245" ry="1.7013" fill="#808080" opacity=".25" stop-color="#000000" stroke="#000" stroke-linecap="square" stroke-linejoin="round" stroke-width="1.0583" style="-inkscape-stroke:none;font-variation-settings:normal"/>
 <rect transform="rotate(90)" x="28.25" y="-9.2502" width="17.892" height="3.4027" rx="2.245" ry="1.7013" fill="#808080" opacity=".25" stop-color="#000000" stroke="#000" stroke-linecap="square" stroke-linejoin="round" stroke-width="1.0583" style="-inkscape-stroke:none;font-variation-settings:normal"/>
 <rect transform="rotate(90)" x="33.811" y="-14.086" width="17.892" height="3.4027" rx="2.245" ry="1.7013" fill="#808080" opacity=".25" stop-color="#000000" stroke="#000" stroke-linecap="square" stroke-linejoin="round" stroke-width="1.0583" style="-inkscape-stroke:none;font-variation-settings:normal"/>
 <rect transform="rotate(90)" x="23.398" y="-23.758" width="17.892" height="3.4027" rx="2.245" ry="1.7013" fill="#808080" opacity=".25" stop-color="#000000" stroke="#000" stroke-linecap="square" stroke-linejoin="round" stroke-width="1.0583" style="-inkscape-stroke:none;font-variation-settings:normal"/>
 <path d="m20.409 5.7468c-0.0338 0.17704-0.05374 0.36115-0.05374 0.55241v13.402c0 1.2437 0.75864 2.2453 1.7012 2.2453s1.7012-1.0016 1.7012-2.2453v-13.402c0-0.19124-0.01943-0.37539-0.05323-0.55241" fill="#808080" opacity=".25" stop-color="#000000" stroke="#000" stroke-linecap="square" stroke-linejoin="round" stroke-width="1.0583" style="-inkscape-stroke:none;font-variation-settings:normal"/>
 <path d="m1.0481 5.7468c-0.0338 0.17703-0.05374 0.36115-0.05374 0.55241v13.402c0 1.2437 0.75864 2.2453 1.7012 2.2453s1.7012-1.0016 1.7012-2.2453v-13.402c0-0.19125-0.01943-0.3754-0.05323-0.55241" fill="#808080" opacity=".25" stop-color="#000000" stroke="#000" stroke-linecap="square" stroke-linejoin="round" stroke-width="1.0583" style="-inkscape-stroke:none;font-variation-settings:normal"/>
 <rect transform="rotate(90)" x="14.452" y="-33.43" width="17.892" height="3.4027" rx="2.245" ry="1.7013" fill="#808080" opacity=".25" stop-color="#000000" stroke="#000" stroke-linecap="square" stroke-linejoin="round" stroke-width="1.0583" style="-inkscape-stroke:none;font-variation-settings:normal"/>
 <rect transform="rotate(90)" x="8.8905" y="-28.594" width="17.892" height="3.4027" rx="2.245" ry="1.7013" fill="#808080" opacity=".25" stop-color="#000000" stroke="#000" stroke-linecap="square" stroke-linejoin="round" stroke-width="1.0583" style="-inkscape-stroke:none;font-variation-settings:normal"/>
 <path d="m18.922 5.3012v8.3173c0 1.2437-0.75864 2.2453-1.7012 2.2453s-1.7012-1.0016-1.7012-2.2453v-8.3173" fill="#808080" opacity=".25" stop-color="#000000" stroke="#000" stroke-linecap="square" stroke-linejoin="round" stroke-width="1.0583" style="-inkscape-stroke:none;font-variation-settings:normal"/>
 <path d="m33.43 5.6207v3.036c0 1.2437-0.75864 2.2453-1.7012 2.2453s-1.7012-1.0016-1.7012-2.2453v-3.036" fill="#808080" opacity=".25" stop-color="#000000" stroke="#000" stroke-linecap="square" stroke-linejoin="round" stroke-width="1.0583" style="-inkscape-stroke:none;font-variation-settings:normal"/>
 <path d="m14.086 5.5239v3.036c0 1.2437-0.75864 2.2453-1.7012 2.2453s-1.7012-1.0016-1.7012-2.2453v-3.036" fill="#808080" opacity=".25" stop-color="#000000" stroke="#000" stroke-linecap="square" stroke-linejoin="round" stroke-width="1.0583" style="-inkscape-stroke:none;font-variation-settings:normal"/>
 <g transform="translate(-12.764 -199.23)">
  <a transform="matrix(2 0 0 2 -26.653 -105.22)" xlink:href="https://d-bl.github.io/GroundForge/pattern.html?patchWidth=7&amp;patchHeight=8&amp;footside=----,---b&amp;tile=5,-,5&amp;headside=-,c&amp;shiftColsSW=-1&amp;shiftRowsSW=3&amp;shiftColsSE=1&amp;shiftRowsSE=1&amp;e1=ctc&amp;l2=tl&amp;d2=tr&amp;e3=ct">
   <text x="24.575508" y="153.90761" fill="#000000" fill-opacity=".99854" font-size="2.1167px" stroke-linecap="square" stroke-width=".565" xml:space="preserve"><tspan x="24.575508" y="153.90761" fill="#000000" stroke-width=".565">b</tspan></text>
  </a>
  <a transform="matrix(2 0 0 2 -16.385 -105.51)" xlink:href="https://d-bl.github.io/GroundForge/pattern.html?patchWidth=7&amp;patchHeight=8&amp;footside=----,---b&amp;tile=5,-,5&amp;headside=-,c&amp;shiftColsSW=-1&amp;shiftRowsSW=1&amp;shiftColsSE=1&amp;shiftRowsSE=3&amp;footsideStitch=tr&amp;headsideStitch=tl&amp;tileStitch=ct&amp;e1=ct&amp;e3=ctc">
   <text x="24.361588" y="153.97891" fill="#000000" fill-opacity=".99854" font-size="2.1167px" stroke-linecap="square" stroke-width=".565" xml:space="preserve"><tspan x="24.361588" y="153.97891" fill="#000000" stroke-width=".565">d</tspan></text>
  </a>
 </g>
 <rect transform="rotate(90)" x="29.942" y="-28.594" width="17.892" height="3.4027" rx="2.245" ry="1.7013" fill="#808080" opacity=".25" stop-color="#000000" stroke="#000" stroke-linecap="square" stroke-linejoin="round" stroke-width="1.0583" style="-inkscape-stroke:none;font-variation-settings:normal"/>
 <rect transform="rotate(90)" x="34.052" y="-33.43" width="17.892" height="3.4027" rx="2.245" ry="1.7013" fill="#808080" opacity=".25" stop-color="#000000" stroke="#000" stroke-linecap="square" stroke-linejoin="round" stroke-width="1.0583" style="-inkscape-stroke:none;font-variation-settings:normal"/>
</svg>
