<?xml version="1.0" encoding="UTF-8"?>
<svg width="34.281mm" height="39.53mm" version="1.1" viewBox="0 0 34.281 39.53" xmlns="http://www.w3.org/2000/svg" xmlns:dc="http://purl.org/dc/elements/1.1/" xmlns:ns="https://creativecommons.org/ns#" xmlns:rdf="http://www.w3.org/1999/02/22-rdf-syntax-ns#" xmlns:xlink="http://www.w3.org/1999/xlink">
 <metadata>
  <rdf:RDF>
   <ns:Work rdf:about="">
    <dc:format>image/svg+xml</dc:format>
    <dc:type rdf:resource="http://purl.org/dc/dcmitype/StillImage"/>
   </ns:Work>
  </rdf:RDF>
 </metadata>
 <path d="m5.1248 39.229-4.8239-4.8239m14.559 4.9116-14.647-14.647m24.207 14.559-24.207-24.207m33.855 24.207-33.855-33.855m33.855 24.207-24.207-24.207m24.207 4.9116-4.8239-4.8239m4.8239 14.472-14.647-14.647m-14.296 0.0878-4.8239 4.8239m14.559-4.9116-14.647 14.647m24.207-14.559-24.207 24.207m33.855-24.207-33.855 33.855m33.855-24.207-24.207 24.207m24.207-14.559-14.647 14.647m14.647-4.9994-4.8239 4.8239" fill="#377eb8" fill-opacity=".53333" stroke="#000" stroke-linejoin="bevel" stroke-width=".60299"/>
 <g transform="translate(-25.723 -157.18)">
  <a transform="matrix(2 0 0 2 -14.482 -147.56)" xlink:href="https://d-bl.github.io/GroundForge/pattern.html?patchWidth=7&amp;patchHeight=8&amp;footside=---b,----&amp;tile=-5,5-,-5&amp;headside=c,-&amp;shiftColsSW=-1&amp;shiftRowsSW=3&amp;shiftColsSE=2&amp;shiftRowsSE=0&amp;footsideStitch=tr&amp;headsideStitch=tl&amp;tileStitch=ct&amp;f1=clc&amp;e2=ctc&amp;f3=crc">
   <text x="24.575508" y="153.90761" fill="#000000" fill-opacity=".99854" font-size="2.1167px" stroke-linecap="square" stroke-width=".565" xml:space="preserve"><tspan x="24.575508" y="153.90761" fill="#000000" stroke-width=".565">V</tspan></text>
  </a>
  <a transform="matrix(2 0 0 2 -4.2139 -147.56)" xlink:href="https://d-bl.github.io/GroundForge/pattern.html?patchWidth=7&amp;patchHeight=8&amp;footside=---b,----&amp;tile=-5-,5-5&amp;headside=c,-&amp;shiftColsSW=0&amp;shiftRowsSW=2&amp;shiftColsSE=3&amp;shiftRowsSE=1&amp;footsideStitch=tr&amp;headsideStitch=tl&amp;tileStitch=ct&amp;f1=ctc&amp;g2=crc&amp;e2=clc">
   <text y="153.90761" fill="#000000" fill-opacity=".99854" font-size="2.1167px" stroke-linecap="square" stroke-width=".565" xml:space="preserve"><tspan x="24.575508" y="153.90761" fill="#000000" stroke-width=".565">H</tspan></text>
  </a>
 </g>
 <rect x="1.5862" y="5.519" width="7.9573" height="14.517" rx="2.4623" ry="2.269" fill="#808080" opacity=".25" stop-color="#000000" stroke="#000" stroke-linecap="square" stroke-linejoin="round" stroke-width="1.0583" style="-inkscape-stroke:none;font-variation-settings:normal"/>
 <rect x="11.25" y="5.4313" width="7.9573" height="14.517" rx="2.4623" ry="2.269" fill="#808080" opacity=".25" stop-color="#000000" stroke="#000" stroke-linecap="square" stroke-linejoin="round" stroke-width="1.0583" style="-inkscape-stroke:none;font-variation-settings:normal"/>
 <rect x="20.597" y="5.6068" width="7.9573" height="14.517" rx="2.4623" ry="2.269" fill="#808080" opacity=".25" stop-color="#000000" stroke="#000" stroke-linecap="square" stroke-linejoin="round" stroke-width="1.0583" style="-inkscape-stroke:none;font-variation-settings:normal"/>
 <rect x="30.1" y="5.3834" width="7.9573" height="14.517" rx="2.4623" ry="2.269" fill="#808080" opacity=".25" stop-color="#000000" stroke="#000" stroke-linecap="square" stroke-linejoin="round" stroke-width="1.0583" style="-inkscape-stroke:none;font-variation-settings:normal"/>
 <rect x="-3.7519" y="19.891" width="7.9573" height="14.517" rx="2.4623" ry="2.269" fill="#808080" opacity=".25" stop-color="#000000" stroke="#000" stroke-linecap="square" stroke-linejoin="round" stroke-width="1.0583" style="-inkscape-stroke:none;font-variation-settings:normal"/>
 <rect x="6.0941" y="20.036" width="7.9573" height="14.517" rx="2.4623" ry="2.269" fill="#808080" opacity=".25" stop-color="#000000" stroke="#000" stroke-linecap="square" stroke-linejoin="round" stroke-width="1.0583" style="-inkscape-stroke:none;font-variation-settings:normal"/>
 <rect x="15.758" y="19.948" width="7.9573" height="14.517" rx="2.4623" ry="2.269" fill="#808080" opacity=".25" stop-color="#000000" stroke="#000" stroke-linecap="square" stroke-linejoin="round" stroke-width="1.0583" style="-inkscape-stroke:none;font-variation-settings:normal"/>
 <rect x="25.105" y="20.124" width="7.9573" height="14.517" rx="2.4623" ry="2.269" fill="#808080" opacity=".25" stop-color="#000000" stroke="#000" stroke-linecap="square" stroke-linejoin="round" stroke-width="1.0583" style="-inkscape-stroke:none;font-variation-settings:normal"/>
 <rect x="-.31756" y="34.171" width="7.9573" height="14.517" rx="2.4623" ry="2.269" fill="#808080" opacity=".25" stop-color="#000000" stroke="#000" stroke-linecap="square" stroke-linejoin="round" stroke-width="1.0583" style="-inkscape-stroke:none;font-variation-settings:normal"/>
 <rect x="9.5284" y="34.316" width="7.9573" height="14.517" rx="2.4623" ry="2.269" fill="#808080" opacity=".25" stop-color="#000000" stroke="#000" stroke-linecap="square" stroke-linejoin="round" stroke-width="1.0583" style="-inkscape-stroke:none;font-variation-settings:normal"/>
 <rect x="19.193" y="34.228" width="7.9573" height="14.517" rx="2.4623" ry="2.269" fill="#808080" opacity=".25" stop-color="#000000" stroke="#000" stroke-linecap="square" stroke-linejoin="round" stroke-width="1.0583" style="-inkscape-stroke:none;font-variation-settings:normal"/>
 <rect x="28.539" y="34.404" width="7.9573" height="14.517" rx="2.4623" ry="2.269" fill="#808080" opacity=".25" stop-color="#000000" stroke="#000" stroke-linecap="square" stroke-linejoin="round" stroke-width="1.0583" style="-inkscape-stroke:none;font-variation-settings:normal"/>
</svg>
