<?xml version="1.0" encoding="UTF-8"?>
<svg width="34.281mm" height="39.975mm" version="1.1" viewBox="0 0 34.281 39.975" xmlns="http://www.w3.org/2000/svg" xmlns:dc="http://purl.org/dc/elements/1.1/" xmlns:ns="https://creativecommons.org/ns#" xmlns:rdf="http://www.w3.org/1999/02/22-rdf-syntax-ns#" xmlns:xlink="http://www.w3.org/1999/xlink">
 <metadata>
  <rdf:RDF>
   <ns:Work rdf:about="">
    <dc:format>image/svg+xml</dc:format>
    <dc:type rdf:resource="http://purl.org/dc/dcmitype/StillImage"/>
   </ns:Work>
  </rdf:RDF>
 </metadata>
 <path d="m5.1248 39.674-4.8239-4.8239m14.559 4.9116-14.647-14.647m24.207 14.559-24.207-24.207m33.855 24.207-33.855-33.855m33.855 24.207-24.207-24.207m24.207 4.9116-4.8239-4.8239m4.8239 14.472-14.647-14.647m-14.296 0.0878-4.8239 4.8239m14.559-4.9116-14.647 14.647m24.207-14.559-24.207 24.207m33.855-24.207-33.855 33.855m33.855-24.207-24.207 24.207m24.207-14.559-14.647 14.647m14.647-4.9994-4.8239 4.8239" fill="#377eb8" fill-opacity=".53333" stroke="#000" stroke-linejoin="bevel" stroke-width=".60299"/>
 <rect x="1.1418" y="5.8217" width="7.8147" height="19.169" rx="2.4623" ry="2.269" fill="#808080" opacity=".25" stop-color="#000000" stroke="#000" stroke-linecap="square" stroke-linejoin="round" stroke-width="1.0583" style="-inkscape-stroke:none;font-variation-settings:normal"/>
 <rect x="10.956" y="15.316" width="7.8147" height="19.169" rx="2.4623" ry="2.269" fill="#808080" opacity=".25" stop-color="#000000" stroke="#000" stroke-linecap="square" stroke-linejoin="round" stroke-width="1.0583" style="-inkscape-stroke:none;font-variation-settings:normal"/>
 <rect x="1.2235" y="25.346" width="7.8147" height="19.169" rx="2.4623" ry="2.269" fill="#808080" opacity=".25" stop-color="#000000" stroke="#000" stroke-linecap="square" stroke-linejoin="round" stroke-width="1.0583" style="-inkscape-stroke:none;font-variation-settings:normal"/>
 <rect x="10.896" y="34.931" width="7.8147" height="19.169" rx="2.4623" ry="2.269" fill="#808080" opacity=".25" stop-color="#000000" stroke="#000" stroke-linecap="square" stroke-linejoin="round" stroke-width="1.0583" style="-inkscape-stroke:none;font-variation-settings:normal"/>
 <rect x="20.437" y="24.991" width="7.8147" height="19.169" rx="2.4623" ry="2.269" fill="#808080" opacity=".25" stop-color="#000000" stroke="#000" stroke-linecap="square" stroke-linejoin="round" stroke-width="1.0583" style="-inkscape-stroke:none;font-variation-settings:normal"/>
 <path d="m18.838 5.8958-0.067 7.1506c-0.0118 1.257-1.0983 2.2691-2.4624 2.2691h-2.8903c-1.3641 0-2.4742-1.0121-2.4624-2.2691l0.067-7.1506" fill="#808080" opacity=".25" stop-color="#000000" stroke="#000" stroke-linecap="square" stroke-linejoin="round" stroke-width="1.0583" style="-inkscape-stroke:none;font-variation-settings:normal"/>
 <path d="m37.507 6.08-0.067 7.1506c-0.0118 1.257-1.0983 2.2691-2.4624 2.2691h-2.8903c-1.3641 0-2.4742-1.0121-2.4624-2.2691l0.067-7.1506" fill="#808080" opacity=".25" stop-color="#000000" stroke="#000" stroke-linecap="square" stroke-linejoin="round" stroke-width="1.0583" style="-inkscape-stroke:none;font-variation-settings:normal"/>
 <rect x="20.437" y="5.8217" width="7.8147" height="19.169" rx="2.4623" ry="2.269" fill="#808080" opacity=".25" stop-color="#000000" stroke="#000" stroke-linecap="square" stroke-linejoin="round" stroke-width="1.0583" style="-inkscape-stroke:none;font-variation-settings:normal"/>
 <g transform="translate(-28.116 -157.18)">
  <a transform="matrix(2 0 0 2 -14.482 -147.56)" xlink:href="https://d-bl.github.io/GroundForge/pattern.html?patchWidth=7&amp;patchHeight=8&amp;footside=---b,----&amp;tile=-5,5-,-5,5-&amp;headside=c,-&amp;shiftColsSW=0&amp;shiftRowsSW=4&amp;shiftColsSE=2&amp;shiftRowsSE=2&amp;footsideStitch=tr&amp;headsideStitch=tl&amp;tileStitch=ct&amp;f1=ctcc&amp;e2=clc&amp;f3=cctc&amp;e4=crc">
   <text x="24.575508" y="153.90761" fill="#000000" fill-opacity=".99854" font-size="2.1167px" stroke-linecap="square" stroke-width=".565" xml:space="preserve"><tspan x="24.575508" y="153.90761" fill="#000000" stroke-width=".565">V</tspan></text>
  </a>
  <a transform="matrix(2 0 0 2 1.6332 -149.62)" xlink:href="https://d-bl.github.io/GroundForge/pattern.html?patchWidth=7&amp;patchHeight=8&amp;footside=---b,----&amp;tile=-5-5,5-5-&amp;headside=c,-&amp;shiftColsSW=-2&amp;shiftRowsSW=2&amp;shiftColsSE=2&amp;shiftRowsSE=2&amp;footsideStitch=tr&amp;headsideStitch=tl&amp;tileStitch=ct&amp;h1=cctc&amp;f1=ctc&amp;dg2=clc&amp;e2=ctcc">
   <text y="155.06731" fill="#000000" fill-opacity=".99854" font-size="2.1167px" stroke-linecap="square" stroke-width=".565" xml:space="preserve"><tspan x="22.76034" y="155.06731" fill="#000000" stroke-width=".565">H</tspan></text>
  </a>
 </g>
 <rect x="30.161" y="15.53" width="7.8147" height="19.169" rx="2.4623" ry="2.269" fill="#808080" opacity=".25" stop-color="#000000" stroke="#000" stroke-linecap="square" stroke-linejoin="round" stroke-width="1.0583" style="-inkscape-stroke:none;font-variation-settings:normal"/>
 <rect x="30.24" y="34.931" width="7.8147" height="19.169" rx="2.4623" ry="2.269" fill="#808080" opacity=".25" stop-color="#000000" stroke="#000" stroke-linecap="square" stroke-linejoin="round" stroke-width="1.0583" style="-inkscape-stroke:none;font-variation-settings:normal"/>
</svg>
