<?xml version="1.0" encoding="UTF-8"?>
<svg width="34.281mm" height="39.782mm" version="1.1" viewBox="0 0 34.281 39.782" xmlns="http://www.w3.org/2000/svg" xmlns:dc="http://purl.org/dc/elements/1.1/" xmlns:ns="https://creativecommons.org/ns#" xmlns:rdf="http://www.w3.org/1999/02/22-rdf-syntax-ns#" xmlns:xlink="http://www.w3.org/1999/xlink">
 <metadata>
  <rdf:RDF>
   <ns:Work rdf:about="">
    <dc:format>image/svg+xml</dc:format>
    <dc:type rdf:resource="http://purl.org/dc/dcmitype/StillImage"/>
   </ns:Work>
  </rdf:RDF>
 </metadata>
 <path d="m5.1248 39.481-4.8239-4.8239m14.559 4.9116-14.647-14.647m24.207 14.559-24.207-24.207m33.855 24.207-33.855-33.855m33.855 24.207-24.207-24.207m24.207 4.9116-4.8239-4.8239m4.8239 14.472-14.647-14.647m-14.296 0.0878-4.8239 4.8239m14.559-4.9116-14.647 14.647m24.207-14.559-24.207 24.207m33.855-24.207-33.855 33.855m33.855-24.207-24.207 24.207m24.207-14.559-14.647 14.647m14.647-4.9994-4.8239 4.8239" fill="#377eb8" fill-opacity=".53333" stroke="#000" stroke-linejoin="bevel" stroke-width=".60299"/>
 <path d="m24.989 5.3415v7.3939c0 1.2437 0.80425 2.2448 1.803 2.2448h0.10903c0.99874 0 1.8025-1.0011 1.8025-2.2448v-7.3939" fill="#808080" opacity=".25" stop-color="#000000" stroke="#000" stroke-linecap="square" stroke-linejoin="round" stroke-width="1.0583" style="-inkscape-stroke:none;font-variation-settings:normal"/>
 <path d="m29.824 5.3745v12.197c0 1.2437 0.80425 2.2448 1.803 2.2448h0.10903c0.99874 0 1.8025-1.0011 1.8025-2.2448v-12.197" fill="#808080" opacity=".25" stop-color="#000000" stroke="#000" stroke-linecap="square" stroke-linejoin="round" stroke-width="1.0583" style="-inkscape-stroke:none;font-variation-settings:normal"/>
 <path d="m23.867 5.1989v3.9341c0 1.2437-0.80374 2.2448-1.8025 2.2448h-0.10904c-0.99873 0-1.803-1.0011-1.803-2.2448v-3.9341" fill="#808080" opacity=".25" stop-color="#000000" stroke="#000" stroke-linecap="square" stroke-linejoin="round" stroke-width="1.0583" style="-inkscape-stroke:none;font-variation-settings:normal"/>
 <rect transform="rotate(90)" x="5.6189" y="-14.195" width="33.574" height="3.7146" rx="3.1534" ry="1.8028" fill="#808080" opacity=".25" stop-color="#000000" stroke="#000" stroke-linecap="square" stroke-linejoin="round" stroke-width="1.0583" style="-inkscape-stroke:none;font-variation-settings:normal"/>
 <rect transform="rotate(90)" x="10.601" y="-18.999" width="33.574" height="3.7146" rx="3.1534" ry="1.8028" fill="#808080" opacity=".25" stop-color="#000000" stroke="#000" stroke-linecap="square" stroke-linejoin="round" stroke-width="1.0583" style="-inkscape-stroke:none;font-variation-settings:normal"/>
 <rect transform="rotate(90)" x="15.437" y="-23.835" width="33.574" height="3.7146" rx="3.1534" ry="1.8028" fill="#808080" opacity=".25" stop-color="#000000" stroke="#000" stroke-linecap="square" stroke-linejoin="round" stroke-width="1.0583" style="-inkscape-stroke:none;font-variation-settings:normal"/>
 <rect transform="rotate(90)" x="20.419" y="-28.64" width="33.574" height="3.7146" rx="3.1534" ry="1.8028" fill="#808080" opacity=".25" stop-color="#000000" stroke="#000" stroke-linecap="square" stroke-linejoin="round" stroke-width="1.0583" style="-inkscape-stroke:none;font-variation-settings:normal"/>
 <rect transform="rotate(90)" x="25.109" y="-33.507" width="33.574" height="3.7146" rx="3.1534" ry="1.8028" fill="#808080" opacity=".25" stop-color="#000000" stroke="#000" stroke-linecap="square" stroke-linejoin="round" stroke-width="1.0583" style="-inkscape-stroke:none;font-variation-settings:normal"/>
 <rect transform="rotate(90)" x="32.363" y="-4.4914" width="33.574" height="3.7146" rx="3.1534" ry="1.8028" fill="#808080" opacity=".25" stop-color="#000000" stroke="#000" stroke-linecap="square" stroke-linejoin="round" stroke-width="1.0583" style="-inkscape-stroke:none;font-variation-settings:normal"/>
 <path d="m5.6445 5.3413v25.863c0 1.747 0.80374 3.1533 1.8025 3.1533h0.10904c0.99873 0 1.803-1.4063 1.803-3.1533v-25.863" fill="#808080" opacity=".25" stop-color="#000000" stroke="#000" stroke-linecap="square" stroke-linejoin="round" stroke-width="1.0583" style="-inkscape-stroke:none;font-variation-settings:normal"/>
 <path d="m0.80807 5.3413v20.888c0 1.747 0.80426 3.1533 1.803 3.1533h0.10904c0.99873 0 1.803-1.4063 1.803-3.1533v-20.888" fill="#808080" opacity=".25" stop-color="#000000" stroke="#000" stroke-linecap="square" stroke-linejoin="round" stroke-width="1.0583" style="-inkscape-stroke:none;font-variation-settings:normal"/>
 <g transform="translate(-24.926 -156.98)">
  <a transform="matrix(2 0 0 2 -14.482 -147.56)" fill="#f00" xlink:href="https://d-bl.github.io/GroundForge/pattern.html?patchWidth=7&amp;patchHeight=8&amp;footside=----,---b&amp;tile=5,-,5,-,5,-,5&amp;headside=-,c&amp;shiftColsSW=-1&amp;shiftRowsSW=7&amp;shiftColsSE=1&amp;shiftRowsSE=1&amp;footsideStitch=tr&amp;headsideStitch=tl&amp;tileStitch=ct&amp;e1=ct&amp;e3=ctc&amp;e5=clc&amp;e7=crc">
   <text x="24.575508" y="153.90761" fill="#ff0000" fill-opacity=".99854" font-size="2.1167px" stroke-linecap="square" stroke-width=".565" xml:space="preserve"><tspan x="24.575508" y="153.90761" fill="#000000" stroke-width=".565">b</tspan></text>
  </a>
  <a transform="matrix(2 0 0 2 -3.7774 -147.76)" xlink:href="https://d-bl.github.io/GroundForge/stitches.html?patchWidth=7&amp;patchHeight=8&amp;footside=----,---b&amp;tile=5,-,5,-,5,-,5&amp;headside=-,c&amp;shiftColsSW=-1&amp;shiftRowsSW=1&amp;shiftColsSE=7&amp;shiftRowsSE=1&amp;footsideStitch=tr&amp;headsideStitch=tl&amp;tileStitch=ct&amp;e1=ct&amp;e3=ctc&amp;e5=clc&amp;e7=crc">
   <text x="24.361588" y="153.97891" fill="#000000" fill-opacity=".99854" font-size="2.1167px" stroke-linecap="square" stroke-width=".565" xml:space="preserve"><tspan x="24.361588" y="153.97891" fill="#000000" stroke-width=".565">d</tspan></text>
  </a>
 </g>
</svg>
