<?xml version="1.0" encoding="UTF-8"?>
<svg width="34.281mm" height="39.982mm" version="1.1" viewBox="0 0 34.281 39.982" xmlns="http://www.w3.org/2000/svg" xmlns:dc="http://purl.org/dc/elements/1.1/" xmlns:ns="https://creativecommons.org/ns#" xmlns:rdf="http://www.w3.org/1999/02/22-rdf-syntax-ns#" xmlns:xlink="http://www.w3.org/1999/xlink">
 <metadata>
  <rdf:RDF>
   <ns:Work rdf:about="">
    <dc:format>image/svg+xml</dc:format>
    <dc:type rdf:resource="http://purl.org/dc/dcmitype/StillImage"/>
   </ns:Work>
  </rdf:RDF>
 </metadata>
 <path d="m5.1248 39.681-4.8239-4.8239m14.559 4.9116-14.647-14.647m24.207 14.559-24.207-24.207m33.855 24.207-33.855-33.855m33.855 24.207-24.207-24.207m24.207 4.9116-4.8239-4.8239m4.8239 14.472-14.647-14.647m-14.296 0.0878-4.8239 4.8239m14.559-4.9116-14.647 14.647m24.207-14.559-24.207 24.207m33.855-24.207-33.855 33.855m33.855-24.207-24.207 24.207m24.207-14.559-14.647 14.647m14.647-4.9994-4.8239 4.8239" fill="#377eb8" fill-opacity=".53333" stroke="#000" stroke-linejoin="bevel" stroke-width=".60299"/>
 <rect transform="rotate(45)" x="11.975" y="-5.3088" width="11.857" height="11.857" rx="2.0959" ry="2.3219" fill="#808080" opacity=".25" stroke="#000" stroke-linecap="square" stroke-linejoin="round" stroke-width="1.0583"/>
 <rect transform="rotate(45)" x="26.031" y="-12.254" width="11.857" height="11.857" rx="2.0959" ry="2.3219" fill="#808080" opacity=".25" stroke="#000" stroke-linecap="square" stroke-linejoin="round" stroke-width="1.0583"/>
 <rect transform="rotate(45)" x="25.653" y="1.5304" width="11.857" height="11.857" rx="2.0959" ry="2.3219" fill="#808080" opacity=".25" stroke="#000" stroke-linecap="square" stroke-linejoin="round" stroke-width="1.0583"/>
  <a xlink:href="https://d-bl.github.io/GroundForge/pattern.html?patchWidth=7&amp;patchHeight=8&amp;footside=---b,----&amp;tile=-5-,5-5,-5-&amp;headside=c,-&amp;shiftColsSW=-2&amp;shiftRowsSW=2&amp;shiftColsSE=1&amp;shiftRowsSE=3&amp;footsideStitch=tr&amp;headsideStitch=tl&amp;tileStitch=ct&amp;f1=ct&amp;g2=crc&amp;e2=clc&amp;f3=cctc">
   <text fill="#000000" font-size="5.5px" x="7" y="4">b</text>
  </a>
  <a xlink:href="https://d-bl.github.io/GroundForge/pattern.html?patchWidth=7&amp;patchHeight=8&amp;footside=---b,----&amp;tile=-5-,5-5,-5-&amp;headside=c,-&amp;shiftColsSW=-1&amp;shiftRowsSW=3&amp;shiftColsSE=2&amp;shiftRowsSE=2&amp;footsideStitch=tr&amp;headsideStitch=tl&amp;tileStitch=ct&amp;f1=ct&amp;g2=crc&amp;e2=clc&amp;f3=cctc">
   <text fill="#000000" font-size="5.5px" x="23" y="4">d</text>
  </a>
 <rect transform="rotate(45)" x="25.698" y="15.138" width="11.857" height="11.857" rx="2.0959" ry="2.3219" fill="#808080" opacity=".25" stroke="#000" stroke-linecap="square" stroke-linejoin="round" stroke-width="1.0583"/>
 <rect transform="rotate(45)" x="12.02" y="9.2095" width="11.857" height="11.857" rx="2.0959" ry="2.3219" fill="#808080" opacity=".25" stroke="#000" stroke-linecap="square" stroke-linejoin="round" stroke-width="1.0583"/>
 <rect transform="rotate(45)" x="39.377" y="-5.3794" width="11.857" height="11.857" rx="2.0959" ry="2.3219" fill="#808080" opacity=".25" stroke="#000" stroke-linecap="square" stroke-linejoin="round" stroke-width="1.0583"/>
 <rect transform="rotate(45)" x="39.377" y="8.2989" width="11.857" height="11.857" rx="2.0959" ry="2.3219" fill="#808080" opacity=".25" stroke="#000" stroke-linecap="square" stroke-linejoin="round" stroke-width="1.0583"/>
</svg>
