<?xml version="1.0" encoding="UTF-8" standalone="no"?>
<svg
   xmlns:dc="http://purl.org/dc/elements/1.1/"
   xmlns:cc="http://creativecommons.org/ns#"
   xmlns:rdf="http://www.w3.org/1999/02/22-rdf-syntax-ns#"
   xmlns:svg="http://www.w3.org/2000/svg"
   xmlns="http://www.w3.org/2000/svg"
   xmlns:sodipodi="http://sodipodi.sourceforge.net/DTD/sodipodi-0.dtd"
   xmlns:inkscape="http://www.inkscape.org/namespaces/inkscape"
   id="svg2"
   version="1.1"
   width="744"
   height="1052"
   pointer-events="all"
   inkscape:version="0.91 r13725"
   sodipodi:docname="torchon-ctclctc.svg">
  <metadata
     id="metadata12612">
    <rdf:RDF>
      <cc:Work
         rdf:about="">
        <dc:format>image/svg+xml</dc:format>
        <dc:type
           rdf:resource="http://purl.org/dc/dcmitype/StillImage" />
      </cc:Work>
    </rdf:RDF>
  </metadata>
  <defs
     id="defs12610">
    <defs
       id="defs11479">
      <marker
         markerUnits="userSpaceOnUse"
         orient="auto"
         markerHeight="12"
         markerWidth="12"
         viewBox="-7 -7 14 14"
         id="start-thread">
        <path
           inkscape:connector-curvature="0"
           id="path11482"
           style="opacity:0.5;fill:#000000"
           d="M -6,-6 6,-6 6,6 -6,6 Z" />
      </marker>
      <marker
         markerUnits="userSpaceOnUse"
         orient="auto"
         markerHeight="12"
         markerWidth="12"
         viewBox="-7 -7 14 14"
         id="start-pair">
        <path
           inkscape:connector-curvature="0"
           id="path11485"
           style="opacity:0.5;fill:#000000"
           d="M -5,0 0,8 5,0 0,-8 Z" />
      </marker>
      <marker
         markerUnits="userSpaceOnUse"
         orient="auto"
         markerHeight="5"
         markerWidth="5"
         viewBox="-2 -2 4 4"
         id="twist-1">
        <path
           style="fill:#000000;stroke:#000000;stroke-width:1px"
           inkscape:connector-curvature="0"
           id="path11488"
           d="M 0,6 0,-6" />
      </marker>
      <marker
         markerUnits="userSpaceOnUse"
         orient="auto"
         markerHeight="8"
         markerWidth="6"
         viewBox="0 -5 10 10"
         id="start-red">
        <path
           style="stroke:#ff0000;stroke-width:3"
           inkscape:connector-curvature="0"
           id="path11491"
           d="M 0,0 10,0" />
      </marker>
      <marker
         markerUnits="userSpaceOnUse"
         orient="auto"
         markerHeight="8"
         markerWidth="6"
         viewBox="0 -5 10 10"
         id="start-green">
        <path
           style="stroke:#00ff00;stroke-width:3"
           inkscape:connector-curvature="0"
           id="path11494"
           d="M 0,0 10,0" />
      </marker>
      <marker
         markerUnits="userSpaceOnUse"
         orient="auto"
         markerHeight="8"
         markerWidth="6"
         viewBox="0 -5 10 10"
         id="start-purple">
        <path
           style="stroke:#660099;stroke-width:3"
           inkscape:connector-curvature="0"
           id="path11497"
           d="M 0,0 10,0" />
      </marker>
      <marker
         markerUnits="userSpaceOnUse"
         orient="auto"
         markerHeight="8"
         markerWidth="6"
         viewBox="0 -5 10 10"
         id="end-red"
         refX="10">
        <path
           style="stroke:#ff0000;stroke-width:3"
           inkscape:connector-curvature="0"
           id="path11500"
           d="M 0,0 10,0" />
      </marker>
      <marker
         markerUnits="userSpaceOnUse"
         orient="auto"
         markerHeight="8"
         markerWidth="6"
         viewBox="0 -5 10 10"
         id="end-green"
         refX="10">
        <path
           style="stroke:#00ff00;stroke-width:3"
           inkscape:connector-curvature="0"
           id="path11503"
           d="M 0,0 10,0" />
      </marker>
      <marker
         markerUnits="userSpaceOnUse"
         orient="auto"
         markerHeight="8"
         markerWidth="6"
         viewBox="0 -5 10 10"
         id="end-purple"
         refX="10">
        <path
           style="stroke:#660099;stroke-width:3"
           inkscape:connector-curvature="0"
           id="path11506"
           d="M 0,0 10,0" />
      </marker>
    </defs>
  </defs>
  <sodipodi:namedview
     pagecolor="#ffffff"
     bordercolor="#666666"
     borderopacity="1"
     objecttolerance="10"
     gridtolerance="10"
     guidetolerance="10"
     inkscape:pageopacity="0"
     inkscape:pageshadow="2"
     inkscape:window-width="1680"
     inkscape:window-height="998"
     id="namedview12608"
     showgrid="false"
     inkscape:zoom="9.3146149"
     inkscape:cx="163.30556"
     inkscape:cy="934.54625"
     inkscape:window-x="-8"
     inkscape:window-y="-8"
     inkscape:window-maximized="1"
     inkscape:current-layer="svg2" />
  <path
     inkscape:connector-curvature="0"
     id="path11644"
     style="opacity:1;fill:none;stroke:#000000;stroke-width:1px"
     d="m 163.37086,139.63658 -9.90676,6.13792"
     class="link thread7"
     inkscape:export-xdpi="72"
     inkscape:export-ydpi="72" />
  <path
     inkscape:connector-curvature="0"
     id="path11648"
     style="opacity:1;fill:none;stroke:#000000;stroke-width:1px"
     d="m 150.20375,127.92228 -9.53604,8.49572"
     class="link thread8"
     inkscape:export-xdpi="72"
     inkscape:export-ydpi="72" />
  <path
     inkscape:connector-curvature="0"
     id="path11678"
     style="opacity:1;fill:none;stroke:#000000;stroke-width:1px"
     d="m 166.47307,142.80647 9.30663,9.50963"
     class="link thread5"
     inkscape:export-xdpi="72"
     inkscape:export-ydpi="72" />
  <path
     inkscape:connector-curvature="0"
     id="path11686"
     style="opacity:1;fill:none;stroke:#000000;stroke-width:1px"
     d="m 175.02948,130.70437 9.10089,6.50895"
     class="link thread6"
     inkscape:export-xdpi="72"
     inkscape:export-ydpi="72" />
  <path
     inkscape:connector-curvature="0"
     id="path11760"
     style="opacity:1;fill:none;stroke:#000000;stroke-width:1px"
     d="m 172.11482,132.93743 -8.74396,6.69915"
     class="link thread7"
     inkscape:export-xdpi="72"
     inkscape:export-ydpi="72" />
  <path
     inkscape:connector-curvature="0"
     id="path11762"
     style="opacity:1;fill:none;stroke:#000000;stroke-width:1px"
     d="m 153.38242,125.09037 7.49133,10.90965"
     class="link thread5"
     inkscape:export-xdpi="72"
     inkscape:export-ydpi="72" />
  <path
     inkscape:connector-curvature="0"
     id="path11764"
     style="opacity:1;fill:none;stroke:#000000;stroke-width:1px"
     d="m 165.59312,122.11524 -9.15802,2.23135"
     class="link thread8"
     inkscape:export-xdpi="72"
     inkscape:export-ydpi="72" />
  <path
     inkscape:connector-curvature="0"
     id="path11766"
     style="opacity:1;fill:none;stroke:#000000;stroke-width:1px"
     d="m 153.51459,110.1127 -0.13217,14.97767"
     class="link thread5"
     inkscape:export-xdpi="72"
     inkscape:export-ydpi="72" />
  <path
     inkscape:connector-curvature="0"
     id="path11768"
     style="opacity:1;fill:none;stroke:#000000;stroke-width:1px"
     d="m 175.72173,115.69791 -0.51919,11.25484"
     class="link thread7"
     inkscape:export-xdpi="72"
     inkscape:export-ydpi="72" />
  <path
     inkscape:connector-curvature="0"
     id="path11770"
     style="opacity:1;fill:none;stroke:#000000;stroke-width:1px"
     d="m 167.95221,124.26252 7.07727,6.44185"
     class="link thread6"
     inkscape:export-xdpi="72"
     inkscape:export-ydpi="72" />
  <path
     inkscape:connector-curvature="0"
     id="path11772"
     style="opacity:1;fill:none;stroke:#000000;stroke-width:1px"
     d="m 173.18958,117.30224 -7.59646,4.813"
     class="link thread8"
     inkscape:export-xdpi="72"
     inkscape:export-ydpi="72" />
  <path
     inkscape:connector-curvature="0"
     id="path11774"
     style="opacity:1;fill:none;stroke:#000000;stroke-width:1px"
     d="m 165.56081,109.33443 0.0242,9.58561"
     class="link thread6"
     inkscape:export-xdpi="72"
     inkscape:export-ydpi="72" />
  <path
     inkscape:connector-curvature="0"
     id="path11776"
     style="opacity:1;fill:none;stroke:#000000;stroke-width:1px"
     d="m 175.02487,100.65592 0.52264,11.28149"
     class="link thread8"
     inkscape:export-xdpi="72"
     inkscape:export-ydpi="72" />
  <path
     inkscape:connector-curvature="0"
     id="path11778"
     style="opacity:1;fill:none;stroke:#000000;stroke-width:1px"
     d="m 168.10104,110.92529 7.62069,4.77262"
     class="link thread7"
     inkscape:export-xdpi="72"
     inkscape:export-ydpi="72" />
  <path
     inkscape:connector-curvature="0"
     id="path11780"
     style="opacity:1;fill:none;stroke:#000000;stroke-width:1px"
     d="m 172.65885,102.82555 -7.09804,6.50888"
     class="link thread6"
     inkscape:export-xdpi="72"
     inkscape:export-ydpi="72" />
  <path
     inkscape:connector-curvature="0"
     id="path11782"
     style="opacity:1;fill:none;stroke:#000000;stroke-width:1px"
     d="m 153.55865,105.12014 9.00161,3.16072"
     class="link thread7"
     inkscape:export-xdpi="72"
     inkscape:export-ydpi="72" />
  <path
     inkscape:connector-curvature="0"
     id="path11784"
     style="opacity:1;fill:none;stroke:#000000;stroke-width:1px"
     d="m 163.74791,90.949126 -7.64195,10.628264"
     class="link thread5"
     inkscape:export-xdpi="72"
     inkscape:export-ydpi="72" />
  <path
     inkscape:connector-curvature="0"
     id="path11786"
     style="opacity:1;fill:none;stroke:#000000;stroke-width:1px"
     d="m 144.74189,95.851075 8.81676,9.269065"
     class="link thread7"
     inkscape:export-xdpi="72"
     inkscape:export-ydpi="72" />
  <path
     inkscape:connector-curvature="0"
     id="path11788"
     style="opacity:1;fill:none;stroke:#000000;stroke-width:1px"
     d="m 187.32316,92.268675 -9.22372,6.290433"
     class="link thread6"
     inkscape:export-xdpi="72"
     inkscape:export-ydpi="72" />
  <path
     inkscape:connector-curvature="0"
     id="path11790"
     style="opacity:1;fill:none;stroke:#000000;stroke-width:1px"
     d="m 166.56715,93.375828 8.45772,7.280092"
     class="link thread8"
     inkscape:export-xdpi="72"
     inkscape:export-ydpi="72" />
  <path
     inkscape:connector-curvature="0"
     id="path11792"
     style="opacity:1;fill:none;stroke:#000000;stroke-width:1px"
     d="m 173.22232,81.709658 -9.47441,9.239468"
     class="link thread5"
     inkscape:export-xdpi="72"
     inkscape:export-ydpi="72" />
  <path
     inkscape:connector-curvature="0"
     id="path11794"
     style="opacity:1;fill:none;stroke:#000000;stroke-width:1px"
     d="m 150.9917,81.71642 9.56715,6.92453"
     class="link thread8"
     inkscape:export-xdpi="72"
     inkscape:export-ydpi="72" />
  <path
     inkscape:connector-curvature="0"
     id="path12224"
     style="opacity:0;fill:#000000;stroke:none"
     d="m 155.69905,77.996096 a 6,6 0 0 1 -0.98703,8.427679 6,6 0 0 1 -8.42767,-0.98703 6,6 0 0 1 0.98703,-8.427679 6,6 0 0 1 8.42767,0.98703 z"
     class="node"
     inkscape:export-xdpi="72"
     inkscape:export-ydpi="72">
    <title
       id="title12226">twist - B16</title>
  </path>
  <path
     inkscape:connector-curvature="0"
     id="path12232"
     style="opacity:0;fill:#000000;stroke:none"
     d="m 146.51033,89.041062 a 6,6 0 0 1 -0.98703,8.427679 6,6 0 0 1 -8.42767,-0.98703 6,6 0 0 1 0.98702,-8.427679 6,6 0 0 1 8.42768,0.98703 z"
     class="node"
     inkscape:export-xdpi="72"
     inkscape:export-ydpi="72">
    <title
       id="title12234">cross - B18</title>
  </path>
  <path
     inkscape:connector-curvature="0"
     id="path12264"
     style="opacity:0;fill:#000000;stroke:none"
     d="m 181.0878,74.90951 a 6,6 0 0 1 -0.98702,8.427679 6,6 0 0 1 -8.42768,-0.98703 6,6 0 0 1 0.98703,-8.427679 6,6 0 0 1 8.42767,0.98703 z"
     class="node"
     inkscape:export-xdpi="72"
     inkscape:export-ydpi="72">
    <title
       id="title12266">twist - B17</title>
  </path>
  <path
     inkscape:connector-curvature="0"
     id="path12268"
     style="opacity:0;fill:#000000;stroke:none"
     d="m 192.0305,88.54835 a 6,6 0 0 1 -0.98702,8.427679 6,6 0 0 1 -8.42767,-0.98703 6,6 0 0 1 0.98702,-8.427679 6,6 0 0 1 8.42767,0.98703 z"
     class="node"
     inkscape:export-xdpi="72"
     inkscape:export-ydpi="72">
    <title
       id="title12270">cross - B18</title>
  </path>
  <path
     inkscape:connector-curvature="0"
     id="path12272"
     style="opacity:0;fill:#000000;stroke:none"
     d="m 168.45526,87.228801 a 6,6 0 0 1 -0.98703,8.42768 6,6 0 0 1 -8.42767,-0.987031 6,6 0 0 1 0.98703,-8.427679 6,6 0 0 1 8.42767,0.98703 z"
     class="node"
     inkscape:export-xdpi="72"
     inkscape:export-ydpi="72">
    <title
       id="title12274">cross - B10</title>
  </path>
  <path
     inkscape:connector-curvature="0"
     id="path12276"
     style="opacity:0;fill:#000000;stroke:none"
     d="m 179.73222,96.935595 a 6,6 0 0 1 -0.98703,8.427675 6,6 0 0 1 -8.42767,-0.98703 6,6 0 0 1 0.98702,-8.427675 6,6 0 0 1 8.42768,0.98703 z"
     class="node"
     inkscape:export-xdpi="72"
     inkscape:export-ydpi="72">
    <title
       id="title12278">twist - B11</title>
  </path>
  <path
     inkscape:connector-curvature="0"
     id="path12280"
     style="opacity:0;fill:#000000;stroke:none"
     d="m 158.266,101.39981 a 6,6 0 0 1 -0.98702,8.42768 6,6 0 0 1 -8.42768,-0.98703 6,6 0 0 1 0.98703,-8.42767 6,6 0 0 1 8.42767,0.98702 z"
     class="node"
     inkscape:export-xdpi="72"
     inkscape:export-ydpi="72">
    <title
       id="title12282">twist - B12</title>
  </path>
  <path
     inkscape:connector-curvature="0"
     id="path12284"
     style="opacity:0;fill:#000000;stroke:none"
     d="m 170.26816,105.61411 a 6,6 0 0 1 -0.98703,8.42767 6,6 0 0 1 -8.42767,-0.98703 6,6 0 0 1 0.98703,-8.42767 6,6 0 0 1 8.42767,0.98703 z"
     class="node"
     inkscape:export-xdpi="72"
     inkscape:export-ydpi="72">
    <title
       id="title12286">cross - B13</title>
  </path>
  <path
     inkscape:connector-curvature="0"
     id="path12288"
     style="opacity:0;fill:#000000;stroke:none"
     d="m 180.42908,111.97759 a 6,6 0 0 1 -0.98703,8.42767 6,6 0 0 1 -8.42767,-0.98703 6,6 0 0 1 0.98702,-8.42767 6,6 0 0 1 8.42768,0.98703 z"
     class="node"
     inkscape:export-xdpi="72"
     inkscape:export-ydpi="72">
    <title
       id="title12290">twist - B14</title>
  </path>
  <path
     inkscape:connector-curvature="0"
     id="path12292"
     style="opacity:0;fill:#000000;stroke:none"
     d="m 170.30047,118.39492 a 6,6 0 0 1 -0.98703,8.42767 6,6 0 0 1 -8.42767,-0.98703 6,6 0 0 1 0.98703,-8.42767 6,6 0 0 1 8.42767,0.98703 z"
     class="node"
     inkscape:export-xdpi="72"
     inkscape:export-ydpi="72">
    <title
       id="title12294">cross - B15</title>
  </path>
  <path
     inkscape:connector-curvature="0"
     id="path12296"
     style="opacity:0;fill:#000000;stroke:none"
     d="m 179.73683,126.98405 a 6,6 0 0 1 -0.98703,8.42767 6,6 0 0 1 -8.42767,-0.98703 6,6 0 0 1 0.98702,-8.42767 6,6 0 0 1 8.42768,0.98703 z"
     class="node"
     inkscape:export-xdpi="72"
     inkscape:export-ydpi="72">
    <title
       id="title12298">twist - B16</title>
  </path>
  <path
     inkscape:connector-curvature="0"
     id="path12300"
     style="opacity:0;fill:#000000;stroke:none"
     d="m 158.08977,121.37005 a 6,6 0 0 1 -0.98703,8.42767 6,6 0 0 1 -8.42767,-0.98702 6,6 0 0 1 0.98703,-8.42767 6,6 0 0 1 8.42767,0.98702 z"
     class="node"
     inkscape:export-xdpi="72"
     inkscape:export-ydpi="72">
    <title
       id="title12302">twist - B17</title>
  </path>
  <path
     inkscape:connector-curvature="0"
     id="path12304"
     style="opacity:0;fill:#000000;stroke:none"
     d="m 168.07821,135.91626 a 6,6 0 0 1 -0.98703,8.42767 6,6 0 0 1 -8.42767,-0.98703 6,6 0 0 1 0.98702,-8.42767 6,6 0 0 1 8.42768,0.98703 z"
     class="node"
     inkscape:export-xdpi="72"
     inkscape:export-ydpi="72">
    <title
       id="title12306">cross - B18</title>
  </path>
  <path
     inkscape:connector-curvature="0"
     id="path12380"
     style="opacity:0;fill:#000000;stroke:none"
     d="m 191.87136,135.66264 a 6,6 0 0 1 -0.98703,8.42767 6,6 0 0 1 -8.42767,-0.98702 6,6 0 0 1 0.98703,-8.42767 6,6 0 0 1 8.42767,0.98702 z"
     class="node"
     inkscape:export-xdpi="72"
     inkscape:export-ydpi="72">
    <title
       id="title12382">cross - B10</title>
  </path>
  <path
     inkscape:connector-curvature="0"
     id="path12388"
     style="opacity:0;fill:#000000;stroke:none"
     d="m 180.48705,148.59578 a 6,6 0 0 1 -0.98703,8.42767 6,6 0 0 1 -8.42767,-0.98703 6,6 0 0 1 0.98703,-8.42767 6,6 0 0 1 8.42767,0.98703 z"
     class="node"
     inkscape:export-xdpi="72"
     inkscape:export-ydpi="72">
    <title
       id="title12390">twist - B12</title>
  </path>
  <path
     inkscape:connector-curvature="0"
     id="path12416"
     style="opacity:0;fill:#000000;stroke:none"
     d="m 145.37506,132.69768 a 6,6 0 0 1 -0.98703,8.42767 6,6 0 0 1 -8.42767,-0.98702 6,6 0 0 1 0.98702,-8.42767 6,6 0 0 1 8.42768,0.98702 z"
     class="node"
     inkscape:export-xdpi="72"
     inkscape:export-ydpi="72">
    <title
       id="title12418">cross - B10</title>
  </path>
  <path
     inkscape:connector-curvature="0"
     id="path12420"
     style="opacity:0;fill:#000000;stroke:none"
     d="m 154.86919,144.10014 a 6,6 0 0 1 -0.98703,8.42767 6,6 0 0 1 -8.42767,-0.98702 6,6 0 0 1 0.98702,-8.42768 6,6 0 0 1 8.42768,0.98703 z"
     class="node"
     inkscape:export-xdpi="72"
     inkscape:export-ydpi="72">
    <title
       id="title12422">twist - B11</title>
  </path>
  <path
     inkscape:connector-curvature="0"
     id="path12428"
     style="opacity:0;fill:#000000;stroke:none"
     d="m 144.76252,152.81512 a 6,6 0 0 1 -0.98703,8.42767 6,6 0 0 1 -8.42767,-0.98703 6,6 0 0 1 0.98703,-8.42767 6,6 0 0 1 8.42767,0.98703 z"
     class="node"
     inkscape:export-xdpi="72"
     inkscape:export-ydpi="72">
    <title
       id="title12430">cross - B13</title>
  </path>
</svg>
