<?xml version="1.0" encoding="UTF-8" standalone="no"?>
<svg
   xmlns:dc="http://purl.org/dc/elements/1.1/"
   xmlns:cc="http://creativecommons.org/ns#"
   xmlns:rdf="http://www.w3.org/1999/02/22-rdf-syntax-ns#"
   xmlns:svg="http://www.w3.org/2000/svg"
   xmlns="http://www.w3.org/2000/svg"
   xmlns:sodipodi="http://sodipodi.sourceforge.net/DTD/sodipodi-0.dtd"
   xmlns:inkscape="http://www.inkscape.org/namespaces/inkscape"
   id="svg2"
   version="1.1"
   width="744"
   height="1052"
   pointer-events="all"
   inkscape:version="0.91 r13725"
   sodipodi:docname="torchon-ctctc.svg"
   inkscape:export-filename="C:\Users\Falkink\Dropbox\joke-mac\torchon-ctctc.png"
   inkscape:export-xdpi="72"
   inkscape:export-ydpi="72">
  <metadata
     id="metadata6708">
    <rdf:RDF>
      <cc:Work
         rdf:about="">
        <dc:format>image/svg+xml</dc:format>
        <dc:type
           rdf:resource="http://purl.org/dc/dcmitype/StillImage" />
      </cc:Work>
    </rdf:RDF>
  </metadata>
  <defs
     id="defs6706">
    <defs
       id="defs5783">
      <marker
         markerUnits="userSpaceOnUse"
         orient="auto"
         markerHeight="12"
         markerWidth="12"
         viewBox="-7 -7 14 14"
         id="start-thread">
        <path
           id="path5786"
           style="opacity: 0.5;"
           fill="#000"
           d="M -6,-6 6,-6 6,6 -6,6 Z" />
      </marker>
      <marker
         markerUnits="userSpaceOnUse"
         orient="auto"
         markerHeight="12"
         markerWidth="12"
         viewBox="-7 -7 14 14"
         id="start-pair">
        <path
           id="path5789"
           style="opacity: 0.5;"
           fill="#000"
           d="M -5,0 0,8 5,0 0,-8 Z" />
      </marker>
      <marker
         markerUnits="userSpaceOnUse"
         orient="auto"
         markerHeight="5"
         markerWidth="5"
         viewBox="-2 -2 4 4"
         id="twist-1">
        <path
           id="path5792"
           stroke-width="1px"
           stroke="#000"
           fill="#000"
           d="M 0,6 0,-6" />
      </marker>
      <marker
         markerUnits="userSpaceOnUse"
         orient="auto"
         markerHeight="8"
         markerWidth="6"
         viewBox="0 -5 10 10"
         id="start-red">
        <path
           id="path5795"
           stroke="#f00"
           stroke-width="3"
           d="M0,0L10,0" />
      </marker>
      <marker
         markerUnits="userSpaceOnUse"
         orient="auto"
         markerHeight="8"
         markerWidth="6"
         viewBox="0 -5 10 10"
         id="start-green">
        <path
           id="path5798"
           stroke="#0f0"
           stroke-width="3"
           d="M0,0L10,0" />
      </marker>
      <marker
         markerUnits="userSpaceOnUse"
         orient="auto"
         markerHeight="8"
         markerWidth="6"
         viewBox="0 -5 10 10"
         id="start-purple">
        <path
           id="path5801"
           stroke="#609"
           stroke-width="3"
           d="M0,0L10,0" />
      </marker>
      <marker
         markerUnits="userSpaceOnUse"
         orient="auto"
         markerHeight="8"
         markerWidth="6"
         viewBox="0 -5 10 10"
         id="end-red"
         refX="10">
        <path
           id="path5804"
           stroke="#f00"
           stroke-width="3"
           d="M0,0L10,0" />
      </marker>
      <marker
         markerUnits="userSpaceOnUse"
         orient="auto"
         markerHeight="8"
         markerWidth="6"
         viewBox="0 -5 10 10"
         id="end-green"
         refX="10">
        <path
           id="path5807"
           stroke="#0f0"
           stroke-width="3"
           d="M0,0L10,0" />
      </marker>
      <marker
         markerUnits="userSpaceOnUse"
         orient="auto"
         markerHeight="8"
         markerWidth="6"
         viewBox="0 -5 10 10"
         id="end-purple"
         refX="10">
        <path
           id="path5810"
           stroke="#609"
           stroke-width="3"
           d="M0,0L10,0" />
      </marker>
    </defs>
  </defs>
  <sodipodi:namedview
     pagecolor="#ffffff"
     bordercolor="#666666"
     borderopacity="1"
     objecttolerance="10"
     gridtolerance="10"
     guidetolerance="10"
     inkscape:pageopacity="0"
     inkscape:pageshadow="2"
     inkscape:window-width="1680"
     inkscape:window-height="998"
     id="namedview6704"
     showgrid="false"
     inkscape:zoom="12.007716"
     inkscape:cx="200.07498"
     inkscape:cy="951.78904"
     inkscape:window-x="-8"
     inkscape:window-y="-8"
     inkscape:window-maximized="1"
     inkscape:current-layer="svg2" />
  <path
     inkscape:connector-curvature="0"
     id="path5916"
     style="opacity:1;fill:none;stroke:#000000;stroke-width:1px"
     d="m 200.09704,118.77829 9.75889,6.59951"
     class="link thread10" />
  <path
     inkscape:connector-curvature="0"
     id="path5920"
     style="opacity:1;fill:none;stroke:#000000;stroke-width:1px"
     d="m 213.96234,110.21706 9.73346,6.44486"
     class="link thread8" />
  <path
     inkscape:connector-curvature="0"
     id="path5942"
     style="opacity:1;fill:none;stroke:#000000;stroke-width:1px"
     d="m 196.85161,120.96267 -9.73632,6.55314"
     class="link thread3" />
  <path
     inkscape:connector-curvature="0"
     id="path5950"
     style="opacity:1;fill:none;stroke:#000000;stroke-width:1px"
     d="m 189.51391,108.02924 -9.69845,6.39289"
     class="link thread5" />
  <path
     inkscape:connector-curvature="0"
     id="path6008"
     style="opacity:1;fill:none;stroke:#000000;stroke-width:1px"
     d="m 192.15969,110.71651 7.93735,8.06178"
     class="link thread10" />
  <path
     inkscape:connector-curvature="0"
     id="path6010"
     style="opacity:1;fill:none;stroke:#000000;stroke-width:1px"
     d="m 210.71785,108.06878 -7.96561,8.03213"
     class="link thread3" />
  <path
     inkscape:connector-curvature="0"
     id="path6012"
     style="opacity:1;fill:none;stroke:#000000;stroke-width:1px"
     d="m 200.14254,100.34337 7.93148,5.79407"
     class="link thread8" />
  <path
     inkscape:connector-curvature="0"
     id="path6014"
     style="opacity:1;fill:none;stroke:#000000;stroke-width:1px"
     d="m 210.72912,96.38235 -0.0113,11.68643"
     class="link thread3" />
  <path
     inkscape:connector-curvature="0"
     id="path6016"
     style="opacity:1;fill:none;stroke:#000000;stroke-width:1px"
     d="m 189.53674,92.468618 -0.0171,11.670462"
     class="link thread10" />
  <path
     inkscape:connector-curvature="0"
     id="path6018"
     style="opacity:1;fill:none;stroke:#000000;stroke-width:1px"
     d="m 197.48538,102.26484 -7.97147,5.7644"
     class="link thread5" />
  <path
     inkscape:connector-curvature="0"
     id="path6020"
     style="opacity:1;fill:none;stroke:#000000;stroke-width:1px"
     d="m 192.18819,94.437307 7.95435,5.906063"
     class="link thread8" />
  <path
     inkscape:connector-curvature="0"
     id="path6022"
     style="opacity:1;fill:none;stroke:#000000;stroke-width:1px"
     d="m 210.73287,92.486872 -7.94275,5.892375"
     class="link thread5" />
  <path
     inkscape:connector-curvature="0"
     id="path6024"
     style="opacity:1;fill:none;stroke:#000000;stroke-width:1px"
     d="m 200.12281,81.740935 7.95755,8.059452"
     class="link thread3" />
  <path
     inkscape:connector-curvature="0"
     id="path6026"
     style="opacity:1;fill:none;stroke:#000000;stroke-width:1px"
     d="m 220.28686,85.935853 -9.55399,6.551019"
     class="link thread5" />
  <path
     inkscape:connector-curvature="0"
     id="path6028"
     style="opacity:1;fill:none;stroke:#000000;stroke-width:1px"
     d="m 176.79518,83.68426 9.55617,6.588268"
     class="link thread8" />
  <path
     inkscape:connector-curvature="0"
     id="path6030"
     style="opacity:1;fill:none;stroke:#000000;stroke-width:1px"
     d="m 197.47629,84.422855 -7.93955,8.045763"
     class="link thread10" />
  <path
     inkscape:connector-curvature="0"
     id="path6032"
     style="opacity:1;fill:none;stroke:#000000;stroke-width:1px"
     d="m 190.50794,75.031147 9.61487,6.709788"
     class="link thread3" />
  <path
     inkscape:connector-curvature="0"
     id="path6034"
     style="opacity:1;fill:none;stroke:#000000;stroke-width:1px"
     d="m 212.94522,72.862026 -9.61681,6.65918"
     class="link thread10" />
  <path
     inkscape:connector-curvature="0"
     id="path6392"
     style="opacity:0;fill:#000000;stroke:none"
     d="m 218.91284,73.4846 a 6,6 0 0 1 -6.59019,5.345039 6,6 0 0 1 -5.34504,-6.590187 6,6 0 0 1 6.59019,-5.345039 6,6 0 0 1 5.34504,6.590187 z"
     class="node">
    <title
       id="title6394">twist - B14</title>
  </path>
  <path
     inkscape:connector-curvature="0"
     id="path6400"
     style="opacity:0;fill:#000000;stroke:none"
     d="m 229.43914,84.374755 a 6,6 0 0 1 -6.59019,5.345038 6,6 0 0 1 -5.34504,-6.590187 6,6 0 0 1 6.59019,-5.345038 6,6 0 0 1 5.34504,6.590187 z"
     class="node">
    <title
       id="title6402">cross - B16</title>
  </path>
  <path
     inkscape:connector-curvature="0"
     id="path6424"
     style="opacity:0;fill:#000000;stroke:none"
     d="m 193.27059,73.417125 a 6,6 0 0 1 -6.59018,5.345039 6,6 0 0 1 -5.34504,-6.590187 6,6 0 0 1 6.59018,-5.345039 6,6 0 0 1 5.34504,6.590187 z"
     class="node">
    <title
       id="title6426">twist - B15</title>
  </path>
  <path
     inkscape:connector-curvature="0"
     id="path6428"
     style="opacity:0;fill:#000000;stroke:none"
     d="m 182.76279,84.306834 a 6,6 0 0 1 -6.59019,5.345039 6,6 0 0 1 -5.34503,-6.590187 6,6 0 0 1 6.59018,-5.345039 6,6 0 0 1 5.34504,6.590187 z"
     class="node">
    <title
       id="title6430">cross - B16</title>
  </path>
  <path
     inkscape:connector-curvature="0"
     id="path6432"
     style="opacity:0;fill:#000000;stroke:none"
     d="m 206.09043,82.363509 a 6,6 0 0 1 -6.59019,5.345038 6,6 0 0 1 -5.34504,-6.590187 6,6 0 0 1 6.59019,-5.345038 6,6 0 0 1 5.34504,6.590187 z"
     class="node">
    <title
       id="title6434">cross - B10</title>
  </path>
  <path
     inkscape:connector-curvature="0"
     id="path6436"
     style="opacity:0;fill:#000000;stroke:none"
     d="m 195.50435,93.091193 a 6,6 0 0 1 -6.59018,5.345038 6,6 0 0 1 -5.34504,-6.590187 6,6 0 0 1 6.59018,-5.345038 6,6 0 0 1 5.34504,6.590187 z"
     class="node">
    <title
       id="title6438">twist - B11</title>
  </path>
  <path
     inkscape:connector-curvature="0"
     id="path6440"
     style="opacity:0;fill:#000000;stroke:none"
     d="m 216.70048,93.109446 a 6,6 0 0 1 -6.59018,5.345038 6,6 0 0 1 -5.34504,-6.590187 6,6 0 0 1 6.59018,-5.345038 6,6 0 0 1 5.34504,6.590187 z"
     class="node">
    <title
       id="title6442">twist - B12</title>
  </path>
  <path
     inkscape:connector-curvature="0"
     id="path6444"
     style="opacity:0;fill:#000000;stroke:none"
     d="m 206.11015,100.96595 a 6,6 0 0 1 -6.59019,5.34503 6,6 0 0 1 -5.34504,-6.590182 6,6 0 0 1 6.59019,-5.345039 6,6 0 0 1 5.34504,6.590191 z"
     class="node">
    <title
       id="title6446">cross - B13</title>
  </path>
  <path
     inkscape:connector-curvature="0"
     id="path6448"
     style="opacity:0;fill:#000000;stroke:none"
     d="m 195.48152,108.65181 a 6,6 0 0 1 -6.59018,5.34504 6,6 0 0 1 -5.34504,-6.59019 6,6 0 0 1 6.59018,-5.34503 6,6 0 0 1 5.34504,6.59018 z"
     class="node">
    <title
       id="title6450">twist - B14</title>
  </path>
  <path
     inkscape:connector-curvature="0"
     id="path6452"
     style="opacity:0;fill:#000000;stroke:none"
     d="m 216.68547,108.69136 a 6,6 0 0 1 -6.59019,5.34504 6,6 0 0 1 -5.34504,-6.59019 6,6 0 0 1 6.59019,-5.34504 6,6 0 0 1 5.34504,6.59019 z"
     class="node">
    <title
       id="title6454">twist - B15</title>
  </path>
  <path
     inkscape:connector-curvature="0"
     id="path6456"
     style="opacity:0;fill:#000000;stroke:none"
     d="m 206.06465,119.40086 a 6,6 0 0 1 -6.59018,5.34504 6,6 0 0 1 -5.34504,-6.59018 6,6 0 0 1 6.59018,-5.34504 6,6 0 0 1 5.34504,6.59018 z"
     class="node">
    <title
       id="title6458">cross - B16</title>
  </path>
  <path
     inkscape:connector-curvature="0"
     id="path6516"
     style="opacity:0;fill:#000000;stroke:none"
     d="m 182.55026,117.17567 a 6,6 0 0 1 -6.59019,5.34504 6,6 0 0 1 -5.34504,-6.59018 6,6 0 0 1 6.59019,-5.34504 6,6 0 0 1 5.34504,6.59018 z"
     class="node">
    <title
       id="title6518">cross - B10</title>
  </path>
  <path
     inkscape:connector-curvature="0"
     id="path6524"
     style="opacity:0;fill:#000000;stroke:none"
     d="m 193.0829,128.13838 a 6,6 0 0 1 -6.59018,5.34504 6,6 0 0 1 -5.34504,-6.59019 6,6 0 0 1 6.59018,-5.34503 6,6 0 0 1 5.34504,6.59018 z"
     class="node">
    <title
       id="title6526">twist - B12</title>
  </path>
  <path
     inkscape:connector-curvature="0"
     id="path6544"
     style="opacity:0;fill:#000000;stroke:none"
     d="m 229.66342,117.28449 a 6,6 0 0 1 -6.59019,5.34504 6,6 0 0 1 -5.34504,-6.59018 6,6 0 0 1 6.59019,-5.34504 6,6 0 0 1 5.34504,6.59018 z"
     class="node">
    <title
       id="title6546">cross - B10</title>
  </path>
  <path
     inkscape:connector-curvature="0"
     id="path6548"
     style="opacity:0;fill:#000000;stroke:none"
     d="m 219.07651,128.20021 a 6,6 0 0 1 -6.59019,5.34504 6,6 0 0 1 -5.34504,-6.59018 6,6 0 0 1 6.59019,-5.34504 6,6 0 0 1 5.34504,6.59018 z"
     class="node">
    <title
       id="title6550">twist - B11</title>
  </path>
</svg>
