<?xml version="1.0" encoding="UTF-8" standalone="no"?>
<svg
   xmlns:dc="http://purl.org/dc/elements/1.1/"
   xmlns:cc="http://creativecommons.org/ns#"
   xmlns:rdf="http://www.w3.org/1999/02/22-rdf-syntax-ns#"
   xmlns:svg="http://www.w3.org/2000/svg"
   xmlns="http://www.w3.org/2000/svg"
   xmlns:sodipodi="http://sodipodi.sourceforge.net/DTD/sodipodi-0.dtd"
   xmlns:inkscape="http://www.inkscape.org/namespaces/inkscape"
   id="svg2"
   version="1.1"
   width="744"
   height="1052"
   pointer-events="all"
   inkscape:version="0.91 r13725"
   sodipodi:docname="torchon-ctct.svg"
   inkscape:export-filename="C:\Users\Falkink\Dropbox\joke-mac\torchon-ctct.png"
   inkscape:export-xdpi="72"
   inkscape:export-ydpi="72">
  <metadata
     id="metadata826">
    <rdf:RDF>
      <cc:Work
         rdf:about="">
        <dc:format>image/svg+xml</dc:format>
        <dc:type
           rdf:resource="http://purl.org/dc/dcmitype/StillImage" />
      </cc:Work>
    </rdf:RDF>
  </metadata>
  <defs
     id="defs824">
    <defs
       id="defs5">
      <marker
         markerUnits="userSpaceOnUse"
         orient="auto"
         markerHeight="12"
         markerWidth="12"
         viewBox="-7 -7 14 14"
         id="start-thread">
        <path
           inkscape:connector-curvature="0"
           id="path8"
           style="opacity:0.5;fill:#000000"
           d="M -6,-6 6,-6 6,6 -6,6 Z" />
      </marker>
      <marker
         markerUnits="userSpaceOnUse"
         orient="auto"
         markerHeight="12"
         markerWidth="12"
         viewBox="-7 -7 14 14"
         id="start-pair">
        <path
           inkscape:connector-curvature="0"
           id="path11"
           style="opacity:0.5;fill:#000000"
           d="M -5,0 0,8 5,0 0,-8 Z" />
      </marker>
      <marker
         markerUnits="userSpaceOnUse"
         orient="auto"
         markerHeight="5"
         markerWidth="5"
         viewBox="-2 -2 4 4"
         id="twist-1">
        <path
           style="fill:#000000;stroke:#000000;stroke-width:1px"
           inkscape:connector-curvature="0"
           id="path14"
           d="M 0,6 0,-6" />
      </marker>
      <marker
         markerUnits="userSpaceOnUse"
         orient="auto"
         markerHeight="8"
         markerWidth="6"
         viewBox="0 -5 10 10"
         id="start-red">
        <path
           style="stroke:#ff0000;stroke-width:3"
           inkscape:connector-curvature="0"
           id="path17"
           d="M 0,0 10,0" />
      </marker>
      <marker
         markerUnits="userSpaceOnUse"
         orient="auto"
         markerHeight="8"
         markerWidth="6"
         viewBox="0 -5 10 10"
         id="start-green">
        <path
           style="stroke:#00ff00;stroke-width:3"
           inkscape:connector-curvature="0"
           id="path20"
           d="M 0,0 10,0" />
      </marker>
      <marker
         markerUnits="userSpaceOnUse"
         orient="auto"
         markerHeight="8"
         markerWidth="6"
         viewBox="0 -5 10 10"
         id="start-purple">
        <path
           style="stroke:#660099;stroke-width:3"
           inkscape:connector-curvature="0"
           id="path23"
           d="M 0,0 10,0" />
      </marker>
      <marker
         markerUnits="userSpaceOnUse"
         orient="auto"
         markerHeight="8"
         markerWidth="6"
         viewBox="0 -5 10 10"
         id="end-red"
         refX="10">
        <path
           style="stroke:#ff0000;stroke-width:3"
           inkscape:connector-curvature="0"
           id="path26"
           d="M 0,0 10,0" />
      </marker>
      <marker
         markerUnits="userSpaceOnUse"
         orient="auto"
         markerHeight="8"
         markerWidth="6"
         viewBox="0 -5 10 10"
         id="end-green"
         refX="10">
        <path
           style="stroke:#00ff00;stroke-width:3"
           inkscape:connector-curvature="0"
           id="path29"
           d="M 0,0 10,0" />
      </marker>
      <marker
         markerUnits="userSpaceOnUse"
         orient="auto"
         markerHeight="8"
         markerWidth="6"
         viewBox="0 -5 10 10"
         id="end-purple"
         refX="10">
        <path
           style="stroke:#660099;stroke-width:3"
           inkscape:connector-curvature="0"
           id="path32"
           d="M 0,0 10,0" />
      </marker>
    </defs>
  </defs>
  <sodipodi:namedview
     pagecolor="#ffffff"
     bordercolor="#666666"
     borderopacity="1"
     objecttolerance="10"
     gridtolerance="10"
     guidetolerance="10"
     inkscape:pageopacity="0"
     inkscape:pageshadow="2"
     inkscape:window-width="1680"
     inkscape:window-height="998"
     id="namedview822"
     showgrid="false"
     inkscape:zoom="13.210631"
     inkscape:cx="208.46241"
     inkscape:cy="953.51745"
     inkscape:window-x="-8"
     inkscape:window-y="-8"
     inkscape:window-maximized="1"
     inkscape:current-layer="svg2" />
  <path
     inkscape:connector-curvature="0"
     id="path122"
     style="opacity:1;fill:none;stroke:#000000;stroke-width:1px"
     d="m 222.56517,110.22765 3.64529,10.64585"
     class="link thread2" />
  <path
     inkscape:connector-curvature="0"
     id="path126"
     style="opacity:1;fill:none;stroke:#000000;stroke-width:1px"
     d="m 226.1047,111.3986 10.61859,3.51282"
     class="link thread1" />
  <path
     inkscape:connector-curvature="0"
     id="path144"
     style="opacity:1;fill:none;stroke:#000000;stroke-width:1px"
     d="m 192.11129,112.07987 -4.74933,10.18476"
     class="link thread11" />
  <path
     inkscape:connector-curvature="0"
     id="path152"
     style="opacity:1;fill:none;stroke:#000000;stroke-width:1px"
     d="m 193.69441,108.68496 -10.89424,2.37259"
     class="link thread12" />
  <path
     inkscape:connector-curvature="0"
     id="path202"
     style="opacity:1;fill:none;stroke:#000000;stroke-width:1px"
     d="m 208.35192,104.93958 10.65994,3.96605"
     class="link thread1" />
  <path
     inkscape:connector-curvature="0"
     id="path204"
     style="opacity:1;fill:none;stroke:#000000;stroke-width:1px"
     d="m 219.39674,99.510199 3.16843,10.717451"
     class="link thread2" />
  <path
     inkscape:connector-curvature="0"
     id="path206"
     style="opacity:1;fill:none;stroke:#000000;stroke-width:1px"
     d="m 199.319,94.964329 -4.21844,10.290461"
     class="link thread11" />
  <path
     inkscape:connector-curvature="0"
     id="path208"
     style="opacity:1;fill:none;stroke:#000000;stroke-width:1px"
     d="m 204.68755,105.87592 -10.99314,2.80904"
     class="link thread12" />
  <path
     inkscape:connector-curvature="0"
     id="path210"
     style="opacity:1;fill:none;stroke:#000000;stroke-width:1px"
     d="m 201.57723,97.45814 6.77469,7.48144"
     class="link thread1" />
  <path
     inkscape:connector-curvature="0"
     id="path212"
     style="opacity:1;fill:none;stroke:#000000;stroke-width:1px"
     d="m 218.34058,95.937714 -7.49149,6.751396"
     class="link thread12" />
  <path
     inkscape:connector-curvature="0"
     id="path214"
     style="opacity:1;fill:none;stroke:#000000;stroke-width:1px"
     d="m 209.32272,86.008209 6.76341,7.447129"
     class="link thread2" />
  <path
     inkscape:connector-curvature="0"
     id="path216"
     style="opacity:1;fill:none;stroke:#000000;stroke-width:1px"
     d="m 222.58241,85.67813 -4.24183,10.259584"
     class="link thread12" />
  <path
     inkscape:connector-curvature="0"
     id="path218"
     style="opacity:1;fill:none;stroke:#000000;stroke-width:1px"
     d="m 195.01671,80.819999 3.22671,10.608247"
     class="link thread1" />
  <path
     inkscape:connector-curvature="0"
     id="path220"
     style="opacity:1;fill:none;stroke:#000000;stroke-width:1px"
     d="M 206.82179,88.247241 199.319,94.964329"
     class="link thread11" />
  <path
     inkscape:connector-curvature="0"
     id="path222"
     style="opacity:1;fill:none;stroke:#000000;stroke-width:1px"
     d="m 198.59322,82.117052 10.7295,3.891157"
     class="link thread2" />
  <path
     inkscape:connector-curvature="0"
     id="path224"
     style="opacity:1;fill:none;stroke:#000000;stroke-width:1px"
     d="m 223.99634,82.258266 -11.00521,2.812458"
     class="link thread11" />
  <path
     inkscape:connector-curvature="0"
     id="path226"
     style="opacity:1;fill:none;stroke:#000000;stroke-width:1px"
     d="m 180.94419,76.464953 10.5544,3.266284"
     class="link thread2" />
  <path
     inkscape:connector-curvature="0"
     id="path228"
     style="opacity:1;fill:none;stroke:#000000;stroke-width:1px"
     d="m 191.3562,70.38426 3.66051,10.435739"
     class="link thread1" />
  <path
     inkscape:connector-curvature="0"
     id="path254"
     style="opacity:1;fill:none;stroke:#000000;stroke-width:1px"
     d="m 230.10237,68.872259 -4.57952,10.039507"
     class="link thread12" />
  <path
     inkscape:connector-curvature="0"
     id="path256"
     style="opacity:1;fill:none;stroke:#000000;stroke-width:1px"
     d="m 234.79327,79.99747 -10.79693,2.260796"
     class="link thread11" />
  <path
     inkscape:connector-curvature="0"
     id="path546"
     style="opacity:0;fill:#000000;stroke:none"
     d="m 244.23668,80.601245 a 6,6 0 0 1 -7.20182,4.487068 6,6 0 0 1 -4.48706,-7.20182 6,6 0 0 1 7.20182,-4.487068 6,6 0 0 1 4.48706,7.20182 z"
     class="node">
    <title
       id="title548">cross - B13</title>
  </path>
  <path
     inkscape:connector-curvature="0"
     id="path550"
     style="opacity:0;fill:#000000;stroke:none"
     d="m 229.84078,83.615642 a 6,6 0 0 1 -7.20182,4.487067 6,6 0 0 1 -4.48707,-7.201819 6,6 0 0 1 7.20183,-4.487068 6,6 0 0 1 4.48706,7.20182 z"
     class="node">
    <title
       id="title552">twist - B14</title>
  </path>
  <path
     inkscape:connector-curvature="0"
     id="path570"
     style="opacity:0;fill:#000000;stroke:none"
     d="m 186.78863,77.822329 a 6,6 0 0 1 -7.20182,4.487067 6,6 0 0 1 -4.48706,-7.201819 6,6 0 0 1 7.20182,-4.487068 6,6 0 0 1 4.48706,7.20182 z"
     class="node">
    <title
       id="title572">cross - B13</title>
  </path>
  <path
     inkscape:connector-curvature="0"
     id="path578"
     style="opacity:0;fill:#000000;stroke:none"
     d="m 200.86116,82.177375 a 6,6 0 0 1 -7.20183,4.487068 6,6 0 0 1 -4.48706,-7.20182 6,6 0 0 1 7.20182,-4.487068 6,6 0 0 1 4.48707,7.20182 z"
     class="node">
    <title
       id="title580">twist - B15</title>
  </path>
  <path
     inkscape:connector-curvature="0"
     id="path582"
     style="opacity:0;fill:#000000;stroke:none"
     d="m 215.16716,87.365585 a 6,6 0 0 1 -7.20182,4.487068 6,6 0 0 1 -4.48707,-7.20182 6,6 0 0 1 7.20183,-4.487068 6,6 0 0 1 4.48706,7.20182 z"
     class="node">
    <title
       id="title584">cross - B10</title>
  </path>
  <path
     inkscape:connector-curvature="0"
     id="path586"
     style="opacity:0;fill:#000000;stroke:none"
     d="m 205.16344,96.321705 a 6,6 0 0 1 -7.20182,4.487065 6,6 0 0 1 -4.48707,-7.201817 6,6 0 0 1 7.20183,-4.487068 6,6 0 0 1 4.48706,7.20182 z"
     class="node">
    <title
       id="title588">twist - B11</title>
  </path>
  <path
     inkscape:connector-curvature="0"
     id="path590"
     style="opacity:0;fill:#000000;stroke:none"
     d="m 224.18503,97.29509 a 6,6 0 0 1 -7.20183,4.48706 6,6 0 0 1 -4.48706,-7.201812 6,6 0 0 1 7.20182,-4.487068 6,6 0 0 1 4.48707,7.20182 z"
     class="node">
    <title
       id="title592">twist - B12</title>
  </path>
  <path
     inkscape:connector-curvature="0"
     id="path594"
     style="opacity:0;fill:#000000;stroke:none"
     d="m 214.19637,106.29696 a 6,6 0 0 1 -7.20183,4.48706 6,6 0 0 1 -4.48706,-7.20182 6,6 0 0 1 7.20182,-4.487065 6,6 0 0 1 4.48707,7.201825 z"
     class="node">
    <title
       id="title596">cross - B13</title>
  </path>
  <path
     inkscape:connector-curvature="0"
     id="path598"
     style="opacity:0;fill:#000000;stroke:none"
     d="m 199.53885,110.04234 a 6,6 0 0 1 -7.20182,4.48706 6,6 0 0 1 -4.48707,-7.20182 6,6 0 0 1 7.20183,-4.48707 6,6 0 0 1 4.48706,7.20183 z"
     class="node">
    <title
       id="title600">twist - B14</title>
  </path>
  <path
     inkscape:connector-curvature="0"
     id="path602"
     style="opacity:0;fill:#000000;stroke:none"
     d="m 228.40962,111.58503 a 6,6 0 0 1 -7.20183,4.48707 6,6 0 0 1 -4.48706,-7.20183 6,6 0 0 1 7.20182,-4.48706 6,6 0 0 1 4.48707,7.20182 z"
     class="node">
    <title
       id="title604">twist - B15</title>
  </path>
  <path
     inkscape:connector-curvature="0"
     id="path654"
     style="opacity:0;fill:#000000;stroke:none"
     d="m 185.0132,113.20579 a 6,6 0 0 1 -7.20182,4.48706 6,6 0 0 1 -4.48706,-7.20182 6,6 0 0 1 7.20182,-4.48707 6,6 0 0 1 4.48706,7.20183 z"
     class="node">
    <title
       id="title656">cross - B10</title>
  </path>
  <path
     inkscape:connector-curvature="0"
     id="path662"
     style="opacity:0;fill:#000000;stroke:none"
     d="m 193.2064,123.62201 a 6,6 0 0 1 -7.20182,4.48706 6,6 0 0 1 -4.48707,-7.20182 6,6 0 0 1 7.20183,-4.48707 6,6 0 0 1 4.48706,7.20183 z"
     class="node">
    <title
       id="title664">twist - B12</title>
  </path>
  <path
     inkscape:connector-curvature="0"
     id="path678"
     style="opacity:0;fill:#000000;stroke:none"
     d="m 242.56773,116.2688 a 6,6 0 0 1 -7.20182,4.48706 6,6 0 0 1 -4.48707,-7.20182 6,6 0 0 1 7.20183,-4.48707 6,6 0 0 1 4.48706,7.20183 z"
     class="node">
    <title
       id="title680">cross - B10</title>
  </path>
  <path
     inkscape:connector-curvature="0"
     id="path682"
     style="opacity:0;fill:#000000;stroke:none"
     d="m 233.27,125.77949 a 6,6 0 0 1 -7.20182,4.48706 6,6 0 0 1 -4.48706,-7.20182 6,6 0 0 1 7.20182,-4.48707 6,6 0 0 1 4.48706,7.20183 z"
     class="node">
    <title
       id="title684">twist - B11</title>
  </path>
</svg>
