<?xml version="1.0" encoding="UTF-8" standalone="no"?>
<svg
   xmlns:dc="http://purl.org/dc/elements/1.1/"
   xmlns:cc="http://creativecommons.org/ns#"
   xmlns:rdf="http://www.w3.org/1999/02/22-rdf-syntax-ns#"
   xmlns:svg="http://www.w3.org/2000/svg"
   xmlns="http://www.w3.org/2000/svg"
   xmlns:sodipodi="http://sodipodi.sourceforge.net/DTD/sodipodi-0.dtd"
   xmlns:inkscape="http://www.inkscape.org/namespaces/inkscape"
   id="svg2"
   version="1.1"
   width="744"
   height="1052"
   pointer-events="all"
   inkscape:version="0.91 r13725"
   sodipodi:docname="torchon-clcrclc.svg"
   inkscape:export-filename="C:\Users\Falkink\Dropbox\joke-mac\torchon-clcrclc.png"
   inkscape:export-xdpi="72"
   inkscape:export-ydpi="72">
  <metadata
     id="metadata5064">
    <rdf:RDF>
      <cc:Work
         rdf:about="">
        <dc:format>image/svg+xml</dc:format>
        <dc:type
           rdf:resource="http://purl.org/dc/dcmitype/StillImage" />
        <dc:title />
      </cc:Work>
    </rdf:RDF>
  </metadata>
  <defs
     id="defs5062">
    <defs
       id="defs4139">
      <marker
         markerUnits="userSpaceOnUse"
         orient="auto"
         markerHeight="12"
         markerWidth="12"
         viewBox="-7 -7 14 14"
         id="start-thread">
        <path
           id="path4142"
           style="opacity: 0.5;"
           fill="#000"
           d="M -6,-6 6,-6 6,6 -6,6 Z" />
      </marker>
      <marker
         markerUnits="userSpaceOnUse"
         orient="auto"
         markerHeight="12"
         markerWidth="12"
         viewBox="-7 -7 14 14"
         id="start-pair">
        <path
           id="path4145"
           style="opacity: 0.5;"
           fill="#000"
           d="M -5,0 0,8 5,0 0,-8 Z" />
      </marker>
      <marker
         markerUnits="userSpaceOnUse"
         orient="auto"
         markerHeight="5"
         markerWidth="5"
         viewBox="-2 -2 4 4"
         id="twist-1">
        <path
           id="path4148"
           stroke-width="1px"
           stroke="#000"
           fill="#000"
           d="M 0,6 0,-6" />
      </marker>
      <marker
         markerUnits="userSpaceOnUse"
         orient="auto"
         markerHeight="8"
         markerWidth="6"
         viewBox="0 -5 10 10"
         id="start-red">
        <path
           id="path4151"
           stroke="#f00"
           stroke-width="3"
           d="M0,0L10,0" />
      </marker>
      <marker
         markerUnits="userSpaceOnUse"
         orient="auto"
         markerHeight="8"
         markerWidth="6"
         viewBox="0 -5 10 10"
         id="start-green">
        <path
           id="path4154"
           stroke="#0f0"
           stroke-width="3"
           d="M0,0L10,0" />
      </marker>
      <marker
         markerUnits="userSpaceOnUse"
         orient="auto"
         markerHeight="8"
         markerWidth="6"
         viewBox="0 -5 10 10"
         id="start-purple">
        <path
           id="path4157"
           stroke="#609"
           stroke-width="3"
           d="M0,0L10,0" />
      </marker>
      <marker
         markerUnits="userSpaceOnUse"
         orient="auto"
         markerHeight="8"
         markerWidth="6"
         viewBox="0 -5 10 10"
         id="end-red"
         refX="10">
        <path
           id="path4160"
           stroke="#f00"
           stroke-width="3"
           d="M0,0L10,0" />
      </marker>
      <marker
         markerUnits="userSpaceOnUse"
         orient="auto"
         markerHeight="8"
         markerWidth="6"
         viewBox="0 -5 10 10"
         id="end-green"
         refX="10">
        <path
           id="path4163"
           stroke="#0f0"
           stroke-width="3"
           d="M0,0L10,0" />
      </marker>
      <marker
         markerUnits="userSpaceOnUse"
         orient="auto"
         markerHeight="8"
         markerWidth="6"
         viewBox="0 -5 10 10"
         id="end-purple"
         refX="10">
        <path
           id="path4166"
           stroke="#609"
           stroke-width="3"
           d="M0,0L10,0" />
      </marker>
    </defs>
  </defs>
  <sodipodi:namedview
     pagecolor="#ffffff"
     bordercolor="#666666"
     borderopacity="1"
     objecttolerance="10"
     gridtolerance="10"
     guidetolerance="10"
     inkscape:pageopacity="0"
     inkscape:pageshadow="2"
     inkscape:window-width="1680"
     inkscape:window-height="998"
     id="namedview5060"
     showgrid="true"
     inkscape:zoom="9.5680493"
     inkscape:cx="194.44531"
     inkscape:cy="947.85246"
     inkscape:window-x="-8"
     inkscape:window-y="-8"
     inkscape:window-maximized="1"
     inkscape:current-layer="svg2">
    <inkscape:grid
       type="xygrid"
       id="grid5531" />
  </sodipodi:namedview>
  <g
     id="g5533"
     transform="matrix(0.98907405,0.14741957,-0.14741957,0.98907405,17.361255,-27.757734)">
    <path
       class="link thread10"
       d="m 199.85197,120.31983 11.69701,2.09448"
       style="opacity:1;fill:none;stroke:#000000;stroke-width:1px"
       id="path4272"
       inkscape:connector-curvature="0" />
    <path
       class="link thread8"
       d="m 215.08944,100.79701 7.91849,8.38473"
       style="opacity:1;fill:none;stroke:#000000;stroke-width:1px"
       id="path4276"
       inkscape:connector-curvature="0" />
    <path
       class="link thread3"
       d="m 198.55029,123.98518 -3.90502,10.99607"
       style="opacity:1;fill:none;stroke:#000000;stroke-width:1px"
       id="path4294"
       inkscape:connector-curvature="0" />
    <path
       class="link thread5"
       d="m 188.27119,109.94143 -10.23834,5.61651"
       style="opacity:1;fill:none;stroke:#000000;stroke-width:1px"
       id="path4306"
       inkscape:connector-curvature="0" />
    <path
       class="link thread10"
       d="m 191.16639,112.53603 8.68558,7.7838"
       style="opacity:1;fill:none;stroke:#000000;stroke-width:1px"
       id="path4364"
       inkscape:connector-curvature="0" />
    <path
       class="link thread3"
       d="m 201.15547,106.40118 -0.97763,10.43898"
       style="opacity:1;fill:none;stroke:#000000;stroke-width:1px"
       id="path4366"
       inkscape:connector-curvature="0" />
    <path
       class="link thread10"
       d="m 185.58732,94.190153 2.0129,11.813457"
       style="opacity:1;fill:none;stroke:#000000;stroke-width:1px"
       id="path4368"
       inkscape:connector-curvature="0" />
    <path
       class="link thread5"
       d="m 197.9344,107.28624 -9.66321,2.65519"
       style="opacity:1;fill:none;stroke:#000000;stroke-width:1px"
       id="path4370"
       inkscape:connector-curvature="0" />
    <path
       class="link thread3"
       d="m 199.50766,96.67167 1.64781,9.72951"
       style="opacity:1;fill:none;stroke:#000000;stroke-width:1px"
       id="path4372"
       inkscape:connector-curvature="0" />
    <path
       class="link thread5"
       d="m 212.44994,98.0021 -8.47085,6.29931"
       style="opacity:1;fill:none;stroke:#000000;stroke-width:1px"
       id="path4374"
       inkscape:connector-curvature="0" />
    <path
       class="link thread8"
       d="M 198.95839,93.428501 209.07705,96.8587"
       style="opacity:1;fill:none;stroke:#000000;stroke-width:1px"
       id="path4376"
       inkscape:connector-curvature="0" />
    <path
       class="link thread5"
       d="M 217.07565,87.604181 212.44994,98.0021"
       style="opacity:1;fill:none;stroke:#000000;stroke-width:1px"
       id="path4378"
       inkscape:connector-curvature="0" />
    <path
       class="link thread8"
       d="m 188.93008,93.99974 10.02831,-0.571239"
       style="opacity:1;fill:none;stroke:#000000;stroke-width:1px"
       id="path4380"
       inkscape:connector-curvature="0" />
    <path
       class="link thread3"
       d="m 193.18042,80.635776 4.33348,9.594544"
       style="opacity:1;fill:none;stroke:#000000;stroke-width:1px"
       id="path4382"
       inkscape:connector-curvature="0" />
    <path
       class="link thread8"
       d="m 170.28692,91.204136 11.4753,2.239513"
       style="opacity:1;fill:none;stroke:#000000;stroke-width:1px"
       id="path4384"
       inkscape:connector-curvature="0" />
    <path
       class="link thread10"
       d="m 191.28214,84.02437 -5.69482,10.165783"
       style="opacity:1;fill:none;stroke:#000000;stroke-width:1px"
       id="path4386"
       inkscape:connector-curvature="0" />
    <path
       class="link thread3"
       d="m 186.00177,71.355662 7.17865,9.280114"
       style="opacity:1;fill:none;stroke:#000000;stroke-width:1px"
       id="path4388"
       inkscape:connector-curvature="0" />
    <path
       class="link thread10"
       d="m 206.98679,73.29968 -10.35478,5.502072"
       style="opacity:1;fill:none;stroke:#000000;stroke-width:1px"
       id="path4390"
       inkscape:connector-curvature="0" />
    <path
       class="node"
       d="m 212.98679,73.29968 a 6,6 0 0 1 -6,6 6,6 0 0 1 -6,-6 6,6 0 0 1 6,-6 6,6 0 0 1 6,6 z"
       style="opacity:0;fill:#000000;stroke:none"
       id="path4752"
       inkscape:connector-curvature="0">
      <title
         id="title4754">twist - B15</title>
    </path>
    <path
       class="node"
       d="m 224.61756,84.138208 a 6,6 0 0 1 -6,6 6,6 0 0 1 -6,-6 6,6 0 0 1 6,-6 6,6 0 0 1 6,6 z"
       style="opacity:0;fill:#000000;stroke:none"
       id="path4756"
       inkscape:connector-curvature="0">
      <title
         id="title4758">cross - B16</title>
    </path>
    <path
       class="node"
       d="m 189.60889,68.262291 a 6,6 0 0 1 -6,6 6,6 0 0 1 -6,-6 6,6 0 0 1 6,-6 6,6 0 0 1 6,6 z"
       style="opacity:0;fill:#000000;stroke:none"
       id="path4772"
       inkscape:connector-curvature="0">
      <title
         id="title4774">twist - B13</title>
    </path>
    <path
       class="node"
       d="m 176.28692,91.204136 a 6,6 0 0 1 -6,6 6,6 0 0 1 -6,-6 6,6 0 0 1 6,-6 6,6 0 0 1 6,6 z"
       style="opacity:0;fill:#000000;stroke:none"
       id="path4784"
       inkscape:connector-curvature="0">
      <title
         id="title4786">cross - B16</title>
    </path>
    <path
       class="node"
       d="m 199.18042,80.635776 a 6,6 0 0 1 -6,6 6,6 0 0 1 -6,-6 6,6 0 0 1 6,-6 6,6 0 0 1 6,6 z"
       style="opacity:0;fill:#000000;stroke:none"
       id="path4788"
       inkscape:connector-curvature="0">
      <title
         id="title4790">cross - B10</title>
    </path>
    <path
       class="node"
       d="m 191.58732,94.190153 a 6,6 0 0 1 -6,5.999997 6,6 0 0 1 -6,-5.999997 6,6 0 0 1 6,-6 6,6 0 0 1 6,6 z"
       style="opacity:0;fill:#000000;stroke:none"
       id="path4792"
       inkscape:connector-curvature="0">
      <title
         id="title4794">twist - B11</title>
    </path>
    <path
       class="node"
       d="m 204.95839,93.428501 a 6,6 0 0 1 -6,6 6,6 0 0 1 -6,-6 6,6 0 0 1 6,-6 6,6 0 0 1 6,6 z"
       style="opacity:0;fill:#000000;stroke:none"
       id="path4796"
       inkscape:connector-curvature="0">
      <title
         id="title4798">cross - B12</title>
    </path>
    <path
       class="node"
       d="m 218.44994,98.0021 a 6,6 0 0 1 -6,6 6,6 0 0 1 -6,-6 6,6 0 0 1 6,-6 6,6 0 0 1 6,6 z"
       style="opacity:0;fill:#000000;stroke:none"
       id="path4800"
       inkscape:connector-curvature="0">
      <title
         id="title4802">twist - B13</title>
    </path>
    <path
       class="node"
       d="m 207.15547,106.40118 a 6,6 0 0 1 -6,6 6,6 0 0 1 -6,-6 6,6 0 0 1 6,-6 6,6 0 0 1 6,6 z"
       style="opacity:0;fill:#000000;stroke:none"
       id="path4804"
       inkscape:connector-curvature="0">
      <title
         id="title4806">cross - B14</title>
    </path>
    <path
       class="node"
       d="m 194.27119,109.94143 a 6,6 0 0 1 -6,6 6,6 0 0 1 -6,-6 6,6 0 0 1 6,-6 6,6 0 0 1 6,6 z"
       style="opacity:0;fill:#000000;stroke:none"
       id="path4808"
       inkscape:connector-curvature="0">
      <title
         id="title4810">twist - B15</title>
    </path>
    <path
       class="node"
       d="m 205.85197,120.31983 a 6,6 0 0 1 -6,6 6,6 0 0 1 -6,-6 6,6 0 0 1 6,-6 6,6 0 0 1 6,6 z"
       style="opacity:0;fill:#000000;stroke:none"
       id="path4812"
       inkscape:connector-curvature="0">
      <title
         id="title4814">cross - B16</title>
    </path>
    <path
       class="node"
       d="m 170.18583,105.64893 a 6,6 0 0 1 -6,6 6,6 0 0 1 -6,-6 6,6 0 0 1 6,-6 6,6 0 0 1 6,6 z"
       style="opacity:0;fill:#000000;stroke:none"
       id="path4856"
       inkscape:connector-curvature="0">
      <title
         id="title4858">twist - B13</title>
    </path>
    <path
       class="node"
       d="m 180.62007,117.43011 a 6,6 0 0 1 -6,6 6,6 0 0 1 -6,-6 6,6 0 0 1 6,-6 6,6 0 0 1 6,6 z"
       style="opacity:0;fill:#000000;stroke:none"
       id="path4872"
       inkscape:connector-curvature="0">
      <title
         id="title4874">cross - B10</title>
    </path>
    <path
       class="node"
       d="m 186.89726,130.24899 a 6,6 0 0 1 -6,6 6,6 0 0 1 -6,-6 6,6 0 0 1 6,-6 6,6 0 0 1 6,6 z"
       style="opacity:0;fill:#000000;stroke:none"
       id="path4880"
       inkscape:connector-curvature="0">
      <title
         id="title4882">cross - B12</title>
    </path>
    <path
       class="node"
       d="m 200.64527,134.98125 a 6,6 0 0 1 -6,6 6,6 0 0 1 -6,-6 6,6 0 0 1 6,-6 6,6 0 0 1 6,6 z"
       style="opacity:0;fill:#000000;stroke:none"
       id="path4884"
       inkscape:connector-curvature="0">
      <title
         id="title4886">twist - B13</title>
    </path>
    <path
       class="node"
       d="m 229.00793,109.18174 a 6,6 0 0 1 -6,6 6,6 0 0 1 -6,-6 6,6 0 0 1 6,-6 6,6 0 0 1 6,6 z"
       style="opacity:0;fill:#000000;stroke:none"
       id="path4900"
       inkscape:connector-curvature="0">
      <title
         id="title4902">cross - B10</title>
    </path>
    <path
       class="node"
       d="m 221.44799,123.11247 a 6,6 0 0 1 -6,6 6,6 0 0 1 -6,-6 6,6 0 0 1 6,-6 6,6 0 0 1 6,6 z"
       style="opacity:0;fill:#000000;stroke:none"
       id="path4904"
       inkscape:connector-curvature="0">
      <title
         id="title4906">twist - B11</title>
    </path>
    <path
       class="node"
       d="m 233.69956,121.15647 a 6,6 0 0 1 -6,6 6,6 0 0 1 -6,-6 6,6 0 0 1 6,-6 6,6 0 0 1 6,6 z"
       style="opacity:0;fill:#000000;stroke:none"
       id="path4908"
       inkscape:connector-curvature="0">
      <title
         id="title4910">cross - B12</title>
    </path>
    <path
       class="node"
       d="m 226.51538,138.22853 a 6,6 0 0 1 -6,6 6,6 0 0 1 -6,-6 6,6 0 0 1 6,-6 6,6 0 0 1 6,6 z"
       style="opacity:0;fill:#000000;stroke:none"
       id="path4920"
       inkscape:connector-curvature="0">
      <title
         id="title4922">twist - B15</title>
    </path>
  </g>
</svg>
