<?xml version="1.0" encoding="UTF-8" standalone="no"?>
<svg
   xmlns:dc="http://purl.org/dc/elements/1.1/"
   xmlns:cc="http://creativecommons.org/ns#"
   xmlns:rdf="http://www.w3.org/1999/02/22-rdf-syntax-ns#"
   xmlns:svg="http://www.w3.org/2000/svg"
   xmlns="http://www.w3.org/2000/svg"
   xmlns:sodipodi="http://sodipodi.sourceforge.net/DTD/sodipodi-0.dtd"
   xmlns:inkscape="http://www.inkscape.org/namespaces/inkscape"
   id="svg2"
   version="1.1"
   width="744"
   height="1052"
   pointer-events="all"
   inkscape:version="0.91 r13725"
   sodipodi:docname="torchon-crclct.svg"
   inkscape:export-filename="C:\Users\Falkink\Dropbox\joke-mac\torchon-crclct.png"
   inkscape:export-xdpi="72"
   inkscape:export-ydpi="72">
  <metadata
     id="metadata6519">
    <rdf:RDF>
      <cc:Work
         rdf:about="">
        <dc:format>image/svg+xml</dc:format>
        <dc:type
           rdf:resource="http://purl.org/dc/dcmitype/StillImage" />
      </cc:Work>
    </rdf:RDF>
  </metadata>
  <defs
     id="defs6517">
    <defs
       id="defs5594">
      <marker
         markerUnits="userSpaceOnUse"
         orient="auto"
         markerHeight="12"
         markerWidth="12"
         viewBox="-7 -7 14 14"
         id="start-thread">
        <path
           id="path5597"
           style="opacity: 0.5;"
           fill="#000"
           d="M -6,-6 6,-6 6,6 -6,6 Z" />
      </marker>
      <marker
         markerUnits="userSpaceOnUse"
         orient="auto"
         markerHeight="12"
         markerWidth="12"
         viewBox="-7 -7 14 14"
         id="start-pair">
        <path
           id="path5600"
           style="opacity: 0.5;"
           fill="#000"
           d="M -5,0 0,8 5,0 0,-8 Z" />
      </marker>
      <marker
         markerUnits="userSpaceOnUse"
         orient="auto"
         markerHeight="5"
         markerWidth="5"
         viewBox="-2 -2 4 4"
         id="twist-1">
        <path
           id="path5603"
           stroke-width="1px"
           stroke="#000"
           fill="#000"
           d="M 0,6 0,-6" />
      </marker>
      <marker
         markerUnits="userSpaceOnUse"
         orient="auto"
         markerHeight="8"
         markerWidth="6"
         viewBox="0 -5 10 10"
         id="start-red">
        <path
           id="path5606"
           stroke="#f00"
           stroke-width="3"
           d="M0,0L10,0" />
      </marker>
      <marker
         markerUnits="userSpaceOnUse"
         orient="auto"
         markerHeight="8"
         markerWidth="6"
         viewBox="0 -5 10 10"
         id="start-green">
        <path
           id="path5609"
           stroke="#0f0"
           stroke-width="3"
           d="M0,0L10,0" />
      </marker>
      <marker
         markerUnits="userSpaceOnUse"
         orient="auto"
         markerHeight="8"
         markerWidth="6"
         viewBox="0 -5 10 10"
         id="start-purple">
        <path
           id="path5612"
           stroke="#609"
           stroke-width="3"
           d="M0,0L10,0" />
      </marker>
      <marker
         markerUnits="userSpaceOnUse"
         orient="auto"
         markerHeight="8"
         markerWidth="6"
         viewBox="0 -5 10 10"
         id="end-red"
         refX="10">
        <path
           id="path5615"
           stroke="#f00"
           stroke-width="3"
           d="M0,0L10,0" />
      </marker>
      <marker
         markerUnits="userSpaceOnUse"
         orient="auto"
         markerHeight="8"
         markerWidth="6"
         viewBox="0 -5 10 10"
         id="end-green"
         refX="10">
        <path
           id="path5618"
           stroke="#0f0"
           stroke-width="3"
           d="M0,0L10,0" />
      </marker>
      <marker
         markerUnits="userSpaceOnUse"
         orient="auto"
         markerHeight="8"
         markerWidth="6"
         viewBox="0 -5 10 10"
         id="end-purple"
         refX="10">
        <path
           id="path5621"
           stroke="#609"
           stroke-width="3"
           d="M0,0L10,0" />
      </marker>
    </defs>
  </defs>
  <sodipodi:namedview
     pagecolor="#ffffff"
     bordercolor="#666666"
     borderopacity="1"
     objecttolerance="10"
     gridtolerance="10"
     guidetolerance="10"
     inkscape:pageopacity="0"
     inkscape:pageshadow="2"
     inkscape:window-width="1666"
     inkscape:window-height="955"
     id="namedview6515"
     showgrid="false"
     inkscape:zoom="1"
     inkscape:cx="-59.22505"
     inkscape:cy="787.7903"
     inkscape:window-x="0"
     inkscape:window-y="30"
     inkscape:window-maximized="0"
     inkscape:current-layer="svg2" />
  <g
     id="g7526"
     transform="matrix(0.97180873,-0.23577062,0.23577062,0.97180873,-16.737308,50.123845)">
    <path
       class="link thread2"
       d="m 213.89355,108.98124 1.41337,12.12926"
       style="opacity:1;fill:none;stroke:#000000;stroke-width:1px"
       id="path5719"
       inkscape:connector-curvature="0" />
    <path
       class="link thread1"
       d="m 217.9299,109.3405 12.10908,1.07779"
       style="opacity:1;fill:none;stroke:#000000;stroke-width:1px"
       id="path5731"
       inkscape:connector-curvature="0" />
    <path
       class="link thread12"
       d="m 179.99748,114.41835 -5.1658,10.33246"
       style="opacity:1;fill:none;stroke:#000000;stroke-width:1px"
       id="path5757"
       inkscape:connector-curvature="0" />
    <path
       class="link thread11"
       d="m 181.71942,110.97419 -11.63305,2.81116"
       style="opacity:1;fill:none;stroke:#000000;stroke-width:1px"
       id="path5761"
       inkscape:connector-curvature="0" />
    <path
       class="link thread1"
       d="m 197.25687,107.05954 12.47751,1.44127"
       style="opacity:1;fill:none;stroke:#000000;stroke-width:1px"
       id="path5819"
       inkscape:connector-curvature="0" />
    <path
       class="link thread2"
       d="m 213.75331,96.841844 0.14024,12.139396"
       style="opacity:1;fill:none;stroke:#000000;stroke-width:1px"
       id="path5821"
       inkscape:connector-curvature="0" />
    <path
       class="link thread12"
       d="m 188.40321,97.081459 -5.01284,10.419551"
       style="opacity:1;fill:none;stroke:#000000;stroke-width:1px"
       id="path5823"
       inkscape:connector-curvature="0" />
    <path
       class="link thread11"
       d="m 193.37251,108.0382 -11.65309,2.93599"
       style="opacity:1;fill:none;stroke:#000000;stroke-width:1px"
       id="path5825"
       inkscape:connector-curvature="0" />
    <path
       class="link thread1"
       d="m 190.61662,99.575978 6.64025,7.483562"
       style="opacity:1;fill:none;stroke:#000000;stroke-width:1px"
       id="path5827"
       inkscape:connector-curvature="0" />
    <path
       class="link thread11"
       d="m 201.04259,94.890641 -2.83929,9.126669"
       style="opacity:1;fill:none;stroke:#000000;stroke-width:1px"
       id="path5829"
       inkscape:connector-curvature="0" />
    <path
       class="link thread1"
       d="m 188.31509,81.134887 0.0661,11.959929"
       style="opacity:1;fill:none;stroke:#000000;stroke-width:1px"
       id="path5831"
       inkscape:connector-curvature="0" />
    <path
       class="link thread12"
       d="m 197.88274,95.438345 -9.47953,1.643114"
       style="opacity:1;fill:none;stroke:#000000;stroke-width:1px"
       id="path5833"
       inkscape:connector-curvature="0" />
    <path
       class="link thread11"
       d="m 203.92409,85.835993 -2.8815,9.054648"
       style="opacity:1;fill:none;stroke:#000000;stroke-width:1px"
       id="path5835"
       inkscape:connector-curvature="0" />
    <path
       class="link thread12"
       d="m 213.70657,92.79538 -9.49799,1.571446"
       style="opacity:1;fill:none;stroke:#000000;stroke-width:1px"
       id="path5837"
       inkscape:connector-curvature="0" />
    <path
       class="link thread2"
       d="m 204.88459,82.817778 6.61648,7.483201"
       style="opacity:1;fill:none;stroke:#000000;stroke-width:1px"
       id="path5839"
       inkscape:connector-curvature="0" />
    <path
       class="link thread12"
       d="M 218.67285,82.275737 213.70657,92.79538"
       style="opacity:1;fill:none;stroke:#000000;stroke-width:1px"
       id="path5841"
       inkscape:connector-curvature="0" />
    <path
       class="link thread2"
       d="m 192.45747,81.55561 12.42712,1.262168"
       style="opacity:1;fill:none;stroke:#000000;stroke-width:1px"
       id="path5843"
       inkscape:connector-curvature="0" />
    <path
       class="link thread11"
       d="M 220.32827,78.769189 208.74551,81.80563"
       style="opacity:1;fill:none;stroke:#000000;stroke-width:1px"
       id="path5845"
       inkscape:connector-curvature="0" />
    <path
       class="link thread2"
       d="m 172.42197,80.504104 11.91984,0.473087"
       style="opacity:1;fill:none;stroke:#000000;stroke-width:1px"
       id="path5847"
       inkscape:connector-curvature="0" />
    <path
       class="link thread1"
       d="m 186.94221,69.278811 1.37288,11.856076"
       style="opacity:1;fill:none;stroke:#000000;stroke-width:1px"
       id="path5849"
       inkscape:connector-curvature="0" />
    <path
       class="link thread12"
       d="m 226.88721,64.948548 -4.9192,10.365481"
       style="opacity:1;fill:none;stroke:#000000;stroke-width:1px"
       id="path5879"
       inkscape:connector-curvature="0" />
    <path
       class="link thread11"
       d="m 231.70568,76.148248 -11.37741,2.620941"
       style="opacity:1;fill:none;stroke:#000000;stroke-width:1px"
       id="path5881"
       inkscape:connector-curvature="0" />
    <path
       class="node"
       d="m 232.88721,64.948548 a 6,6 0 0 1 -6,6 6,6 0 0 1 -6,-6 6,6 0 0 1 6,-6 6,6 0 0 1 6,6 z"
       style="opacity:0;fill:#000000;stroke:none"
       id="path6199"
       inkscape:connector-curvature="0">
      <title
         id="title6201">twist - B13</title>
    </path>
    <path
       class="node"
       d="m 226.32827,78.769189 a 6,6 0 0 1 -6,6 6,6 0 0 1 -6,-6 6,6 0 0 1 6,-6 6,6 0 0 1 6,6 z"
       style="opacity:0;fill:#000000;stroke:none"
       id="path6207"
       inkscape:connector-curvature="0">
      <title
         id="title6209">twist - B15</title>
    </path>
    <path
       class="node"
       d="m 192.48459,65.326786 a 6,6 0 0 1 -6,6 6,6 0 0 1 -6,-6 6,6 0 0 1 6,-6 6,6 0 0 1 6,6 z"
       style="opacity:0;fill:#000000;stroke:none"
       id="path6219"
       inkscape:connector-curvature="0">
      <title
         id="title6221">twist - B11</title>
    </path>
    <path
       class="node"
       d="m 179.82279,68.014474 a 6,6 0 0 1 -6,6 6,6 0 0 1 -6,-6 6,6 0 0 1 6,-6 6,6 0 0 1 6,6 z"
       style="opacity:0;fill:#000000;stroke:none"
       id="path6223"
       inkscape:connector-curvature="0">
      <title
         id="title6225">cross - B12</title>
    </path>
    <path
       class="node"
       d="m 178.42197,80.504104 a 6,6 0 0 1 -6,6 6,6 0 0 1 -6,-6 6,6 0 0 1 6,-6 6,6 0 0 1 6,6 z"
       style="opacity:0;fill:#000000;stroke:none"
       id="path6231"
       inkscape:connector-curvature="0">
      <title
         id="title6233">cross - B14</title>
    </path>
    <path
       class="node"
       d="m 194.31509,81.134887 a 6,6 0 0 1 -6,6 6,6 0 0 1 -6,-6 6,6 0 0 1 6,-6 6,6 0 0 1 6,6 z"
       style="opacity:0;fill:#000000;stroke:none"
       id="path6239"
       inkscape:connector-curvature="0">
      <title
         id="title6241">twist - B16</title>
    </path>
    <path
       class="node"
       d="m 210.88459,82.817778 a 6,6 0 0 1 -6,6 6,6 0 0 1 -6,-6 6,6 0 0 1 6,-6 6,6 0 0 1 6,6 z"
       style="opacity:0;fill:#000000;stroke:none"
       id="path6243"
       inkscape:connector-curvature="0">
      <title
         id="title6245">cross - B10</title>
    </path>
    <path
       class="node"
       d="m 219.70657,92.79538 a 6,6 0 0 1 -6,6 6,6 0 0 1 -6,-6 6,6 0 0 1 6,-6 6,6 0 0 1 6,6 z"
       style="opacity:0;fill:#000000;stroke:none"
       id="path6247"
       inkscape:connector-curvature="0">
      <title
         id="title6249">twist - B11</title>
    </path>
    <path
       class="node"
       d="m 207.04259,94.890641 a 6,6 0 0 1 -6,5.999999 6,6 0 0 1 -6,-5.999999 6,6 0 0 1 6,-6 6,6 0 0 1 6,6 z"
       style="opacity:0;fill:#000000;stroke:none"
       id="path6251"
       inkscape:connector-curvature="0">
      <title
         id="title6253">cross - B12</title>
    </path>
    <path
       class="node"
       d="m 194.40321,97.081459 a 6,6 0 0 1 -6,6.000001 6,6 0 0 1 -6,-6.000001 6,6 0 0 1 6,-6 6,6 0 0 1 6,6 z"
       style="opacity:0;fill:#000000;stroke:none"
       id="path6255"
       inkscape:connector-curvature="0">
      <title
         id="title6257">twist - B13</title>
    </path>
    <path
       class="node"
       d="m 203.25687,107.05954 a 6,6 0 0 1 -6,6 6,6 0 0 1 -6,-6 6,6 0 0 1 6,-6 6,6 0 0 1 6,6 z"
       style="opacity:0;fill:#000000;stroke:none"
       id="path6259"
       inkscape:connector-curvature="0">
      <title
         id="title6261">cross - B14</title>
    </path>
    <path
       class="node"
       d="m 187.71942,110.97419 a 6,6 0 0 1 -6,6 6,6 0 0 1 -6,-6 6,6 0 0 1 6,-6 6,6 0 0 1 6,6 z"
       style="opacity:0;fill:#000000;stroke:none"
       id="path6263"
       inkscape:connector-curvature="0">
      <title
         id="title6265">twist - B15</title>
    </path>
    <path
       class="node"
       d="m 219.89355,108.98124 a 6,6 0 0 1 -6,6 6,6 0 0 1 -6,-6 6,6 0 0 1 6,-6 6,6 0 0 1 6,6 z"
       style="opacity:0;fill:#000000;stroke:none"
       id="path6267"
       inkscape:connector-curvature="0">
      <title
         id="title6269">twist - B16</title>
    </path>
    <path
       class="node"
       d="m 180.83168,124.75081 a 6,6 0 0 1 -6,6 6,6 0 0 1 -6,-6 6,6 0 0 1 6,-6 6,6 0 0 1 6,6 z"
       style="opacity:0;fill:#000000;stroke:none"
       id="path6331"
       inkscape:connector-curvature="0">
      <title
         id="title6333">twist - B11</title>
    </path>
    <path
       class="node"
       d="m 236.03898,110.41829 a 6,6 0 0 1 -6,6 6,6 0 0 1 -6,-6 6,6 0 0 1 6,-6 6,6 0 0 1 6,6 z"
       style="opacity:0;fill:#000000;stroke:none"
       id="path6355"
       inkscape:connector-curvature="0">
      <title
         id="title6357">cross - B10</title>
    </path>
    <path
       class="node"
       d="m 234.43093,122.79676 a 6,6 0 0 1 -6,6 6,6 0 0 1 -6,-6 6,6 0 0 1 6,-6 6,6 0 0 1 6,6 z"
       style="opacity:0;fill:#000000;stroke:none"
       id="path6363"
       inkscape:connector-curvature="0">
      <title
         id="title6365">cross - B12</title>
    </path>
    <path
       class="node"
       d="m 221.77804,125.15359 a 6,6 0 0 1 -6,6 6,6 0 0 1 -6,-6 6,6 0 0 1 6,-6 6,6 0 0 1 6,6 z"
       style="opacity:0;fill:#000000;stroke:none"
       id="path6367"
       inkscape:connector-curvature="0">
      <title
         id="title6369">twist - B13</title>
    </path>
  </g>
</svg>
