<?xml version="1.0" encoding="UTF-8"?>
<!-- Created with Inkscape (http://www.inkscape.org/) -->
<svg width="194mm" height="14.449mm" version="1.1" viewBox="0 0 194 14.449" xml:space="preserve" xmlns="http://www.w3.org/2000/svg"><g transform="translate(-18.98 101.15)"><g transform="matrix(.8 0 0 .79928 101.98 -109.96)" fill="none" stroke="#000" stroke-linejoin="round" stroke-width=".25011"><path d="m62.5 17.5h15" stop-color="#000000"/><path d="m67.5 12.5c0 3.3336 0 6.6669 1.6668 8.3335 1.6668 1.6665 5.0001 1.6665 8.3332 1.6665" stop-color="#000000"/><path d="m72.5 12.5v15" stop-color="#000000"/><path d="m62.5 22.5c1.6669 0 3.3336 0 4.1668 0.83348 0.8332 0.83348 0.8332 2.5001 0.8332 4.1665" stop-color="#000000"/></g><g transform="matrix(-.8 0 0 -.79928 285.88 -78.042)" fill="none" stroke="#000" stroke-linejoin="round" stroke-width=".25011"><path d="m147.5 12.5c0 2.5003 0 5.0003 0.83351 6.6669 0.8335 1.6666 2.5001 2.4999 4.1665 3.3331" stop-color="#000000"/><path d="m137.5 17.5c3.3336 0 6.6669 0 8.3335 1.6668 1.6665 1.6668 1.6665 5.0001 1.6665 8.3332" stop-color="#000000"/><path d="m137.5 22.5c1.6669 0 3.3336 0 4.1668 0.83348 0.83321 0.83348 0.83321 2.5001 0.83321 4.1665" stop-color="#000000"/><path d="m142.5 12.5c0 2.5003 0 5.0003 0.83351 6.6669 0.8335 1.6666 2.5001 2.4999 4.1667 2.0832 1.6665-0.41676 3.3332-2.0834 4.9998-3.7501" stop-color="#000000"/></g><g transform="matrix(.8 0 0 .79928 -26 -169.94)" fill="none" stroke="#000" stroke-linejoin="round" stroke-width=".25011"><path d="m162.5 92.5c3.3336 0 6.6669 0 9.167 0.83348 2.5 0.83348 4.1666 2.5001 5.833 4.1665" stop-color="#000000"/><path d="m167.5 87.5c0 2.5003 0 5.0003 0.83351 6.6669 0.8335 1.6666 2.5001 2.4999 4.1667 2.0832 1.6665-0.41676 3.3332-2.0834 4.9998-3.7501" stop-color="#000000"/><path d="m172.5 87.5c0 3.3336 0 6.6669-0.83348 9.1669s-2.5001 4.1667-4.1665 5.8331" stop-color="#000000"/><path d="m162.5 97.5c2.5003 0 5.0003 0 6.6669 0.83351 1.6666 0.83351 2.5 2.5001 3.3331 4.1665" stop-color="#000000"/></g><g transform="matrix(-.8 0 0 -.79928 250 -18.074)" fill="none" stroke="#000" stroke-linejoin="round" stroke-width=".25011"><path d="m142.5 87.5v15" stop-color="#000000"/><path d="m137.5 92.5c3.3336 0 6.6669 0 8.3335 1.6668 1.6665 1.6668 1.6665 5.0001 1.6665 8.3332" stop-color="#000000"/><path d="m137.5 97.5c2.5003 0 5.0003 0 7.5002-0.83337 2.4999-0.83337 4.9999-2.5 7.4998-4.1666" stop-color="#000000"/><path d="m147.53 87.455c0 2.5003 0 5.0003 0.83351 6.6669 0.8335 1.6666 2.5001 2.4999 4.1665 3.3331" stop-color="#000000"/></g><text transform="scale(1.0005 .99955)" x="61.992165" y="57.899849" fill="#000000" font-family="Calibri" font-size="2.8209px" stop-color="#000000" stroke-width=".26458" style="-inkscape-stroke:none;line-height:1.25;text-decoration-color:#000000" xml:space="preserve"><tspan x="61.992165" y="57.899849" stroke-width=".26458"/></text><g transform="matrix(.8 0 0 .79928 -42 -109.99)" fill="none" stroke="#000" stroke-linejoin="round" stroke-width=".25011"><path d="m147.5 12.5c0 2.5003 0 5.0003 0.83351 6.6669 0.8335 1.6666 2.5001 2.4999 4.1665 3.3331" stop-color="#000000"/><path d="m137.5 17.5c3.3336 0 6.6669 0 8.3335 1.6668 1.6665 1.6668 1.6665 5.0001 1.6665 8.3332" stop-color="#000000"/><path d="m137.5 22.5c1.6669 0 3.3336 0 4.1668 0.83348 0.83321 0.83348 0.83321 2.5001 0.83321 4.1665" stop-color="#000000"/><path d="m142.5 12.5c0 2.5003 0 5.0003 0.83351 6.6669 0.8335 1.6666 2.5001 2.4999 4.1667 2.0832 1.6665-0.41676 3.3332-2.0834 4.9998-3.7501" stop-color="#000000"/></g><g transform="matrix(.8 0 0 .79928 -150.02 -169.87)" fill="none" stroke="#000" stroke-linejoin="round" stroke-width=".25011"><path d="m212.5 92.5c3.3336 0 6.6669 0 9.167 0.83348 2.5 0.83348 4.1666 2.5001 5.833 4.1665" stop-color="#000000"/><path d="m212.5 97.5c1.6669 0 3.3336 0 4.1668 0.83348 0.83321 0.83348 0.83321 2.5001 0.83321 4.1665" stop-color="#000000"/><path d="m222.5 87.5v15" stop-color="#000000"/><path d="m217.5 87.5c0 2.5003 0 5.0003 0.83351 6.6669 0.8335 1.6666 2.5001 2.4999 4.1667 2.0832 1.6665-0.41676 3.3332-2.0834 4.9998-3.7501" stop-color="#000000"/></g><g transform="matrix(-.8 0 0 -.79928 142 11.899)" fill="none" stroke="#000" stroke-linejoin="round" stroke-width=".25011"><path d="m77.5 130h-15" stop-color="#000000"/><path d="m77.5 135h-15" stop-color="#000000"/><path d="m72.5 125c0 3.3336 0 6.6669-0.83348 9.167s-2.5001 4.1666-4.1665 5.833" stop-color="#000000"/><path d="m67.5 125c0 3.3336 0 6.6669 0.83335 9.1668 0.83335 2.4999 2.5 4.1665 4.1666 5.8332" stop-color="#000000"/></g><text transform="translate(2.2 2.2)" x="37.799999" y="205.8" fill="#000000" font-family="Calibri" font-size="3.5278px" stop-color="#000000" stroke-width=".26458" style="-inkscape-stroke:none;line-height:1.25;text-decoration-color:#000000" xml:space="preserve"><tspan x="37.799999" y="205.8" stroke-width=".26458"/></text><text x="37.999996" y="116.00002" fill="#000000" font-family="Calibri" font-size="3.5278px" stop-color="#000000" stroke-width=".26458" style="-inkscape-stroke:none;line-height:1.25;text-decoration-color:#000000" xml:space="preserve"><tspan x="37.999996" y="116.00002" stroke-width=".26458"/></text><text x="80" y="178.00003" fill="#000000" font-family="Calibri" font-size="3.5278px" stop-color="#000000" stroke-width=".26458" style="-inkscape-stroke:none;line-height:1.25;text-decoration-color:#000000" xml:space="preserve"><tspan x="80" y="178.00003" stroke-width=".26458"/></text><text x="140" y="28.000025" fill="#000000" font-family="Calibri" font-size="3.5278px" stop-color="#000000" stroke-width=".26458" style="-inkscape-stroke:none;line-height:1.25;text-decoration-color:#000000" xml:space="preserve"><tspan x="140" y="28.000025" stroke-width=".26458"/></text><g transform="matrix(-.8 0 0 -.79928 277.93 -78.089)" fill="none" stroke="#000" stroke-linejoin="round" stroke-width=".25011"><path d="m122.5 12.5c0 1.6669 0 3.3336 0.83348 4.1668s2.5001 0.8332 4.1665 0.8332" stop-color="#000000"/><path d="m117.5 12.5c0 3.3336 0 6.6669 1.6668 8.3335 1.6668 1.6665 5.0001 1.6665 8.3332 1.6665" stop-color="#000000"/><path d="m112.5 17.505c1.667 1.6685 3.3336 3.3366 5.0003 5.0026 1.6667 1.666 3.3332 3.3295 4.9997 4.9929" stop-color="#000000"/><path d="m112.5 22.509c2.5-1.6682 5-3.3364 7.0835-3.3362 2.0835 1.92e-4 3.7501 1.6683 3.3332 3.3341-0.41681 1.6658-2.9167 3.3294-5.4168 4.9931" stop-color="#000000"/></g><g transform="matrix(-.8 0 0 -.79928 133.98 -77.957)" fill="none" stroke="#000" stroke-linejoin="round" stroke-width=".25011"><path d="m122.5 12.5c0 1.6669 0 3.3336 0.83348 4.1668s2.5001 0.8332 4.1665 0.8332" stop-color="#000000"/><path d="m117.5 12.5c0 3.3336 0 6.6669 1.6668 8.3335 1.6668 1.6665 5.0001 1.6665 8.3332 1.6665" stop-color="#000000"/><path d="m112.5 17.505c1.667 1.6685 3.3336 3.3366 5.0003 5.0026 1.6667 1.666 3.3332 3.3295 4.9997 4.9929" stop-color="#000000"/><path d="m112.5 22.509c2.5-1.6682 5-3.3364 7.0835-3.3362 2.0835 1.92e-4 3.7501 1.6683 3.3332 3.3341-0.41681 1.6658-2.9167 3.3294-5.4168 4.9931" stop-color="#000000"/></g><text x="140" y="-1.999976" fill="#000000" font-family="Calibri" font-size="3.5278px" stop-color="#000000" stroke-width=".26458" style="-inkscape-stroke:none;line-height:1.25;text-decoration-color:#000000" xml:space="preserve"><tspan x="140" y="-1.999976" stroke-width=".26458"/></text><g transform="translate(16 -36.004)"><g fill="none" stroke="#000" stroke-linejoin="round" stroke-width=".2"><path d="m100-55.996c1.3333-1.3333 2.6667-2.6667 4-3 1.3333-0.33334 2.6666 0.33332 3.3333 1.6249 0.66668 1.2916 0.66667 3.208 0.66667 5.1244"/><path d="m100-59.996c1.3333 0.44444 2.6666 0.88888 3.3333 2.1805 0.66668 1.2916 0.66667 3.4302 0.66667 5.5689"/><path d="m104-63.996c0 3.3333 0 6.6666 1.2934 7.3327 1.2934 0.66607 3.88-1.3351 6.4666-3.3363"/><path d="m108-63.757c0 1.2534 0 2.5068 0.66668 3.8002 0.66667 1.2934 2 2.6267 3.3333 3.96"/></g></g><g transform="translate(40 -36.004)"><g fill="none" stroke="#000" stroke-linejoin="round" stroke-width=".2"><path d="m100-55.996c1.3333-1.3333 2.6667-2.6667 4-3 1.3333-0.33334 2.6666 0.33332 3.3333 1.6249 0.66668 1.2916 0.66667 3.208 0.66667 5.1244"/><path d="m100-59.996c1.3333 0.44444 2.6666 0.88888 3.3333 2.1805 0.66668 1.2916 0.66667 3.4302 0.66667 5.5689"/><path d="m104-63.996c0 3.3333 0 6.6666 1.2934 7.3327 1.2934 0.66607 3.88-1.3351 6.4666-3.3363"/><path d="m108-63.757c0 1.2534 0 2.5068 0.66668 3.8002 0.66667 1.2934 2 2.6267 3.3333 3.96"/></g></g><g transform="translate(-441.54 -52.003)" fill="none" stroke="#000" stroke-linejoin="round" stroke-opacity=".98039" stroke-width=".2"><path d="m629.5-44c3.9267-1.3205 7.8535-2.641 9.1902-1.3031 1.3367 1.338 0.0834 5.3343-1.17 9.3306"/><path d="m629.52-39.969c3.3266-2.0104 6.6532-4.0208 7.3164-3.3593 0.66327 0.6615-1.3367 3.9948-3.3367 7.3281"/><path d="m633.52-47.962c-1.4133 3.9964-2.8267 7.9927-1.4967 9.3197 1.33 1.3269 5.4032-0.01558 9.4764-1.3581"/><path d="m637.5-48c-2 3.3333-4 6.6667-3.3299 7.3391 0.67008 0.67245 4.0101-1.3159 7.3502-3.3043"/></g><text transform="matrix(.26458 0 0 .26458 9.76 -97.379)" fill="#000000" font-family="Calibri" font-size="15.118px" stop-color="#000000" style="-inkscape-stroke:none;line-height:1.25;shape-inside:url(#rect8);text-decoration-color:#000000;white-space:pre" xml:space="preserve"/><text x="64" y="56.921696" fill="#000000" font-family="Calibri" font-size="4px" stop-color="#000000" stroke-width=".26458" style="-inkscape-stroke:none;line-height:1.25;text-decoration-color:#000000" xml:space="preserve"><tspan x="64" y="56.921696"/><tspan x="64" y="61.921696"/></text><g transform="matrix(-.8 0 0 -.79928 157.98 -77.957)" fill="none" stroke="#000" stroke-linejoin="round" stroke-width=".25011"><path d="m122.5 12.5c0 1.6669 0 3.3336 0.83348 4.1668s2.5001 0.8332 4.1665 0.8332" stop-color="#000000"/><path d="m117.5 12.5c0 3.3336 0 6.6669 1.6668 8.3335 1.6668 1.6665 5.0001 1.6665 8.3332 1.6665" stop-color="#000000"/><path d="m112.5 17.505c1.667 1.6685 3.3336 3.3366 5.0003 5.0026 1.6667 1.666 3.3332 3.3295 4.9997 4.9929" stop-color="#000000"/><path d="m112.5 22.509c2.5-1.6682 5-3.3364 7.0835-3.3362 2.0835 1.92e-4 3.7501 1.6683 3.3332 3.3341-0.41681 1.6658-2.9167 3.3294-5.4168 4.9931" stop-color="#000000"/></g><g transform="matrix(-.8 0 0 .79928 86.056 -199.91)" fill="none" stroke="#000" stroke-linejoin="round" stroke-width=".25011"><path d="m47.57 125v15" stop-color="#000000"/><path d="m42.57 125v15" stop-color="#000000"/><path d="m52.571 130c-3.3336 0-6.6669 0-9.1669 0.83348s-4.1667 2.5001-5.8331 4.1665" stop-color="#000000"/><path d="m52.571 135c-3.3336 0-6.6669 0-9.1668-0.83335s-4.1665-2.5-5.8332-4.1666" stop-color="#000000"/></g><g transform="matrix(1 0 0 -1 -7.9431 -168.12)" fill="none" stroke="#000" stroke-linecap="round" stroke-linejoin="round" stroke-width=".2"><path d="m100-76c1.3025 1.9864 2.605 3.9728 3.9228 3.5933 1.3179-0.37943 2.6512-3.1247 4-3.4512s2.713 1.7657 4.0772 3.8578" style="-inkscape-stroke:none"/><path d="m99.907-72.087c1.3333-2.0733 2.6667-4.1467 4.0154-3.7988s2.713 3.1169 4.0617 3.5014 2.6821-1.6155 4.0154-3.6155" style="-inkscape-stroke:none"/><path d="m103.91-80.32v11.989" style="-inkscape-stroke:none"/><path d="m107.91-80.08 0.0357 11.716" style="-inkscape-stroke:none"/></g><g transform="matrix(.8 0 0 .79928 149.98 -109.96)" fill="none" stroke="#000" stroke-linejoin="round" stroke-width=".25011"><path d="m62.5 17.5h15" stop-color="#000000"/><path d="m67.5 12.5c0 3.3336 0 6.6669 1.6668 8.3335 1.6668 1.6665 5.0001 1.6665 8.3332 1.6665" stop-color="#000000"/><path d="m72.5 12.5v15" stop-color="#000000"/><path d="m62.5 22.5c1.6669 0 3.3336 0 4.1668 0.83348 0.8332 0.83348 0.8332 2.5001 0.8332 4.1665" stop-color="#000000"/></g></g></svg>
