<?xml version="1.0" encoding="utf-8"?>

<!DOCTYPE svg PUBLIC "-//W3C//DTD SVG 1.1//EN" "http://www.w3.org/Graphics/SVG/1.1/DTD/svg11.dtd">
<!-- Uploaded to: SVG Repo, www.svgrepo.com, Generator: SVG Repo Mixer Tools -->
<svg height="50px" width="50px" version="1.1" id="_x32_" xmlns="http://www.w3.org/2000/svg"
	 viewBox="0 0 512 512"  xml:space="preserve">
<style type="text/css">
	.st0{fill:#000000;}
</style>
<g>
	<path class="st0" d="M103.958,265.785c12.574,5.162,23.463-1.538,24.316-14.964c0.852-13.427-8.654-28.492-21.221-33.654
		c-12.568-5.156-23.457,1.537-24.31,14.964C81.891,245.557,91.397,260.629,103.958,265.785z"/>
	<path class="st0" d="M202.141,421.758c12.574,5.163,23.457-1.544,24.309-14.964c0.852-13.427-8.647-28.499-21.214-33.655
		c-12.574-5.156-23.457,1.537-24.316,14.964C180.067,401.531,189.574,416.602,202.141,421.758z"/>
	<path class="st0" d="M449.531,105.602L288.463,8.989C278.473,2.994,267.235,0,256.01,0c-11.238,0-22.483,2.994-32.466,8.989
		L62.475,105.602c-19.012,11.406-30.647,31.949-30.647,54.117v192.562c0,22.168,11.634,42.711,30.647,54.117l161.069,96.613
		c9.982,5.995,21.228,8.989,32.466,8.989c11.225,0,22.464-3.001,32.453-8.989l161.069-96.613
		c19.012-11.406,30.64-31.95,30.64-54.117V159.719C480.171,137.551,468.544,117.008,449.531,105.602z M250.599,492.733
		c-6.028-0.745-11.929-2.719-17.32-5.949L72.21,390.164c-13.306-7.982-21.456-22.362-21.456-37.884V159.719
		c0-6.022,1.236-11.862,3.518-17.234l196.328,117.767V492.733z M59.669,133.114c3.363-4.464,7.593-8.318,12.541-11.286
		l161.069-96.613c6.996-4.196,14.85-6.29,22.731-6.29c7.869,0,15.723,2.095,22.718,6.29l161.069,96.613
		c4.941,2.968,9.171,6.821,12.541,11.286L256.01,250.881L59.669,133.114z M461.253,352.281c0,15.521-8.15,29.901-21.456,37.884
		l-161.069,96.62c-5.397,3.23-11.292,5.21-17.32,5.949v-232.48l196.328-117.767c2.282,5.371,3.518,11.212,3.518,17.234V352.281z"/>
	<path class="st0" d="M275.519,44.678c-9.829-7.27-26.021-7.459-36.172-0.403c-10.137,7.049-10.392,18.677-0.564,25.948
		c9.828,7.277,26.021,7.459,36.158,0.41C285.093,63.576,285.348,51.961,275.519,44.678z"/>
	<path class="st0" d="M382.344,115.773c-9.829-7.278-26.022-7.459-36.159-0.41c-10.151,7.049-10.406,18.677-0.578,25.948
		c9.829,7.277,26.022,7.459,36.159,0.416C391.917,134.664,392.172,123.057,382.344,115.773z"/>
	<path class="st0" d="M165.621,113.564c-9.829-7.278-26.022-7.459-36.172-0.41c-10.137,7.056-10.393,18.67-0.57,25.948
		c9.834,7.284,26.028,7.459,36.165,0.41C175.194,132.456,175.449,120.842,165.621,113.564z"/>
	<path class="st0" d="M272.444,184.653c-9.828-7.278-26.021-7.459-36.172-0.41c-10.137,7.056-10.392,18.67-0.564,25.948
		c9.829,7.284,26.022,7.465,36.172,0.409C282.018,203.551,282.273,191.93,272.444,184.653z"/>
	<path class="st0" d="M418.341,207.901c-11.158,6.082-20.207,20.053-20.207,31.211c0,11.151,9.05,15.266,20.207,9.19
		c11.144-6.082,20.194-20.06,20.194-31.21C438.535,205.934,429.485,201.819,418.341,207.901z"/>
	<path class="st0" d="M305.555,269.369c-11.158,6.083-20.194,20.06-20.194,31.211c0,11.158,9.036,15.273,20.194,9.191
		c11.158-6.083,20.194-20.053,20.194-31.211C325.75,267.409,316.713,263.294,305.555,269.369z"/>
	<path class="st0" d="M418.341,320.68c-11.158,6.082-20.207,20.053-20.207,31.211c0,11.15,9.05,15.266,20.207,9.19
		c11.144-6.082,20.194-20.06,20.194-31.211C438.535,318.714,429.485,314.598,418.341,320.68z"/>
	<path class="st0" d="M305.555,382.148c-11.158,6.083-20.194,20.06-20.194,31.211c0,11.158,9.036,15.273,20.194,9.191
		c11.158-6.083,20.194-20.053,20.194-31.211C325.75,380.188,316.713,376.073,305.555,382.148z"/>
	<path class="st0" d="M361.948,295.028c-11.158,6.076-20.208,20.053-20.208,31.204c0,11.158,9.05,15.273,20.208,9.19
		c11.158-6.082,20.194-20.052,20.194-31.21C382.142,293.061,373.106,288.946,361.948,295.028z"/>
</g>
</svg>