<?xml version="1.0" encoding="UTF-8" standalone="no"?>
<svg
   xmlns:dc="http://purl.org/dc/elements/1.1/"
   xmlns:cc="http://creativecommons.org/ns#"
   xmlns:rdf="http://www.w3.org/1999/02/22-rdf-syntax-ns#"
   xmlns:svg="http://www.w3.org/2000/svg"
   xmlns="http://www.w3.org/2000/svg"
   xmlns:sodipodi="http://sodipodi.sourceforge.net/DTD/sodipodi-0.dtd"
   xmlns:inkscape="http://www.inkscape.org/namespaces/inkscape"
   id="svg2"
   version="1.1"
   width="744"
   height="1052"
   sodipodi:docname="stitch-legend.svg"
   inkscape:version="1.0.2 (e86c8708, 2021-01-15)">
  <metadata
     id="metadata1779">
    <rdf:RDF>
      <cc:Work
         rdf:about="">
        <dc:format>image/svg+xml</dc:format>
        <dc:type
           rdf:resource="http://purl.org/dc/dcmitype/StillImage" />
        <dc:title />
      </cc:Work>
    </rdf:RDF>
  </metadata>
  <sodipodi:namedview
     pagecolor="#ffffff"
     bordercolor="#666666"
     borderopacity="1"
     objecttolerance="10"
     gridtolerance="10"
     guidetolerance="10"
     inkscape:pageopacity="0"
     inkscape:pageshadow="2"
     inkscape:window-width="1920"
     inkscape:window-height="1147"
     id="namedview1777"
     showgrid="false"
     inkscape:zoom="1.6112614"
     inkscape:cx="72.025094"
     inkscape:cy="143.40623"
     inkscape:window-x="1440"
     inkscape:window-y="25"
     inkscape:window-maximized="0"
     inkscape:current-layer="svg2"
     showguides="true"
     inkscape:guide-bbox="true"
     inkscape:document-rotation="0"
     inkscape:snap-center="true" />
  <defs
     id="defs842">
    <rect
       x="360.81534"
       y="426.52112"
       width="79.300075"
       height="39.650037"
       id="rect1094" />
    <marker
       id="twist-1"
       viewBox="-2 -2 4 4"
       markerWidth="5"
       markerHeight="5"
       orient="auto"
       markerUnits="userSpaceOnUse">
      <path
         d="M 0,2 0,-2"
         fill="#000"
         stroke="#000"
         stroke-width="1px"
         id="path833" />
    </marker>
    <marker
       id="twist-2"
       viewBox="-2 -2 4 4"
       markerWidth="5"
       markerHeight="5"
       orient="auto"
       markerUnits="userSpaceOnUse">
      <path
         d="M -1,2 V -2 M 1,2 1,-2"
         fill="#000"
         stroke="#000"
         stroke-width="1px"
         id="path836" />
    </marker>
    <marker
       id="twist-3"
       viewBox="-2 -2 4 4"
       markerWidth="5"
       markerHeight="5"
       orient="auto"
       markerUnits="userSpaceOnUse">
      <path
         d="M 1,-2 H -1 V 2 H 1 Z"
         fill="#000"
         stroke="#000"
         stroke-width="1px"
         id="path839" />
    </marker>
    <marker
       id="twist-1-5"
       viewBox="-2 -2 4 4"
       markerWidth="5"
       markerHeight="5"
       orient="auto"
       markerUnits="userSpaceOnUse">
      <path
         d="M 0,2 V -2"
         fill="#000000"
         stroke="#000000"
         stroke-width="0.7px"
         id="path4491" />
    </marker>
    <marker
       id="twist-2-3"
       viewBox="-2 -2 4 4"
       markerWidth="5"
       markerHeight="5"
       orient="auto"
       markerUnits="userSpaceOnUse">
      <path
         d="M -1,2 V -2 M 1,2 V -2"
         fill="#000000"
         stroke="#000000"
         stroke-width="0.7px"
         id="path4494" />
    </marker>
    <marker
       id="twist-3-0"
       viewBox="-2 -2 4 4"
       markerWidth="5"
       markerHeight="5"
       orient="auto"
       markerUnits="userSpaceOnUse">
      <path
         d="m -1.5,2 v -4 m 3,4 V -2 M 0,2 v -4"
         fill="#000000"
         stroke="#000000"
         stroke-width="0.7px"
         id="path4497" />
    </marker>
    <marker
       id="marker6058"
       viewBox="-2 -2 4 4"
       markerWidth="5"
       markerHeight="5"
       orient="auto"
       markerUnits="userSpaceOnUse">
      <path
         d="M 0,2 V -2"
         fill="#000000"
         stroke="#000000"
         stroke-width="0.7px"
         id="path6056" />
    </marker>
    <marker
       id="marker6062"
       viewBox="-2 -2 4 4"
       markerWidth="5"
       markerHeight="5"
       orient="auto"
       markerUnits="userSpaceOnUse">
      <path
         d="M -1,2 V -2 M 1,2 V -2"
         fill="#000000"
         stroke="#000000"
         stroke-width="0.7px"
         id="path6060" />
    </marker>
    <marker
       id="twist-3-0-8"
       viewBox="-2 -2 4 4"
       markerWidth="5"
       markerHeight="5"
       orient="auto"
       markerUnits="userSpaceOnUse">
      <path
         d="m -1.5,2 v -4 m 3,4 V -2 M 0,2 v -4"
         fill="#000000"
         stroke="#000000"
         stroke-width="0.7px"
         id="path4497-4" />
    </marker>
    <marker
       id="twist-1-3"
       viewBox="-2 -2 4 4"
       markerWidth="5"
       markerHeight="5"
       orient="auto"
       markerUnits="userSpaceOnUse">
      <path
         d="M 0,2 V -2"
         fill="#000000"
         stroke="#000000"
         stroke-width="0.7px"
         id="path6604" />
    </marker>
    <marker
       id="twist-2-8"
       viewBox="-2 -2 4 4"
       markerWidth="5"
       markerHeight="5"
       orient="auto"
       markerUnits="userSpaceOnUse">
      <path
         d="M -1,2 V -2 M 1,2 V -2"
         fill="#000000"
         stroke="#000000"
         stroke-width="0.7px"
         id="path6607" />
    </marker>
    <marker
       id="twist-3-2"
       viewBox="-2 -2 4 4"
       markerWidth="5"
       markerHeight="5"
       orient="auto"
       markerUnits="userSpaceOnUse">
      <path
         d="m -1.5,2 v -4 m 3,4 V -2 M 0,2 v -4"
         fill="#000000"
         stroke="#000000"
         stroke-width="0.7px"
         id="path6610" />
    </marker>
    <marker
       id="marker8171"
       viewBox="-2 -2 4 4"
       markerWidth="5"
       markerHeight="5"
       orient="auto"
       markerUnits="userSpaceOnUse">
      <path
         d="M -1,2 V -2 M 1,2 V -2"
         fill="#000000"
         stroke="#000000"
         stroke-width="0.7px"
         id="path8169" />
    </marker>
    <marker
       id="marker8175"
       viewBox="-2 -2 4 4"
       markerWidth="5"
       markerHeight="5"
       orient="auto"
       markerUnits="userSpaceOnUse">
      <path
         d="m -1.5,2 v -4 m 3,4 V -2 M 0,2 v -4"
         fill="#000000"
         stroke="#000000"
         stroke-width="0.7px"
         id="path8173" />
    </marker>
    <marker
       id="marker8179"
       viewBox="-2 -2 4 4"
       markerWidth="5"
       markerHeight="5"
       orient="auto"
       markerUnits="userSpaceOnUse">
      <path
         d="M -1,2 V -2 M 1,2 V -2"
         fill="#000000"
         stroke="#000000"
         stroke-width="0.7px"
         id="path8177" />
    </marker>
  </defs>
  <text
     xml:space="preserve"
     style="font-size:14.6667px;line-height:1.25;font-family:sans-serif"
     x="42.28854"
     y="319.87805"
     id="text2181"><tspan
       sodipodi:role="line"
       id="tspan2179"
       x="42.28854"
       y="319.87805">zero</tspan></text>
  <text
     xml:space="preserve"
     style="font-size:14.6667px;line-height:1.25;font-family:sans-serif"
     x="88.288536"
     y="319.87805"
     id="text2185"><tspan
       sodipodi:role="line"
       id="tspan2183"
       x="88.288536"
       y="319.87805">once</tspan></text>
  <text
     xml:space="preserve"
     style="font-size:14.6667px;line-height:1.25;font-family:sans-serif"
     x="134.28854"
     y="319.87805"
     id="text2189"><tspan
       sodipodi:role="line"
       id="tspan2187"
       x="134.28854"
       y="319.87805">twice</tspan></text>
  <text
     xml:space="preserve"
     style="font-size:14.6667px;line-height:1.25;font-family:sans-serif"
     x="186.28851"
     y="319.87805"
     id="text2193"><tspan
       sodipodi:role="line"
       id="tspan2191"
       x="186.28851"
       y="319.87805">more</tspan></text>
  <text
     xml:space="preserve"
     id="text1092"
     style="font-size:14.66670000000000051px;line-height:1.25;font-family:sans-serif;white-space:pre;shape-inside:url(#rect1094);"
     transform="translate(1.2445942,-192.28981)" />
  <text
     xml:space="preserve"
     style="font-size:14.6667px;line-height:1.25;font-family:sans-serif"
     x="70.126694"
     y="145.6785"
     id="text6330"><tspan
       sodipodi:role="line"
       id="tspan6328"
       x="70.126694"
       y="145.6785">c.c.c</tspan></text>
  <g
     onclick="paint(this)"
     class="node"
     transform="matrix(2,0,0,2,44.25125,142.27221)"
     id="g6342">
    <title
       id="title6332">ctllcrrc - c1</title>
    <path
       d="M -5.5,0 0,-5.5 V 0 Z"
       style="opacity:0.9;fill:#0571b0;stroke:none"
       id="path6334" />
    <path
       d="M 5.5,0 0,-5.5 V 0 Z"
       style="opacity:0.9;fill:#f4a582;stroke:none"
       id="path6336" />
    <path
       d="M -5.5,0 0,5.5 V 0 Z"
       style="opacity:0.9;fill:#ca0020;stroke:none"
       id="path6338" />
    <path
       d="M 5.5,0 0,5.5 V 0 Z"
       style="opacity:0.9;fill:#92c5de;stroke:none"
       id="path6340" />
  </g>
  <text
     xml:space="preserve"
     style="font-size:14.6667px;line-height:1.25;font-family:sans-serif"
     x="70.126694"
     y="105.67846"
     id="text6346"><tspan
       sodipodi:role="line"
       id="tspan6344"
       x="70.126694"
       y="105.67846">c.c</tspan></text>
  <g
     onclick="paint(this)"
     class="node"
     transform="matrix(2,0,0,2,44.25125,62.27221)"
     id="g6364">
    <title
       id="title6360">cr - b1</title>
    <path
       d="M -5.5,0 0,5.5 5.5,0 0,-5.5 Z"
       style="opacity:0.9;fill:#000000;stroke:none"
       id="path6362" />
  </g>
  <text
     xml:space="preserve"
     style="font-size:14.6667px;line-height:1.25;font-family:sans-serif"
     x="70.126694"
     y="65.678452"
     id="text6368"><tspan
       sodipodi:role="line"
       id="tspan6366"
       x="70.126694"
       y="65.678452">c / cc / ccc or more</tspan></text>
  <text
     xml:space="preserve"
     style="font-size:14.6667px;line-height:1.25;font-family:sans-serif"
     x="70.126694"
     y="185.82646"
     id="text6372"><tspan
       sodipodi:role="line"
       id="tspan6370"
       x="70.126694"
       y="185.82646">ctctctc and longer plaits</tspan></text>
  <g
     onclick="paint(this)"
     class="node"
     transform="matrix(2,0,0,2,44.25125,182.27221)"
     id="g6402">
    <title
       id="title6398">ctctctctctctt - b2</title>
    <path
       d="M -4.3,-4.3 H 4.3 V 4.3 H -4.3 Z"
       style="opacity:0.9;fill:#000000;stroke:none"
       id="path6400" />
  </g>
  <path
     d="m 96.444177,355.82928 11.000003,-11 v 11 z"
     style="opacity:0.9;fill:#f4a582;stroke:none;stroke-width:2"
     id="path6406" />
  <path
     d="m 71.444177,355.82928 -11,-11 v 11 z"
     style="opacity:0.9;fill:#ca0020;stroke:none;stroke-width:2"
     id="path6408" />
  <path
     d="m 96.444177,355.82928 11.000003,11 v -11 z"
     style="opacity:0.9;fill:#f4a582;stroke:none;stroke-width:2"
     id="path6410" />
  <path
     d="m 71.444177,355.82928 -11,11 v -11 z"
     style="opacity:0.9;fill:#ca0020;stroke:none;stroke-width:2"
     id="path6412" />
  <path
     d="m 49.444177,355.82928 11,-11 v 11 z"
     style="opacity:0.9;fill:#ca0020;stroke:none;stroke-width:2"
     id="path6420" />
  <path
     d="m 49.444177,355.82928 11,11 v -11 z"
     style="opacity:0.9;fill:#ca0020;stroke:none;stroke-width:2"
     id="path6422" />
  <path
     d="m 118.44418,355.82928 -11,-11 v 11 z"
     style="opacity:0.9;fill:#f4a582;stroke:none;stroke-width:2"
     id="path6424" />
  <path
     d="m 118.44418,355.82928 -11,11 v -11 z"
     style="opacity:0.9;fill:#f4a582;stroke:none;stroke-width:2"
     id="path6426" />
  <path
     d="m 163.44418,355.82928 -11,11 v -11 z"
     style="opacity:0.9;fill:#92c5de;stroke:none;stroke-width:2"
     id="path6340-0" />
  <path
     d="m 163.44418,355.82928 -11,-11 v 11 z"
     style="opacity:0.9;fill:#92c5de;stroke:none;stroke-width:2"
     id="path6448" />
  <path
     d="m 141.44418,355.82928 11,11 v -11 z"
     style="opacity:0.9;fill:#92c5de;stroke:none;stroke-width:2"
     id="path6450" />
  <path
     d="m 141.44418,355.82928 11,-11 v 11 z"
     style="opacity:0.9;fill:#92c5de;stroke:none;stroke-width:2"
     id="path6452" />
  <path
     d="m 217.44418,356.82928 -11,-11 v 11 z"
     style="opacity:0.9;fill:#0571b0;stroke:none;stroke-width:2"
     id="path6334-8" />
  <path
     d="m 217.44418,356.82928 -11,11 v -11 z"
     style="opacity:0.9;fill:#0571b0;stroke:none;stroke-width:2"
     id="path6476" />
  <path
     d="m 195.44418,356.82928 11,-11 v 11 z"
     style="opacity:0.9;fill:#0571b0;stroke:none;stroke-width:2"
     id="path6478" />
  <path
     d="m 195.44418,356.82928 11,11 v -11 z"
     style="opacity:0.9;fill:#0571b0;stroke:none;stroke-width:2"
     id="path6480" />
  <path
     class="link"
     d="m 229.14275,333.52307 h -21.2132 -21.2132"
     style="fill:none;stroke:#000000;stroke-width:2px;marker-mid:url(#twist-3-0-8)"
     id="path4534-4" />
  <path
     class="link"
     d="m 166.71635,333.52307 h -15 -15"
     style="fill:none;stroke:#000000;stroke-width:2px;marker-mid:url(#twist-2-3)"
     id="path6580" />
  <path
     class="link"
     d="m 92.71635,333.52307 h 15 15"
     style="fill:none;stroke:#000000;stroke-width:2px;marker-mid:url(#twist-1-5)"
     id="path6582" />
  <path
     class="link"
     d="m 72.71635,333.52307 h -30"
     style="fill:none;stroke:#000000;stroke-width:2px"
     id="path6584" />
  <path
     class="link"
     d="m -80.201061,39.633729 h 15 15"
     style="fill:none;stroke:#000000;stroke-width:2px;marker-mid:url(#twist-1-3)"
     id="path6653" />
  <path
     class="link"
     d="M -20.201065,39.633729 H -50.201061"
     style="fill:none;stroke:#000000;stroke-width:2px"
     id="path6655" />
  <path
     class="link"
     d="m -80.201061,39.633729 v 30"
     style="fill:none;stroke:#000000;stroke-width:2px"
     id="path6671" />
  <path
     class="link"
     d="m -50.201061,39.633729 -30,30"
     style="fill:none;stroke:#000000;stroke-width:2px"
     id="path6673" />
  <path
     class="link"
     d="m -50.201061,39.633729 29.999996,30"
     style="fill:none;stroke:#000000;stroke-width:2px"
     id="path6675" />
  <path
     class="link"
     d="m -20.201065,39.633729 v 30"
     style="fill:none;stroke:#000000;stroke-width:2px"
     id="path6677" />
  <path
     class="link"
     d="m -80.201061,69.633729 v 15 15"
     style="fill:none;stroke:#000000;stroke-width:2px;marker-mid:url(#twist-2-8)"
     id="path6691" />
  <path
     class="link"
     d="m -50.201061,99.633729 h -15 -15"
     style="fill:none;stroke:#000000;stroke-width:2px;marker-mid:url(#twist-3-2)"
     id="path6693" />
  <path
     class="link"
     d="m -80.201061,69.633729 15,15 15,15"
     style="fill:none;stroke:#000000;stroke-width:2px;marker-mid:url(#twist-2-8)"
     id="path6695" />
  <path
     class="link"
     d="m -20.201065,69.633729 -15,15 -14.999996,15"
     style="fill:none;stroke:#000000;stroke-width:2px;marker-mid:url(#twist-3-2)"
     id="path6697" />
  <path
     class="link"
     d="m -50.201061,99.633729 h 29.999996"
     style="fill:none;stroke:#000000;stroke-width:2px"
     id="path6699" />
  <path
     class="link"
     d="m -20.201065,69.633729 v 15 15"
     style="fill:none;stroke:#000000;stroke-width:2px;marker-mid:url(#twist-2-8)"
     id="path6701" />
  <g
     onclick="paint(this)"
     class="node"
     transform="matrix(2,0,0,2,-80.201061,39.633729)"
     id="g7017">
    <title
       id="title7013">cr - b1</title>
    <path
       d="M -5.5,0 0,5.5 5.5,0 0,-5.5 Z"
       style="opacity:0.9;fill:#000000;stroke:none"
       id="path7015" />
  </g>
  <g
     onclick="paint(this)"
     class="node"
     transform="matrix(2,0,0,2,-50.201061,39.633729)"
     id="g7029">
    <title
       id="title7019">ctllcrrc - c1</title>
    <path
       d="M -5.5,0 0,-5.5 V 0 Z"
       style="opacity:0.9;fill:#0571b0;stroke:none"
       id="path7021" />
    <path
       d="M 5.5,0 0,-5.5 V 0 Z"
       style="opacity:0.9;fill:#f4a582;stroke:none"
       id="path7023" />
    <path
       d="M -5.5,0 0,5.5 V 0 Z"
       style="opacity:0.9;fill:#ca0020;stroke:none"
       id="path7025" />
    <path
       d="M 5.5,0 0,5.5 V 0 Z"
       style="opacity:0.9;fill:#92c5de;stroke:none"
       id="path7027" />
  </g>
  <g
     onclick="paint(this)"
     class="node"
     transform="matrix(2,0,0,2,-20.201065,39.633729)"
     id="g7041">
    <title
       id="title7031">clclc - d1</title>
    <path
       d="M -5.5,0 0,-5.5 V 0 Z"
       style="opacity:0.9;fill:#f4a582;stroke:none"
       id="path7033" />
    <path
       d="M 5.5,0 0,-5.5 V 0 Z"
       style="opacity:0.9;fill:#ca0020;stroke:none"
       id="path7035" />
    <path
       d="M -5.5,0 0,5.5 V 0 Z"
       style="opacity:0.9;fill:#f4a582;stroke:none"
       id="path7037" />
    <path
       d="M 5.5,0 0,5.5 V 0 Z"
       style="opacity:0.9;fill:#ca0020;stroke:none"
       id="path7039" />
  </g>
  <g
     onclick="paint(this)"
     class="node"
     transform="matrix(2,0,0,2,-80.201061,69.633729)"
     id="g7077">
    <title
       id="title7073">ctctctctctctt - b2</title>
    <path
       d="M -4.3,-4.3 H 4.3 V 4.3 H -4.3 Z"
       style="opacity:0.9;fill:#000000;stroke:none"
       id="path7075" />
  </g>
  <path
     onclick="paint(this)"
     class="node"
     d="m -10.801066,69.633729 a 9.4,9.4 0 0 1 -9.399999,9.4 9.4,9.4 0 0 1 -9.4,-9.4 9.4,9.4 0 0 1 9.4,-9.4 9.4,9.4 0 0 1 9.399999,9.4 z"
     style="opacity:0.9;fill:#f7f7f7;stroke:none;stroke-width:2"
     id="path7081">
    <title
       id="title7079">ctctctctclcttl - d2</title>
  </path>
  <g
     onclick="paint(this)"
     class="node"
     transform="matrix(2,0,0,2,-80.201061,99.633729)"
     id="g7117">
    <title
       id="title7107">clclc - d1</title>
    <path
       d="M -5.5,0 0,-5.5 V 0 Z"
       style="opacity:0.9;fill:#f4a582;stroke:none"
       id="path7109" />
    <path
       d="M 5.5,0 0,-5.5 V 0 Z"
       style="opacity:0.9;fill:#ca0020;stroke:none"
       id="path7111" />
    <path
       d="M -5.5,0 0,5.5 V 0 Z"
       style="opacity:0.9;fill:#f4a582;stroke:none"
       id="path7113" />
    <path
       d="M 5.5,0 0,5.5 V 0 Z"
       style="opacity:0.9;fill:#ca0020;stroke:none"
       id="path7115" />
  </g>
  <g
     onclick="paint(this)"
     class="node"
     transform="matrix(2,0,0,2,-50.201061,99.633729)"
     id="g7125">
    <title
       id="title7119">cllclll - c3</title>
    <path
       d="M -4.3,-4.3 H 0 v 8.6 h -4.3 z"
       style="opacity:0.9;fill:#92c5de;stroke:none"
       id="path7121" />
    <path
       d="M 0,-4.3 H 4.3 V 4.3 H 0 Z"
       style="opacity:0.9;fill:#ca0020;stroke:none"
       id="path7123" />
  </g>
  <g
     onclick="paint(this)"
     class="node"
     transform="matrix(2,0,0,2,-20.201065,99.633729)"
     id="g7131">
    <title
       id="title7127">cr - b1</title>
    <path
       d="M -5.5,0 0,5.5 5.5,0 0,-5.5 Z"
       style="opacity:0.9;fill:#000000;stroke:none"
       id="path7129" />
  </g>
  <g
     onclick="paint(this)"
     class="node"
     transform="matrix(2,0,0,2,44.25125,102.27221)"
     id="g8519">
    <title
       id="title8513">cllclll - c3</title>
    <path
       d="M -4.3,-4.3 H 0 v 8.6 h -4.3 z"
       style="opacity:0.9;fill:#92c5de;stroke:none"
       id="path8515" />
    <path
       d="M 0,-4.3 H 4.3 V 4.3 H 0 Z"
       style="opacity:0.9;fill:#ca0020;stroke:none"
       id="path8517" />
  </g>
  <text
     xml:space="preserve"
     style="font-size:14.6667px;line-height:1.25;font-family:sans-serif"
     x="30.598856"
     y="299.46204"
     id="text8523"><tspan
       sodipodi:role="line"
       id="tspan8521"
       x="30.598856"
       y="299.46204">twists:</tspan></text>
  <path
     class="link"
     d="m 28.798937,206.63373 14.999998,15"
     style="fill:none;stroke:#000000;stroke-width:2px"
     id="path8525"
     sodipodi:nodetypes="cc" />
  <path
     class="link"
     d="m 58.798933,206.63373 -14.999998,15"
     style="fill:none;stroke:#000000;stroke-width:2px"
     id="path8531"
     sodipodi:nodetypes="cc" />
  <path
     class="link"
     d="m 28.798937,236.63373 14.999998,-15"
     style="fill:none;stroke:#000000;stroke-width:2px"
     id="path8533"
     sodipodi:nodetypes="cc" />
  <path
     class="link"
     d="m 58.798933,236.63373 -14.999998,-15"
     style="fill:none;stroke:#000000;stroke-width:2px"
     id="path8535"
     sodipodi:nodetypes="cc" />
  <path
     onclick="paint(this)"
     class="node"
     d="m 53.198934,221.63373 a 9.4,9.4 0 0 1 -9.399999,9.4 9.4,9.4 0 0 1 -9.4,-9.4 9.4,9.4 0 0 1 9.4,-9.4 9.4,9.4 0 0 1 9.399999,9.4 z"
     style="opacity:0.9;fill:#f7f7f7;stroke:none;stroke-width:2"
     id="path8529">
    <title
       id="title8527">ctctctctclcttl - d2</title>
  </path>
  <text
     xml:space="preserve"
     style="font-size:14.6667px;line-height:1.25;font-family:sans-serif"
     x="70.126694"
     y="225.82646"
     id="text8539"><tspan
       sodipodi:role="line"
       id="tspan8537"
       x="70.126694"
       y="225.82646">none of the above</tspan></text>
</svg>
