<!--?xml version="1.0" encoding="UTF-8" standalone="no"?-->
<svg id="svg2" version="1.1" width="277.56" height="181.44" pointer-events="all" xmlns="http://www.w3.org/2000/svg" xmlns:svg="http://www.w3.org/2000/svg" xmlns:xlink="http://www.w3.org/1999/xlink">

    <defs>
        <marker id="twist-1" viewBox="-2 -2 4 4" markerWidth="5" markerHeight="5" orient="auto" markerUnits="userSpaceOnUse">
            <path d="M 0,1.6 0,-1.6" fill="#000" stroke="#000" stroke-width="0.7px"></path>
        </marker>
        <marker id="twist-2" viewBox="-2 -2 4 4" markerWidth="5" markerHeight="5" orient="auto" markerUnits="userSpaceOnUse">
            <path d="M -1,1.6 V -1.6 M 1,1.6 1,-1.6" fill="#000" stroke="#000" stroke-width="0.7px"></path>
        </marker>
        <marker id="twist-3" viewBox="-2 -2 4 4" markerWidth="5" markerHeight="5" orient="auto" markerUnits="userSpaceOnUse">
            <path d="M -1.2000000000000002,1.6 V -1.6 M 1.2000000000000002,1.6 1.2000000000000002,-1.6  M 0,1.6 0,-1.6" fill="#000" stroke="#000" stroke-width="0.7px"></path>
        </marker>
    </defs>
    <g id="clones"></g>
    <g id="bdpqLegend" transform="translate(176.39999999999998,0) scale(1.8)">
        <g transform="translate(10,11)">
            <path d="M -3.2,-3.2 H 0 v 6.4 h -3.2 z" style="fill: #0571b0; stroke: none; opacity: 0.85"></path>
            <path d="M 0,-3.2 H 3.2 V 3.2 H 0 Z" style="fill: #0571b0; stroke: none; opacity: 0.85"></path>
        </g>
        <text style="font-size:8px;line-height:1.25;font-family:sans-serif" x="25" y="15">
            <tspan x="22" y="15">ctc</tspan>
        </text>
        <g transform="translate(10,23)">
            <path d="M -4.6,0 0,-4.6 v 4.6 z" style="fill: #ca0020; stroke: none; opacity: 0.85"></path>
            <path d="M 4.6,0 0,-4.6 v 4.6 z" style="fill: #0571b0; stroke: none; opacity: 0.85"></path>
            <path d="m -4.6,0 4.6,4.6 v -4.6 z" style="fill: #f4a582; stroke: none; opacity: 0.85"></path>
            <path d="m 4.6,0 -4.6,4.6 v -4.6 z" style="fill: #92c5de; stroke: none; opacity: 0.85"></path>
        </g>
        <text style="font-size:8px;line-height:1.25;font-family:sans-serif" x="25" y="27">
            <tspan x="22" y="27">crcllrrrc</tspan>
        </text>
        <g transform="translate(10,35)">
            <path d="M 3.8,0 A 3.8,3.8 0 0 1 0,3.8 3.8,3.8 0 0 1 -3.8,0 3.8,3.8 0 0 1 0,-3.8 3.8,3.8 0 0 1 3.8,0 Z" style="fill: #f7f7f7; stroke: none; opacity: 0.85"></path>
        </g>
        <text style="font-size:8px;line-height:1.25;font-family:sans-serif" x="25" y="39">
            <tspan x="22" y="39">ctcctc</tspan>
        </text>
        <g transform="translate(10,47)">
            <path d="M -3.2,-3.2 H 0 v 6.4 h -3.2 z" style="fill: #000000; stroke: none; opacity: 0.85"></path>
            <path d="M 0,-3.2 H 3.2 V 3.2 H 0 Z" style="fill: #000000; stroke: none; opacity: 0.85"></path>
        </g>
        <text style="font-size:8px;line-height:1.25;font-family:sans-serif" x="25" y="51">
            <tspan x="22" y="51">cllcrrcllcrrc</tspan>
        </text>
        <g transform="translate(10,59)">
            <path d="M 3.23,0 A 3.23,3.23 0 0 1 0,3.23 3.23,3.23 0 0 1 -3.23,0 3.23,3.23 0 0 1 0,-3.23 3.23,3.23 0 0 1 3.23,0 Z" style="fill: #000000; stroke: none; opacity: 0.85"></path>
        </g>
        <text style="font-size:8px;line-height:1.25;font-family:sans-serif" x="25" y="63">
            <tspan x="22" y="63">c</tspan>
        </text>
        <g transform="translate(10,71)">
            <path d="M -4.6,0 0,-4.6 v 4.6 z" style="fill: #0571b0; stroke: none; opacity: 0.85"></path>
            <path d="M 4.6,0 0,-4.6 v 4.6 z" style="fill: #ca0020; stroke: none; opacity: 0.85"></path>
            <path d="m -4.6,0 4.6,4.6 v -4.6 z" style="fill: #92c5de; stroke: none; opacity: 0.85"></path>
            <path d="m 4.6,0 -4.6,4.6 v -4.6 z" style="fill: #f4a582; stroke: none; opacity: 0.85"></path>
        </g>
        <text style="font-size:8px;line-height:1.25;font-family:sans-serif" x="25" y="75">
            <tspan x="22" y="75">clcrrlllc</tspan>
        </text>
        <g transform="translate(10,83)">
            <path d="M -3.2,-3.2 H 0 v 6.4 h -3.2 z" style="fill: #000000; stroke: none; opacity: 0.85"></path>
            <path d="M 0,-3.2 H 3.2 V 3.2 H 0 Z" style="fill: #000000; stroke: none; opacity: 0.85"></path>
        </g>
        <text style="font-size:8px;line-height:1.25;font-family:sans-serif" x="25" y="87">
            <tspan x="22" y="87">crrcllcrrcllc</tspan>
        </text>
        <g transform="translate(10,95)">
            <path d="M -4.6,0 0,-4.6 v 4.6 z" style="fill: #f4a582; stroke: none; opacity: 0.85"></path>
            <path d="M 4.6,0 0,-4.6 v 4.6 z" style="fill: #92c5de; stroke: none; opacity: 0.85"></path>
            <path d="m -4.6,0 4.6,4.6 v -4.6 z" style="fill: #ca0020; stroke: none; opacity: 0.85"></path>
            <path d="m 4.6,0 -4.6,4.6 v -4.6 z" style="fill: #0571b0; stroke: none; opacity: 0.85"></path>
        </g>
        <text style="font-size:8px;line-height:1.25;font-family:sans-serif" x="25" y="99">
            <tspan x="22" y="99">crrrllcrc</tspan>
        </text>
        <g transform="translate(10,107)">
            <path d="M -4.6,0 0,-4.6 v 4.6 z" style="fill: #92c5de; stroke: none; opacity: 0.85"></path>
            <path d="M 4.6,0 0,-4.6 v 4.6 z" style="fill: #f4a582; stroke: none; opacity: 0.85"></path>
            <path d="m -4.6,0 4.6,4.6 v -4.6 z" style="fill: #0571b0; stroke: none; opacity: 0.85"></path>
            <path d="m 4.6,0 -4.6,4.6 v -4.6 z" style="fill: #ca0020; stroke: none; opacity: 0.85"></path>
        </g>
        <text style="font-size:8px;line-height:1.25;font-family:sans-serif" x="25" y="111">
            <tspan x="22" y="111">clllrrclc</tspan>
        </text>
    </g>
    <g id="cloned" transform="scale(1.8)">
        <path id="l1748500195685" d="M 61.66666793823242,47.46297073364258 61.633333969116215 54.53148536682129 61.60000000000001,61.60000000000001"
              class="link ends_at_r4c4 kiss_4 starts_at_n1748500195683"
              style="stroke: rgb(0, 0, 0); stroke-width: 5px; fill: none; opacity: 1; stroke-opacity: 0.25; stroke-linejoin: bevel; marker-mid: url(&quot;#twist-1&quot;);"></path>
        <path id="l1748500195685" d="M 61.66666793823242,47.46297073364258 54.63333396911621 47.531485366821286 47.6,47.6" class="link ends_at_r3c3 kiss_3 starts_at_n1748500195683"
              style="stroke: rgb(0, 0, 0); stroke-width: 5px; fill: none; opacity: 1; stroke-opacity: 0.25; stroke-linejoin: bevel; marker-mid: url(&quot;#twist-1&quot;);"></path>
        <path id="r0c0-r2c0" class="link starts_at_r0c0 kiss_0 ends_at_r2c0" d="M 5.6000000000000005,5.6000000000000005 5.6000000000000005 19.6 5.6000000000000005,33.6"
              style="stroke: rgb(0, 0, 0); stroke-width: 5px; fill: none; opacity: 1; stroke-opacity: 0.25; stroke-linejoin: bevel;"></path>
        <path id="r0c2-r2c2" class="link starts_at_r0c2 kiss_1 ends_at_r2c2" d="M 33.6,5.6000000000000005 33.6 19.6 33.6,33.6"
              style="stroke: rgb(0, 0, 0); stroke-width: 5px; fill: none; opacity: 1; stroke-opacity: 0.25; stroke-linejoin: bevel;"></path>
        <path id="r0c2-r1c3" class="link starts_at_r0c2 ends_at_r1c3 kiss_2" d="M 33.6,5.6000000000000005 40.6 12.599999999999998 47.6,19.599999999999998"
              style="stroke: rgb(0, 0, 0); stroke-width: 5px; fill: none; opacity: 1; stroke-opacity: 0.25; stroke-linejoin: bevel;"></path>
        <path id="r0c4-r1c3" class="link starts_at_r0c4 ends_at_r1c3 kiss_3" d="M 61.60000000000001,5.6000000000000005 54.60000000000001 12.599999999999998 47.6,19.599999999999998"
              style="stroke: rgb(0, 0, 0); stroke-width: 5px; fill: none; opacity: 1; stroke-opacity: 0.25; stroke-linejoin: bevel; marker-mid: url(&quot;#twist-3&quot;);"></path>
        <path id="r0c4-r1c5" class="link starts_at_r0c4 ends_at_r1c5 kiss_4" d="M 61.60000000000001,5.6000000000000005 68.60000000000001 12.599999999999998 75.60000000000001,19.599999999999998"
              style="stroke: rgb(0, 0, 0); stroke-width: 5px; fill: none; opacity: 1; stroke-opacity: 0.25; stroke-linejoin: bevel; marker-mid: url(&quot;#twist-2&quot;);"></path>
        <path id="r0c6-r1c5" class="link starts_at_r0c6 ends_at_r1c5 kiss_5" d="M 89.60000000000001,5.6000000000000005 82.60000000000001 12.599999999999998 75.60000000000001,19.599999999999998"
              style="stroke: rgb(0, 0, 0); stroke-width: 5px; fill: none; opacity: 1; stroke-opacity: 0.25; stroke-linejoin: bevel;"></path>
        <path id="r1c3-r2c2" class="link starts_at_r1c3 ends_at_r2c2 kiss_2" d="M 47.6,19.599999999999998 40.6 26.6 33.6,33.6"
              style="stroke: rgb(0, 0, 0); stroke-width: 5px; fill: none; opacity: 1; stroke-opacity: 0.25; stroke-linejoin: bevel;"></path>
        <path id="r1c3-r2c4" class="link starts_at_r1c3 ends_at_r2c4 kiss_3" d="M 47.6,19.599999999999998 54.60000000000001 26.6 61.60000000000001,33.6"
              style="stroke: rgb(0, 0, 0); stroke-width: 5px; fill: none; opacity: 1; stroke-opacity: 0.25; stroke-linejoin: bevel;"></path>
        <path id="r1c5-r2c4" class="link starts_at_r1c5 ends_at_r2c4 kiss_4" d="M 75.60000000000001,19.599999999999998 68.60000000000001 26.6 61.60000000000001,33.6"
              style="stroke: rgb(0, 0, 0); stroke-width: 5px; fill: none; opacity: 1; stroke-opacity: 0.25; stroke-linejoin: bevel;"></path>
        <path id="r1c5-r2c6" class="link starts_at_r1c5 ends_at_r2c6 kiss_5" d="M 75.60000000000001,19.599999999999998 82.60000000000001 26.6 89.60000000000001,33.6"
              style="stroke: rgb(0, 0, 0); stroke-width: 5px; fill: none; opacity: 1; stroke-opacity: 0.25; stroke-linejoin: bevel;"></path>
        <path id="r2c0-r3c1" class="link starts_at_r2c0 ends_at_r3c1 kiss_0" d="M 5.6000000000000005,33.6 12.599999999999998 40.6 19.599999999999998,47.6"
              style="stroke: rgb(0, 0, 0); stroke-width: 5px; fill: none; opacity: 1; stroke-opacity: 0.25; stroke-linejoin: bevel;"></path>
        <path id="r2c2-r3c1" class="link starts_at_r2c2 ends_at_r3c1 kiss_1" d="M 33.6,33.6 26.6 40.6 19.599999999999998,47.6"
              style="stroke: rgb(0, 0, 0); stroke-width: 5px; fill: none; opacity: 1; stroke-opacity: 0.25; stroke-linejoin: bevel;"></path>
        <path id="r2c2-r3c3" class="link starts_at_r2c2 ends_at_r3c3 kiss_2" d="M 33.6,33.6 40.6 40.6 47.6,47.6"
              style="stroke: rgb(0, 0, 0); stroke-width: 5px; fill: none; opacity: 1; stroke-opacity: 0.25; stroke-linejoin: bevel;"></path>
        <path id="l1748500195685" class="link starts_at_r2c4 kiss_3 ends_at_n1748500195683" d="M 61.60000000000001,33.6 61.633333969116215 40.531485366821286 61.66666793823242,47.46297073364258"
              style="stroke: rgb(0, 0, 0); stroke-width: 5px; fill: none; opacity: 1; stroke-opacity: 0.25; stroke-linejoin: bevel; marker-mid: url(&quot;#twist-1&quot;);"></path>
        <path id="r2c4-r3c5" class="link starts_at_r2c4 ends_at_r3c5 kiss_4" d="M 61.60000000000001,33.6 68.60000000000001 40.6 75.60000000000001,47.6"
              style="stroke: rgb(0, 0, 0); stroke-width: 5px; fill: none; opacity: 1; stroke-opacity: 0.25; stroke-linejoin: bevel;"></path>
        <path id="r2c6-r3c5" class="link starts_at_r2c6 ends_at_r3c5 kiss_5" d="M 89.60000000000001,33.6 82.60000000000001 40.6 75.60000000000001,47.6"
              style="stroke: rgb(0, 0, 0); stroke-width: 5px; fill: none; opacity: 1; stroke-opacity: 0.25; stroke-linejoin: bevel;"></path>
        <path id="r3c1-r4c0" class="link starts_at_r3c1 ends_at_r4c0 kiss_0" d="M 19.599999999999998,47.6 12.6 54.60000000000001 5.6000000000000005,61.60000000000001"
              style="stroke: rgb(0, 0, 0); stroke-width: 5px; fill: none; opacity: 1; stroke-opacity: 0.25; stroke-linejoin: bevel;"></path>
        <path id="r3c1-r4c2" class="link starts_at_r3c1 ends_at_r4c2 kiss_1" d="M 19.599999999999998,47.6 26.6 54.60000000000001 33.6,61.60000000000001"
              style="stroke: rgb(0, 0, 0); stroke-width: 5px; fill: none; opacity: 1; stroke-opacity: 0.25; stroke-linejoin: bevel;"></path>
        <path id="r3c3-r4c2" class="link starts_at_r3c3 ends_at_r4c2 kiss_2" d="M 47.6,47.6 40.6 54.60000000000001 33.6,61.60000000000001"
              style="stroke: rgb(0, 0, 0); stroke-width: 5px; fill: none; opacity: 1; stroke-opacity: 0.25; stroke-linejoin: bevel;"></path>
        <path id="r3c3-r4c4" class="link starts_at_r3c3 ends_at_r4c4 kiss_3" d="M 47.6,47.6 54.60000000000001 54.60000000000001 61.60000000000001,61.60000000000001"
              style="stroke: rgb(0, 0, 0); stroke-width: 5px; fill: none; opacity: 1; stroke-opacity: 0.25; stroke-linejoin: bevel;"></path>
        <path id="l1748500195685" class="link starts_at_r3c5 kiss_4 ends_at_n1748500195683" d="M 75.60000000000001,47.6 68.63333396911622 47.531485366821286 61.66666793823242,47.46297073364258"
              style="stroke: rgb(0, 0, 0); stroke-width: 5px; fill: none; opacity: 1; stroke-opacity: 0.25; stroke-linejoin: bevel; marker-mid: url(&quot;#twist-1&quot;);"></path>
        <path id="r3c5-r4c6" class="link starts_at_r3c5 ends_at_r4c6 kiss_5" d="M 75.60000000000001,47.6 82.60000000000001 54.60000000000001 89.60000000000001,61.60000000000001"
              style="stroke: rgb(0, 0, 0); stroke-width: 5px; fill: none; opacity: 1; stroke-opacity: 0.25; stroke-linejoin: bevel;"></path>
        <g id="r0c0" onclick="clickedStitch(event)" class="node" transform="translate(5.6000000000000005,5.6000000000000005)">
            <title>ctc</title>
            <path d="M -3.2,-3.2 H 0 v 6.4 h -3.2 z" style="fill: #0571b0; stroke: none; opacity: 0.85"></path>
            <path d="M 0,-3.2 H 3.2 V 3.2 H 0 Z" style="fill: #0571b0; stroke: none; opacity: 0.85"></path>
        </g>
        <g id="r0c2" onclick="clickedStitch(event)" class="node" transform="translate(33.6,5.6000000000000005)">
            <title>ctc</title>
            <path d="M -3.2,-3.2 H 0 v 6.4 h -3.2 z" style="fill: #0571b0; stroke: none; opacity: 0.85"></path>
            <path d="M 0,-3.2 H 3.2 V 3.2 H 0 Z" style="fill: #0571b0; stroke: none; opacity: 0.85"></path>
        </g>
        <g id="r0c4" onclick="clickedStitch(event)" class="node" transform="translate(61.60000000000001,5.6000000000000005)">
            <title>ctc</title>
            <path d="M -3.2,-3.2 H 0 v 6.4 h -3.2 z" style="fill: #0571b0; stroke: none; opacity: 0.85"></path>
            <path d="M 0,-3.2 H 3.2 V 3.2 H 0 Z" style="fill: #0571b0; stroke: none; opacity: 0.85"></path>
        </g>
        <g id="r0c6" onclick="clickedStitch(event)" class="node" transform="translate(89.60000000000001,5.6000000000000005)">
            <title>ctc</title>
            <path d="M -3.2,-3.2 H 0 v 6.4 h -3.2 z" style="fill: #0571b0; stroke: none; opacity: 0.85"></path>
            <path d="M 0,-3.2 H 3.2 V 3.2 H 0 Z" style="fill: #0571b0; stroke: none; opacity: 0.85"></path>
        </g>
        <g id="r1c3" onclick="clickedStitch(event)" class="node" transform="translate(47.6,19.599999999999998)">
            <title>crcllrrrc</title>
            <path d="M -4.6,0 0,-4.6 v 4.6 z" style="fill: #ca0020; stroke: none; opacity: 0.85"></path>
            <path d="M 4.6,0 0,-4.6 v 4.6 z" style="fill: #0571b0; stroke: none; opacity: 0.85"></path>
            <path d="m -4.6,0 4.6,4.6 v -4.6 z" style="fill: #f4a582; stroke: none; opacity: 0.85"></path>
            <path d="m 4.6,0 -4.6,4.6 v -4.6 z" style="fill: #92c5de; stroke: none; opacity: 0.85"></path>
        </g>
        <g id="r1c5" onclick="clickedStitch(event)" class="node" transform="translate(75.60000000000001,19.599999999999998)">
            <title>ctcctc</title>
            <path d="M 3.8,0 A 3.8,3.8 0 0 1 0,3.8 3.8,3.8 0 0 1 -3.8,0 3.8,3.8 0 0 1 0,-3.8 3.8,3.8 0 0 1 3.8,0 Z" style="fill: #f7f7f7; stroke: none; opacity: 0.85"></path>
        </g>
        <g id="r2c0" onclick="clickedStitch(event)" class="node" transform="translate(5.6000000000000005,33.6)">
            <title>ctc</title>
            <path d="M -3.2,-3.2 H 0 v 6.4 h -3.2 z" style="fill: #0571b0; stroke: none; opacity: 0.85"></path>
            <path d="M 0,-3.2 H 3.2 V 3.2 H 0 Z" style="fill: #0571b0; stroke: none; opacity: 0.85"></path>
        </g>
        <g id="r2c2" onclick="clickedStitch(event)" class="node" transform="translate(33.6,33.6)">
            <title>ctc</title>
            <path d="M -3.2,-3.2 H 0 v 6.4 h -3.2 z" style="fill: #0571b0; stroke: none; opacity: 0.85"></path>
            <path d="M 0,-3.2 H 3.2 V 3.2 H 0 Z" style="fill: #0571b0; stroke: none; opacity: 0.85"></path>
        </g>
        <g id="r2c4" onclick="clickedStitch(event)" class="node" transform="translate(61.60000000000001,33.6)">
            <title>ctc</title>
            <path d="M -3.2,-3.2 H 0 v 6.4 h -3.2 z" style="fill: #0571b0; stroke: none; opacity: 0.85"></path>
            <path d="M 0,-3.2 H 3.2 V 3.2 H 0 Z" style="fill: #0571b0; stroke: none; opacity: 0.85"></path>
        </g>
        <g id="r2c6" onclick="clickedStitch(event)" class="node" transform="translate(89.60000000000001,33.6)">
            <title>ctc</title>
            <path d="M -3.2,-3.2 H 0 v 6.4 h -3.2 z" style="fill: #0571b0; stroke: none; opacity: 0.85"></path>
            <path d="M 0,-3.2 H 3.2 V 3.2 H 0 Z" style="fill: #0571b0; stroke: none; opacity: 0.85"></path>
        </g>
        <g id="r3c1" onclick="clickedStitch(event)" class="node" transform="translate(19.599999999999998,47.6)">
            <title>cllcrrcllcrrc</title>
            <path d="M -3.2,-3.2 H 0 v 6.4 h -3.2 z" style="fill: #000000; stroke: none; opacity: 0.85"></path>
            <path d="M 0,-3.2 H 3.2 V 3.2 H 0 Z" style="fill: #000000; stroke: none; opacity: 0.85"></path>
        </g>
        <g id="r3c3" onclick="clickedStitch(event)" class="node" transform="translate(47.6,47.6)">
            <title>ctc</title>
            <path d="M -3.2,-3.2 H 0 v 6.4 h -3.2 z" style="fill: #0571b0; stroke: none; opacity: 0.85"></path>
            <path d="M 0,-3.2 H 3.2 V 3.2 H 0 Z" style="fill: #0571b0; stroke: none; opacity: 0.85"></path>
        </g>
        <g id="r3c5" onclick="clickedStitch(event)" class="node" transform="translate(75.60000000000001,47.6)">
            <title>ctc</title>
            <path d="M -3.2,-3.2 H 0 v 6.4 h -3.2 z" style="fill: #0571b0; stroke: none; opacity: 0.85"></path>
            <path d="M 0,-3.2 H 3.2 V 3.2 H 0 Z" style="fill: #0571b0; stroke: none; opacity: 0.85"></path>
        </g>
        <g id="r4c0" onclick="clickedStitch(event)" class="node" transform="translate(5.6000000000000005,61.60000000000001)">
            <title>ctc</title>
            <path d="M -3.2,-3.2 H 0 v 6.4 h -3.2 z" style="fill: #0571b0; stroke: none; opacity: 0.85"></path>
            <path d="M 0,-3.2 H 3.2 V 3.2 H 0 Z" style="fill: #0571b0; stroke: none; opacity: 0.85"></path>
        </g>
        <g id="r4c2" onclick="clickedStitch(event)" class="node" transform="translate(33.6,61.60000000000001)">
            <title>ctc</title>
            <path d="M -3.2,-3.2 H 0 v 6.4 h -3.2 z" style="fill: #0571b0; stroke: none; opacity: 0.85"></path>
            <path d="M 0,-3.2 H 3.2 V 3.2 H 0 Z" style="fill: #0571b0; stroke: none; opacity: 0.85"></path>
        </g>
        <g id="r4c4" onclick="clickedStitch(event)" class="node" transform="translate(61.60000000000001,61.60000000000001)">
            <title>ctc</title>
            <path d="M -3.2,-3.2 H 0 v 6.4 h -3.2 z" style="fill: #0571b0; stroke: none; opacity: 0.85"></path>
            <path d="M 0,-3.2 H 3.2 V 3.2 H 0 Z" style="fill: #0571b0; stroke: none; opacity: 0.85"></path>
        </g>
        <g id="r4c6" onclick="clickedStitch(event)" class="node" transform="translate(89.60000000000001,61.60000000000001)">
            <title>ctc</title>
            <path d="M -3.2,-3.2 H 0 v 6.4 h -3.2 z" style="fill: #0571b0; stroke: none; opacity: 0.85"></path>
            <path d="M 0,-3.2 H 3.2 V 3.2 H 0 Z" style="fill: #0571b0; stroke: none; opacity: 0.85"></path>
        </g>
        <g transform="translate(61.66666793823242,47.46297073364258)" onclick="clickedStitch(event)" class="node" id="n1748500195683">
            <title>c</title>
            <path d="M 3.23,0 A 3.23,3.23 0 0 1 0,3.23 3.23,3.23 0 0 1 -3.23,0 3.23,3.23 0 0 1 0,-3.23 3.23,3.23 0 0 1 3.23,0 Z" style="fill: #000000; stroke: none; opacity: 0.85"></path>
        </g>
    </g>
</svg>