<!--?xml version="1.0" encoding="UTF-8" standalone="no"?-->
<svg id="svg2" version="1.1" width="277.56" height="181.44" pointer-events="all" xmlns="http://www.w3.org/2000/svg" xmlns:svg="http://www.w3.org/2000/svg" xmlns:xlink="http://www.w3.org/1999/xlink">

    <defs>
        <marker id="twist-1" viewBox="-2 -2 4 4" markerWidth="5" markerHeight="5" orient="auto" markerUnits="userSpaceOnUse">
            <path d="M 0,1.6 0,-1.6" fill="#000" stroke="#000" stroke-width="0.7px"></path>
        </marker>
        <marker id="twist-2" viewBox="-2 -2 4 4" markerWidth="5" markerHeight="5" orient="auto" markerUnits="userSpaceOnUse">
            <path d="M -1,1.6 V -1.6 M 1,1.6 1,-1.6" fill="#000" stroke="#000" stroke-width="0.7px"></path>
        </marker>
        <marker id="twist-3" viewBox="-2 -2 4 4" markerWidth="5" markerHeight="5" orient="auto" markerUnits="userSpaceOnUse">
            <path d="M -1.2000000000000002,1.6 V -1.6 M 1.2000000000000002,1.6 1.2000000000000002,-1.6  M 0,1.6 0,-1.6" fill="#000" stroke="#000" stroke-width="0.7px"></path>
        </marker>
    </defs>
    <g id="clones"></g>
    <g id="bdpqLegend" transform="translate(176.39999999999998,0) scale(1.8)"><g transform="translate(10,11)"><path d="M -3.2,-3.2 H 0 v 6.4 h -3.2 z" style="fill: #0571b0; stroke: none; opacity: 0.85"></path><path d="M 0,-3.2 H 3.2 V 3.2 H 0 Z" style="fill: #0571b0; stroke: none; opacity: 0.85"></path></g><text style="font-size:8px;line-height:1.25;font-family:sans-serif" x="25" y="15"><tspan x="22" y="15">ctc</tspan></text><g transform="translate(10,23)"><path d="M -4.6,0 0,-4.6 v 4.6 z" style="fill: #ca0020; stroke: none; opacity: 0.85"></path><path d="M 4.6,0 0,-4.6 v 4.6 z" style="fill: #0571b0; stroke: none; opacity: 0.85"></path><path d="m -4.6,0 4.6,4.6 v -4.6 z" style="fill: #f4a582; stroke: none; opacity: 0.85"></path><path d="m 4.6,0 -4.6,4.6 v -4.6 z" style="fill: #92c5de; stroke: none; opacity: 0.85"></path></g><text style="font-size:8px;line-height:1.25;font-family:sans-serif" x="25" y="27"><tspan x="22" y="27">crcllrrrc</tspan></text><g transform="translate(10,35)"><path d="M 3.8,0 A 3.8,3.8 0 0 1 0,3.8 3.8,3.8 0 0 1 -3.8,0 3.8,3.8 0 0 1 0,-3.8 3.8,3.8 0 0 1 3.8,0 Z" style="fill: #f7f7f7; stroke: none; opacity: 0.85"></path></g><text style="font-size:8px;line-height:1.25;font-family:sans-serif" x="25" y="39"><tspan x="22" y="39">ctcctc</tspan></text><g transform="translate(10,47)"><path d="M -4.6,0 0,-4.6 v 4.6 z" style="fill: #ca0020; stroke: none; opacity: 0.85"></path><path d="M 4.6,0 0,-4.6 v 4.6 z" style="fill: #0571b0; stroke: none; opacity: 0.85"></path><path d="m -4.6,0 4.6,4.6 v -4.6 z" style="fill: #f4a582; stroke: none; opacity: 0.85"></path><path d="m 4.6,0 -4.6,4.6 v -4.6 z" style="fill: #92c5de; stroke: none; opacity: 0.85"></path></g><text style="font-size:8px;line-height:1.25;font-family:sans-serif" x="25" y="51"><tspan x="22" y="51">crcttrc</tspan></text><g transform="translate(10,59)"><path d="M -3.2,-3.2 H 0 v 6.4 h -3.2 z" style="fill: #000000; stroke: none; opacity: 0.85"></path><path d="M 0,-3.2 H 3.2 V 3.2 H 0 Z" style="fill: #000000; stroke: none; opacity: 0.85"></path></g><text style="font-size:8px;line-height:1.25;font-family:sans-serif" x="25" y="63"><tspan x="22" y="63">cllcrrcllcrrc</tspan></text><g transform="translate(10,71)"><path d="M 3.23,0 A 3.23,3.23 0 0 1 0,3.23 3.23,3.23 0 0 1 -3.23,0 3.23,3.23 0 0 1 0,-3.23 3.23,3.23 0 0 1 3.23,0 Z" style="fill: #000000; stroke: none; opacity: 0.85"></path></g><text style="font-size:8px;line-height:1.25;font-family:sans-serif" x="25" y="75"><tspan x="22" y="75">c</tspan></text><g transform="translate(10,83)"><path d="M -4.6,0 0,-4.6 v 4.6 z" style="fill: #0571b0; stroke: none; opacity: 0.85"></path><path d="M 4.6,0 0,-4.6 v 4.6 z" style="fill: #ca0020; stroke: none; opacity: 0.85"></path><path d="m -4.6,0 4.6,4.6 v -4.6 z" style="fill: #92c5de; stroke: none; opacity: 0.85"></path><path d="m 4.6,0 -4.6,4.6 v -4.6 z" style="fill: #f4a582; stroke: none; opacity: 0.85"></path></g><text style="font-size:8px;line-height:1.25;font-family:sans-serif" x="25" y="87"><tspan x="22" y="87">clcrrlllc</tspan></text><g transform="translate(10,95)"><path d="M -4.6,0 0,-4.6 v 4.6 z" style="fill: #0571b0; stroke: none; opacity: 0.85"></path><path d="M 4.6,0 0,-4.6 v 4.6 z" style="fill: #ca0020; stroke: none; opacity: 0.85"></path><path d="m -4.6,0 4.6,4.6 v -4.6 z" style="fill: #92c5de; stroke: none; opacity: 0.85"></path><path d="m 4.6,0 -4.6,4.6 v -4.6 z" style="fill: #f4a582; stroke: none; opacity: 0.85"></path></g><text style="font-size:8px;line-height:1.25;font-family:sans-serif" x="25" y="99"><tspan x="22" y="99">clcttlc</tspan></text><g transform="translate(10,107)"><path d="M -3.2,-3.2 H 0 v 6.4 h -3.2 z" style="fill: #000000; stroke: none; opacity: 0.85"></path><path d="M 0,-3.2 H 3.2 V 3.2 H 0 Z" style="fill: #000000; stroke: none; opacity: 0.85"></path></g><text style="font-size:8px;line-height:1.25;font-family:sans-serif" x="25" y="111"><tspan x="22" y="111">crrcllcrrcllc</tspan></text><g transform="translate(10,119)"><path d="M -4.6,0 0,-4.6 v 4.6 z" style="fill: #f4a582; stroke: none; opacity: 0.85"></path><path d="M 4.6,0 0,-4.6 v 4.6 z" style="fill: #92c5de; stroke: none; opacity: 0.85"></path><path d="m -4.6,0 4.6,4.6 v -4.6 z" style="fill: #ca0020; stroke: none; opacity: 0.85"></path><path d="m 4.6,0 -4.6,4.6 v -4.6 z" style="fill: #0571b0; stroke: none; opacity: 0.85"></path></g><text style="font-size:8px;line-height:1.25;font-family:sans-serif" x="25" y="123"><tspan x="22" y="123">crrrllcrc</tspan></text><g transform="translate(10,131)"><path d="M -4.6,0 0,-4.6 v 4.6 z" style="fill: #f4a582; stroke: none; opacity: 0.85"></path><path d="M 4.6,0 0,-4.6 v 4.6 z" style="fill: #92c5de; stroke: none; opacity: 0.85"></path><path d="m -4.6,0 4.6,4.6 v -4.6 z" style="fill: #ca0020; stroke: none; opacity: 0.85"></path><path d="m 4.6,0 -4.6,4.6 v -4.6 z" style="fill: #0571b0; stroke: none; opacity: 0.85"></path></g><text style="font-size:8px;line-height:1.25;font-family:sans-serif" x="25" y="135"><tspan x="22" y="135">crttcrc</tspan></text><g transform="translate(10,143)"><path d="M -4.6,0 0,-4.6 v 4.6 z" style="fill: #92c5de; stroke: none; opacity: 0.85"></path><path d="M 4.6,0 0,-4.6 v 4.6 z" style="fill: #f4a582; stroke: none; opacity: 0.85"></path><path d="m -4.6,0 4.6,4.6 v -4.6 z" style="fill: #0571b0; stroke: none; opacity: 0.85"></path><path d="m 4.6,0 -4.6,4.6 v -4.6 z" style="fill: #ca0020; stroke: none; opacity: 0.85"></path></g><text style="font-size:8px;line-height:1.25;font-family:sans-serif" x="25" y="147"><tspan x="22" y="147">clllrrclc</tspan></text><g transform="translate(10,155)"><path d="M -4.6,0 0,-4.6 v 4.6 z" style="fill: #92c5de; stroke: none; opacity: 0.85"></path><path d="M 4.6,0 0,-4.6 v 4.6 z" style="fill: #f4a582; stroke: none; opacity: 0.85"></path><path d="m -4.6,0 4.6,4.6 v -4.6 z" style="fill: #0571b0; stroke: none; opacity: 0.85"></path><path d="m 4.6,0 -4.6,4.6 v -4.6 z" style="fill: #ca0020; stroke: none; opacity: 0.85"></path></g><text style="font-size:8px;line-height:1.25;font-family:sans-serif" x="25" y="159"><tspan x="22" y="159">clttclc</tspan></text></g>
    <g id="cloned" transform="scale(1.8)">
        <path id="l1748602578396" d="M 61.111114501953125,47.833343505859375 61.35555725097657 54.71667175292969 61.60000000000001,61.60000000000001" class="link kiss_4 ends_at_r4c4 starts_at_n1748602578395" style="stroke: rgb(0, 0, 0); stroke-width: 5px; fill: none; opacity: 1; stroke-opacity: 0.25; stroke-linejoin: bevel;"></path>
        <path id="l1748602578396" d="M 61.111114501953125,47.833343505859375 54.35555725097656 47.716671752929685 47.6,47.6" class="link kiss_3 ends_at_r3c3 starts_at_n1748602578395" style="stroke: rgb(0, 0, 0); stroke-width: 5px; fill: none; opacity: 1; stroke-opacity: 0.25; stroke-linejoin: bevel;"></path>
        <path id="l1748602578396" d="M 73.8888931274414,47.19447326660156 67.50000381469727 47.51390838623047 61.111114501953125,47.833343505859375" class="link kiss_4 starts_at_n1748602427781 ends_at_n1748602578395" style="stroke: rgb(0, 0, 0); stroke-width: 5px; fill: none; opacity: 1; stroke-opacity: 0.25; stroke-linejoin: bevel;"></path>
        <path id="l1748602427786" d="M 73.8888931274414,47.19447326660156 81.74444656372071 40.39723663330078 89.60000000000001,33.6" class="link ends_at_r2c6 kiss_5 starts_at_n1748602427781" style="stroke: rgb(0, 0, 0); stroke-width: 5px; fill: none; opacity: 1; stroke-opacity: 0.25; stroke-linejoin: bevel;"></path>


        <path id="r0c0-r2c0" class="link starts_at_r0c0 kiss_0 ends_at_r2c0" d="M 5.6000000000000005,5.6000000000000005 5.6000000000000005 19.6 5.6000000000000005,33.6" style="stroke: rgb(0, 0, 0); stroke-width: 5px; fill: none; opacity: 1; stroke-opacity: 0.25; stroke-linejoin: bevel; marker-mid: url(&quot;#twist-1&quot;);"></path>
        <path id="r0c2-r2c2" class="link starts_at_r0c2 kiss_1 ends_at_r2c2" d="M 33.6,5.6000000000000005 33.6 19.6 33.6,33.6" style="stroke: rgb(0, 0, 0); stroke-width: 5px; fill: none; opacity: 1; stroke-opacity: 0.25; stroke-linejoin: bevel;"></path>
        <path id="r0c2-r1c3" class="link starts_at_r0c2 ends_at_r1c3 kiss_2" d="M 33.6,5.6000000000000005 40.6 12.599999999999998 47.6,19.599999999999998" style="stroke: rgb(0, 0, 0); stroke-width: 5px; fill: none; opacity: 1; stroke-opacity: 0.25; stroke-linejoin: bevel;"></path>
        <path id="r0c4-r1c3" class="link starts_at_r0c4 ends_at_r1c3 kiss_3" d="M 61.60000000000001,5.6000000000000005 54.60000000000001 12.599999999999998 47.6,19.599999999999998" style="stroke: rgb(0, 0, 0); stroke-width: 5px; fill: none; opacity: 1; stroke-opacity: 0.25; stroke-linejoin: bevel; marker-mid: url(&quot;#twist-3&quot;);"></path>
        <path id="r0c4-r1c5" class="link starts_at_r0c4 ends_at_r1c5 kiss_4" d="M 61.60000000000001,5.6000000000000005 68.60000000000001 12.599999999999998 75.60000000000001,19.599999999999998" style="stroke: rgb(0, 0, 0); stroke-width: 5px; fill: none; opacity: 1; stroke-opacity: 0.25; stroke-linejoin: bevel; marker-mid: url(&quot;#twist-2&quot;);"></path>
        <path id="r0c6-r1c5" class="link starts_at_r0c6 ends_at_r1c5 kiss_5" d="M 89.60000000000001,5.6000000000000005 82.60000000000001 12.599999999999998 75.60000000000001,19.599999999999998" style="stroke: rgb(0, 0, 0); stroke-width: 5px; fill: none; opacity: 1; stroke-opacity: 0.25; stroke-linejoin: bevel;"></path>
        <path id="r1c3-r2c2" class="link starts_at_r1c3 ends_at_r2c2 kiss_2" d="M 47.6,19.599999999999998 40.6 26.6 33.6,33.6" style="stroke: rgb(0, 0, 0); stroke-width: 5px; fill: none; opacity: 1; stroke-opacity: 0.25; stroke-linejoin: bevel;"></path>
        <path id="r1c3-r2c4" class="link starts_at_r1c3 ends_at_r2c4 kiss_3" d="M 47.6,19.599999999999998 54.60000000000001 26.6 61.60000000000001,33.6" style="stroke: rgb(0, 0, 0); stroke-width: 5px; fill: none; opacity: 1; stroke-opacity: 0.25; stroke-linejoin: bevel;"></path>
        <path id="r1c5-r2c4" class="link starts_at_r1c5 ends_at_r2c4 kiss_4" d="M 75.60000000000001,19.599999999999998 68.60000000000001 26.6 61.60000000000001,33.6" style="stroke: rgb(0, 0, 0); stroke-width: 5px; fill: none; opacity: 1; stroke-opacity: 0.25; stroke-linejoin: bevel;"></path>
        <path id="l1748602427786" class="link starts_at_r1c5 kiss_5 ends_at_n1748602427781" d="M 75.60000000000001,19.599999999999998 74.74444656372071 33.39723663330078 73.8888931274414,47.19447326660156" style="stroke: rgb(0, 0, 0); stroke-width: 5px; fill: none; opacity: 1; stroke-opacity: 0.25; stroke-linejoin: bevel;"></path>
        <path id="r2c0-r3c1" class="link starts_at_r2c0 ends_at_r3c1 kiss_0" d="M 5.6000000000000005,33.6 12.599999999999998 40.6 19.599999999999998,47.6" style="stroke: rgb(0, 0, 0); stroke-width: 5px; fill: none; opacity: 1; stroke-opacity: 0.25; stroke-linejoin: bevel;"></path>
        <path id="r2c2-r3c1" class="link starts_at_r2c2 ends_at_r3c1 kiss_1" d="M 33.6,33.6 26.6 40.6 19.599999999999998,47.6" style="stroke: rgb(0, 0, 0); stroke-width: 5px; fill: none; opacity: 1; stroke-opacity: 0.25; stroke-linejoin: bevel;"></path>
        <path id="r2c2-r3c3" class="link starts_at_r2c2 ends_at_r3c3 kiss_2" d="M 33.6,33.6 40.6 40.6 47.6,47.6" style="stroke: rgb(0, 0, 0); stroke-width: 5px; fill: none; opacity: 1; stroke-opacity: 0.25; stroke-linejoin: bevel;"></path>
        <path id="l1748602578396" class="link starts_at_r2c4 kiss_3 ends_at_n1748602578395" d="M 61.60000000000001,33.6 61.35555725097657 40.716671752929685 61.111114501953125,47.833343505859375" style="stroke: rgb(0, 0, 0); stroke-width: 5px; fill: none; opacity: 1; stroke-opacity: 0.25; stroke-linejoin: bevel;"></path>
        <path id="l1748602572466" class="link starts_at_r2c4 kiss_4 ends_at_n1748602427781" d="M 61.60000000000001,33.6 67.74444656372071 40.39723663330078 73.8888931274414,47.19447326660156" style="stroke: rgb(0, 0, 0); stroke-width: 5px; fill: none; opacity: 1; stroke-opacity: 0.25; stroke-linejoin: bevel;"></path>
        <path id="r2c6-r4c6" class="link starts_at_r2c6 kiss_5 ends_at_r4c6" d="M 89.60000000000001,33.6 89.60000000000001 47.60000000000001 89.60000000000001,61.60000000000001" style="stroke: rgb(0, 0, 0); stroke-width: 5px; fill: none; opacity: 1; stroke-opacity: 0.25; stroke-linejoin: bevel; marker-mid: url(&quot;#twist-1&quot;);"></path>
        <path id="r3c1-r4c0" class="link starts_at_r3c1 ends_at_r4c0 kiss_0" d="M 19.599999999999998,47.6 12.6 54.60000000000001 5.6000000000000005,61.60000000000001" style="stroke: rgb(0, 0, 0); stroke-width: 5px; fill: none; opacity: 1; stroke-opacity: 0.25; stroke-linejoin: bevel;"></path>
        <path id="r3c1-r4c2" class="link starts_at_r3c1 ends_at_r4c2 kiss_1" d="M 19.599999999999998,47.6 26.6 54.60000000000001 33.6,61.60000000000001" style="stroke: rgb(0, 0, 0); stroke-width: 5px; fill: none; opacity: 1; stroke-opacity: 0.25; stroke-linejoin: bevel;"></path>
        <path id="r3c3-r4c2" class="link starts_at_r3c3 ends_at_r4c2 kiss_2" d="M 47.6,47.6 40.6 54.60000000000001 33.6,61.60000000000001" style="stroke: rgb(0, 0, 0); stroke-width: 5px; fill: none; opacity: 1; stroke-opacity: 0.25; stroke-linejoin: bevel;"></path>
        <path id="r3c3-r4c4" class="link starts_at_r3c3 ends_at_r4c4 kiss_3" d="M 47.6,47.6 54.60000000000001 54.60000000000001 61.60000000000001,61.60000000000001" style="stroke: rgb(0, 0, 0); stroke-width: 5px; fill: none; opacity: 1; stroke-opacity: 0.25; stroke-linejoin: bevel;"></path>


        <g id="r0c0" onclick="clickedStitch(event)" class="node" transform="translate(5.6000000000000005,5.6000000000000005)">
            <title>ctc</title>
            <path d="M -3.2,-3.2 H 0 v 6.4 h -3.2 z" style="fill: #0571b0; stroke: none; opacity: 0.85"></path>
            <path d="M 0,-3.2 H 3.2 V 3.2 H 0 Z" style="fill: #0571b0; stroke: none; opacity: 0.85"></path>
        </g>
        <g id="r0c2" onclick="clickedStitch(event)" class="node" transform="translate(33.6,5.6000000000000005)">
            <title>ctc</title>
            <path d="M -3.2,-3.2 H 0 v 6.4 h -3.2 z" style="fill: #0571b0; stroke: none; opacity: 0.85"></path>
            <path d="M 0,-3.2 H 3.2 V 3.2 H 0 Z" style="fill: #0571b0; stroke: none; opacity: 0.85"></path>
        </g>
        <g id="r0c4" onclick="clickedStitch(event)" class="node" transform="translate(61.60000000000001,5.6000000000000005)">
            <title>ctc</title>
            <path d="M -3.2,-3.2 H 0 v 6.4 h -3.2 z" style="fill: #0571b0; stroke: none; opacity: 0.85"></path>
            <path d="M 0,-3.2 H 3.2 V 3.2 H 0 Z" style="fill: #0571b0; stroke: none; opacity: 0.85"></path>
        </g>
        <g id="r0c6" onclick="clickedStitch(event)" class="node" transform="translate(89.60000000000001,5.6000000000000005)">
            <title>ctc</title>
            <path d="M -3.2,-3.2 H 0 v 6.4 h -3.2 z" style="fill: #0571b0; stroke: none; opacity: 0.85"></path>
            <path d="M 0,-3.2 H 3.2 V 3.2 H 0 Z" style="fill: #0571b0; stroke: none; opacity: 0.85"></path>
        </g>
        <g id="r1c3" onclick="clickedStitch(event)" class="node" transform="translate(47.6,19.599999999999998)">
            <title>crcllrrrc</title>
            <path d="M -4.6,0 0,-4.6 v 4.6 z" style="fill: #ca0020; stroke: none; opacity: 0.85"></path>
            <path d="M 4.6,0 0,-4.6 v 4.6 z" style="fill: #0571b0; stroke: none; opacity: 0.85"></path>
            <path d="m -4.6,0 4.6,4.6 v -4.6 z" style="fill: #f4a582; stroke: none; opacity: 0.85"></path>
            <path d="m 4.6,0 -4.6,4.6 v -4.6 z" style="fill: #92c5de; stroke: none; opacity: 0.85"></path>
        </g>
        <g id="r1c5" onclick="clickedStitch(event)" class="node" transform="translate(75.60000000000001,19.599999999999998)">
            <title>ctcctc</title>
            <path d="M 3.8,0 A 3.8,3.8 0 0 1 0,3.8 3.8,3.8 0 0 1 -3.8,0 3.8,3.8 0 0 1 0,-3.8 3.8,3.8 0 0 1 3.8,0 Z" style="fill: #f7f7f7; stroke: none; opacity: 0.85"></path>
        </g>
        <g id="r2c0" onclick="clickedStitch(event)" class="node" transform="translate(5.6000000000000005,33.6)">
            <title>ctc</title>
            <path d="M -3.2,-3.2 H 0 v 6.4 h -3.2 z" style="fill: #0571b0; stroke: none; opacity: 0.85"></path>
            <path d="M 0,-3.2 H 3.2 V 3.2 H 0 Z" style="fill: #0571b0; stroke: none; opacity: 0.85"></path>
        </g>
        <g id="r2c2" onclick="clickedStitch(event)" class="node" transform="translate(33.6,33.6)"><title>crcttrc</title><path d="M -4.6,0 0,-4.6 v 4.6 z" style="fill: #ca0020; stroke: none; opacity: 0.85"></path><path d="M 4.6,0 0,-4.6 v 4.6 z" style="fill: #0571b0; stroke: none; opacity: 0.85"></path><path d="m -4.6,0 4.6,4.6 v -4.6 z" style="fill: #f4a582; stroke: none; opacity: 0.85"></path><path d="m 4.6,0 -4.6,4.6 v -4.6 z" style="fill: #92c5de; stroke: none; opacity: 0.85"></path></g>
        <g id="r2c4" onclick="clickedStitch(event)" class="node" transform="translate(61.60000000000001,33.6)">
            <title>ctc</title>
            <path d="M -3.2,-3.2 H 0 v 6.4 h -3.2 z" style="fill: #0571b0; stroke: none; opacity: 0.85"></path>
            <path d="M 0,-3.2 H 3.2 V 3.2 H 0 Z" style="fill: #0571b0; stroke: none; opacity: 0.85"></path>
        </g>
        <g id="r2c6" onclick="clickedStitch(event)" class="node" transform="translate(89.60000000000001,33.6)">
            <title>ctc</title>
            <path d="M -3.2,-3.2 H 0 v 6.4 h -3.2 z" style="fill: #0571b0; stroke: none; opacity: 0.85"></path>
            <path d="M 0,-3.2 H 3.2 V 3.2 H 0 Z" style="fill: #0571b0; stroke: none; opacity: 0.85"></path>
        </g>
        <g id="r3c1" onclick="clickedStitch(event)" class="node" transform="translate(19.599999999999998,47.6)">
            <title>cllcrrcllcrrc</title>
            <path d="M -3.2,-3.2 H 0 v 6.4 h -3.2 z" style="fill: #000000; stroke: none; opacity: 0.85"></path>
            <path d="M 0,-3.2 H 3.2 V 3.2 H 0 Z" style="fill: #000000; stroke: none; opacity: 0.85"></path>
        </g>
        <g id="r3c3" onclick="clickedStitch(event)" class="node" transform="translate(47.6,47.6)">
            <title>ctc</title>
            <path d="M -3.2,-3.2 H 0 v 6.4 h -3.2 z" style="fill: #0571b0; stroke: none; opacity: 0.85"></path>
            <path d="M 0,-3.2 H 3.2 V 3.2 H 0 Z" style="fill: #0571b0; stroke: none; opacity: 0.85"></path>
        </g>

        <g id="r4c0" onclick="clickedStitch(event)" class="node" transform="translate(5.6000000000000005,61.60000000000001)">
            <title>ctc</title>
            <path d="M -3.2,-3.2 H 0 v 6.4 h -3.2 z" style="fill: #0571b0; stroke: none; opacity: 0.85"></path>
            <path d="M 0,-3.2 H 3.2 V 3.2 H 0 Z" style="fill: #0571b0; stroke: none; opacity: 0.85"></path>
        </g>
        <g id="r4c2" onclick="clickedStitch(event)" class="node" transform="translate(33.6,61.60000000000001)">
            <title>ctc</title>
            <path d="M -3.2,-3.2 H 0 v 6.4 h -3.2 z" style="fill: #0571b0; stroke: none; opacity: 0.85"></path>
            <path d="M 0,-3.2 H 3.2 V 3.2 H 0 Z" style="fill: #0571b0; stroke: none; opacity: 0.85"></path>
        </g>
        <g id="r4c4" onclick="clickedStitch(event)" class="node" transform="translate(61.60000000000001,61.60000000000001)">
            <title>ctc</title>
            <path d="M -3.2,-3.2 H 0 v 6.4 h -3.2 z" style="fill: #0571b0; stroke: none; opacity: 0.85"></path>
            <path d="M 0,-3.2 H 3.2 V 3.2 H 0 Z" style="fill: #0571b0; stroke: none; opacity: 0.85"></path>
        </g>
        <g id="r4c6" onclick="clickedStitch(event)" class="node" transform="translate(89.60000000000001,61.60000000000001)">
            <title>ctc</title>
            <path d="M -3.2,-3.2 H 0 v 6.4 h -3.2 z" style="fill: #0571b0; stroke: none; opacity: 0.85"></path>
            <path d="M 0,-3.2 H 3.2 V 3.2 H 0 Z" style="fill: #0571b0; stroke: none; opacity: 0.85"></path>
        </g>

        <g transform="translate(73.8888931274414,47.19447326660156)" onclick="clickedStitch(event)" class="node" id="n1748602427781">
            <path d="M -3.2,-3.2 H 0 v 6.4 h -3.2 z" style="fill: #0571b0; stroke: none; opacity: 0.85"></path>
            <path d="M 0,-3.2 H 3.2 V 3.2 H 0 Z" style="fill: #0571b0; stroke: none; opacity: 0.85"></path>
        </g>
        <g transform="translate(61.111114501953125,47.833343505859375)" onclick="clickedStitch(event)" class="node" id="n1748602578395">
            <title>c</title>
            <path d="M 3.23,0 A 3.23,3.23 0 0 1 0,3.23 3.23,3.23 0 0 1 -3.23,0 3.23,3.23 0 0 1 0,-3.23 3.23,3.23 0 0 1 3.23,0 Z" style="fill: #000000; stroke: none; opacity: 0.85"></path>
        </g>
    </g>
</svg>