<?xml version="1.0" encoding="UTF-8" standalone="no"?>
<!-- Created with Inkscape (http://www.inkscape.org/) -->

<svg
   width="112.30971mm"
   height="111.81994mm"
   viewBox="0 0 112.30971 111.81994"
   version="1.1"
   id="svg7245"
   inkscape:version="1.1.2 (0a00cf5339, 2022-02-04)"
   sodipodi:docname="init-kissing.svg"
   xmlns:inkscape="http://www.inkscape.org/namespaces/inkscape"
   xmlns:sodipodi="http://sodipodi.sourceforge.net/DTD/sodipodi-0.dtd"
   xmlns="http://www.w3.org/2000/svg"
   xmlns:svg="http://www.w3.org/2000/svg">
  <sodipodi:namedview
     id="namedview7247"
     pagecolor="#ffffff"
     bordercolor="#000000"
     borderopacity="0.25"
     inkscape:pageshadow="2"
     inkscape:pageopacity="0.0"
     inkscape:pagecheckerboard="0"
     inkscape:document-units="mm"
     showgrid="false"
     fit-margin-top="0"
     fit-margin-left="0"
     fit-margin-right="0"
     fit-margin-bottom="0"
     showguides="true"
     inkscape:guide-bbox="true"
     inkscape:zoom="2.8015278"
     inkscape:cx="212.20564"
     inkscape:cy="211.31327"
     inkscape:window-width="2256"
     inkscape:window-height="1435"
     inkscape:window-x="0"
     inkscape:window-y="41"
     inkscape:window-maximized="1"
     inkscape:current-layer="layer1" />
  <defs
     id="defs7242">
    <marker
       style="overflow:visible;"
       id="Arrow2Mend"
       refX="0.0"
       refY="0.0"
       orient="auto"
       inkscape:stockid="Arrow2Mend"
       inkscape:isstock="true">
      <path
         transform="scale(0.6) rotate(180) translate(0,0)"
         d="M 8.7185878,4.0337352 L -2.2072895,0.016013256 L 8.7185884,-4.0017078 C 6.9730900,-1.6296469 6.9831476,1.6157441 8.7185878,4.0337352 z "
         style="stroke:context-stroke;fill-rule:evenodd;fill:context-stroke;stroke-width:0.62500000;stroke-linejoin:round;"
         id="path10488" />
    </marker>
    <marker
       style="overflow:visible;"
       id="Arrow1Mend"
       refX="0.0"
       refY="0.0"
       orient="auto"
       inkscape:stockid="Arrow1Mend"
       inkscape:isstock="true">
      <path
         transform="scale(0.4) rotate(180) translate(10,0)"
         style="fill-rule:evenodd;fill:context-stroke;stroke:context-stroke;stroke-width:1.0pt;"
         d="M 0.0,0.0 L 5.0,-5.0 L -12.5,0.0 L 5.0,5.0 L 0.0,0.0 z "
         id="path10470" />
    </marker>
    <marker
       style="overflow:visible"
       id="Arrow2Mstart"
       refX="0.0"
       refY="0.0"
       orient="auto"
       inkscape:stockid="Arrow2Mstart"
       inkscape:isstock="true">
      <path
         transform="scale(0.6) translate(0,0)"
         d="M 8.7185878,4.0337352 L -2.2072895,0.016013256 L 8.7185884,-4.0017078 C 6.9730900,-1.6296469 6.9831476,1.6157441 8.7185878,4.0337352 z "
         style="stroke:context-stroke;fill-rule:evenodd;fill:context-stroke;stroke-width:0.62500000;stroke-linejoin:round"
         id="path10485" />
    </marker>
    <marker
       style="overflow:visible;"
       id="Arrow2Send"
       refX="0.0"
       refY="0.0"
       orient="auto"
       inkscape:stockid="Arrow2Send"
       inkscape:isstock="true">
      <path
         transform="scale(0.3) rotate(180) translate(-2.3,0)"
         d="M 8.7185878,4.0337352 L -2.2072895,0.016013256 L 8.7185884,-4.0017078 C 6.9730900,-1.6296469 6.9831476,1.6157441 8.7185878,4.0337352 z "
         style="stroke:context-stroke;fill-rule:evenodd;fill:context-stroke;stroke-width:0.62500000;stroke-linejoin:round;"
         id="path10494" />
    </marker>
    <marker
       style="overflow:visible"
       id="Arrow1Sstart"
       refX="0.0"
       refY="0.0"
       orient="auto"
       inkscape:stockid="Arrow1Sstart"
       inkscape:isstock="true">
      <path
         transform="scale(0.2) translate(6,0)"
         style="fill-rule:evenodd;fill:context-stroke;stroke:context-stroke;stroke-width:1.0pt"
         d="M 0.0,0.0 L 5.0,-5.0 L -12.5,0.0 L 5.0,5.0 L 0.0,0.0 z "
         id="path10473" />
    </marker>
  </defs>
  <g
     inkscape:label="Layer 1"
     inkscape:groupmode="layer"
     id="layer1"
     transform="translate(-191.68337,-80.810392)">
    <path
       id="rect3899"
       style="opacity:0.5;fill:#ffffff;stroke:#aad400;stroke-width:4.23001;stroke-linecap:square"
       d="m 203.91378,136.24495 c 13.27963,-17.40959 26.55925,-34.81918 39.8389,-52.22875 l 5e-5,5e-5 5e-5,5e-5 v 5e-5 l 5e-5,5e-5 57.20295,53.8223 -5e-5,5e-5 -5e-5,5e-5 -5e-5,5e-5 -5e-5,5e-5 c -35.66334,17.40964 -71.32675,34.81914 -106.9901,52.22875 l -5e-5,-5e-5 -5e-5,-5e-5 -5e-5,-5e-5 -5e-5,-5e-5 9.94835,-53.8223 5e-5,-5e-5 v -5e-5 l 5e-5,-5e-5 z"
       sodipodi:nodetypes="ccccccccccccccccccccc" />
    <path
       style="opacity:0.99;fill:none;stroke:#0000ff;stroke-width:1;stroke-linecap:square;stroke-miterlimit:4;stroke-dasharray:none"
       d="m 203.91363,136.24515 -2.48705,13.4556 -2.487,13.45565 -2.48705,13.4556 -2.48705,13.45565"
       id="path7447"
       sodipodi:nodetypes="ccccc" />
    <path
       style="opacity:0.99;fill:none;stroke:#0000ff;stroke-width:1;stroke-linecap:square;stroke-miterlimit:4;stroke-dasharray:none"
       d="m 243.75268,84.0162 14.30075,13.4557 14.3007,13.45565 14.30075,13.45565 14.3007,13.4557"
       id="path7455"
       sodipodi:nodetypes="ccccc" />
    <path
       style="opacity:0.99;fill:none;stroke:#0000ff;stroke-width:1;stroke-linecap:square;stroke-miterlimit:4;stroke-dasharray:none"
       d="m 217.08841,118.94882 3.13431,13.43853 3.13431,13.43854 3.30024,13.3195 2.96838,13.55757"
       id="path9078"
       sodipodi:nodetypes="ccccc" />
    <path
       style="opacity:0.99;fill:none;stroke:#0000ff;stroke-width:1;stroke-linecap:square;stroke-miterlimit:4;stroke-dasharray:none"
       d="m 230.31036,101.4933 8.77364,13.45806 8.77363,13.45806 8.77364,13.45806 8.77364,13.45806"
       id="path9080"
       sodipodi:nodetypes="ccccc" />
    <path
       style="opacity:0.99;fill:none;stroke:#ff0000;stroke-width:1;stroke-linecap:square;stroke-miterlimit:4;stroke-dasharray:none;marker-start:url(#Arrow2Mstart)"
       d="m 229.65336,123.66935 -9.43064,8.718"
       id="path13579" />
    <path
       style="opacity:0.99;fill:none;stroke:#ff0000;stroke-width:1;stroke-linecap:square;stroke-miterlimit:4;stroke-dasharray:none;marker-end:url(#Arrow2Mend)"
       d="m 239.084,114.95136 -9.43064,8.71799"
       id="path10298" />
    <path
       style="opacity:0.99;fill:none;stroke:#ff0000;stroke-width:1;stroke-linecap:square;stroke-miterlimit:4;stroke-dasharray:none;marker-start:url(#Arrow2Mstart)"
       d="m 241.64427,150.50643 -14.987,8.63896"
       id="path13583" />
    <path
       style="opacity:0.99;fill:none;stroke:#ff0000;stroke-width:1;stroke-linecap:square;stroke-miterlimit:4;stroke-dasharray:none;marker-end:url(#Arrow2Mend)"
       d="m 256.63127,141.86748 -14.987,8.63895"
       id="path10300" />
    <path
       style="opacity:0.99;fill:none;stroke:#ff0000;stroke-width:1;stroke-linecap:square;stroke-miterlimit:4;stroke-dasharray:none;marker-start:url(#Arrow2Mstart)"
       d="m 260.10588,119.66849 -12.24825,8.74093"
       id="path13587" />
    <path
       style="opacity:0.99;fill:none;stroke:#ff0000;stroke-width:1;stroke-linecap:square;stroke-miterlimit:4;stroke-dasharray:none;marker-end:url(#Arrow2Mend)"
       d="m 272.35413,110.92755 -12.24825,8.74094"
       id="path10302" />
    <path
       style="opacity:0.99;fill:none;stroke:#ff0000;stroke-width:1;stroke-linecap:square;stroke-miterlimit:4;stroke-dasharray:none;marker-start:url(#Arrow2Mstart)"
       d="m 211.14831,154.49115 -12.20873,8.66525"
       id="path13575" />
    <path
       style="opacity:0.99;fill:none;stroke:#ff0000;stroke-width:1;stroke-linecap:square;stroke-miterlimit:4;stroke-dasharray:none;marker-end:url(#Arrow2Mend)"
       d="m 223.35703,145.82589 -12.20872,8.66526"
       id="path10304" />
  </g>
</svg>
