<?xml version="1.0" encoding="UTF-8" standalone="no"?>
<svg
   width="639.97833"
   height="109.85612"
   viewBox="-4 -4 703.97615 117.17987"
   version="1.1"
   id="svg70"
   sodipodi:docname="tmp.svg"
   inkscape:version="1.1.2 (0a00cf5339, 2022-02-04)"
   xmlns:inkscape="http://www.inkscape.org/namespaces/inkscape"
   xmlns:sodipodi="http://sodipodi.sourceforge.net/DTD/sodipodi-0.dtd"
   xmlns="http://www.w3.org/2000/svg"
   xmlns:svg="http://www.w3.org/2000/svg">
  <defs
     id="defs74" />
  <sodipodi:namedview
     id="namedview72"
     pagecolor="#ffffff"
     bordercolor="#000000"
     borderopacity="0.25"
     inkscape:pageshadow="2"
     inkscape:pageopacity="0.0"
     inkscape:pagecheckerboard="0"
     showgrid="false"
     inkscape:snap-center="true"
     fit-margin-top="0"
     fit-margin-left="0"
     fit-margin-right="0"
     fit-margin-bottom="0"
     inkscape:zoom="1.967254"
     inkscape:cx="319.98918"
     inkscape:cy="54.898859"
     inkscape:window-width="2256"
     inkscape:window-height="1435"
     inkscape:window-x="0"
     inkscape:window-y="41"
     inkscape:window-maximized="1"
     inkscape:current-layer="svg70" />
  <circle
     cx="505"
     cy="85.519928"
     r="7"
     id="circle2348"
     style="fill:#b3b3b3">
    <title
       id="title2346">undefined - 2-1</title>
  </circle>
  <circle
     cx="504.99997"
     cy="85.519928"
     r="7"
     id="circle2360"
     style="fill:#b3b3b3">
    <title
       id="title2358">undefined - 2-2</title>
  </circle>
  <path
     id="circle1397"
     style="fill:#b3b3b3"
     d="m 331.33331,55.51993 a 7,7 0 0 1 -7,7 7,7 0 0 1 -7,-7 7,7 0 0 1 7,-7 7,7 0 0 1 7,7 z">
    <title
       id="title1395">undefined - 1-0</title>
  </path>
  <path
     id="circle1413"
     style="fill:#b3b3b3"
     d="m 331.33331,55.51993 a 7,7 0 0 1 -7,7 7,7 0 0 1 -7,-7 7,7 0 0 1 7,-7 7,7 0 0 1 7,7 z">
    <title
       id="title1411">undefined - 1-1</title>
  </path>
  <path
     id="circle1429"
     style="fill:#b3b3b3"
     d="m 384.66666,55.51993 a 7,7 0 0 1 -7,7 7,7 0 0 1 -7,-7 7,7 0 0 1 7,-7 7,7 0 0 1 7,7 z">
    <title
       id="title1427">undefined - 1-2</title>
  </path>
  <path
     id="circle1449"
     style="fill:#b3b3b3"
     d="m 384.66666,55.51993 a 7,7 0 0 1 -7,7 7,7 0 0 1 -7,-7 7,7 0 0 1 7,-7 7,7 0 0 1 7,7 z">
    <title
       id="title1447">undefined - 1-3</title>
  </path>
  <path
     id="circle931"
     style="fill:#b3b3b3"
     d="m 204,25.51993 c 0,3.865993 -3.13401,7 -7,7 -3.866,0 -7,-3.134007 -7,-7 0,-3.865993 3.134,-7 7,-7 3.86599,0 7,3.134007 7,7 z"
     sodipodi:nodetypes="sssss">
    <title
       id="title929">undefined - 0-1</title>
  </path>
  <path
     id="circle951"
     style="fill:#b3b3b3"
     d="m 203.99998,25.51993 c 0,3.865993 -3.13401,7 -7,7 -3.866,0 -7,-3.134007 -7,-7 0,-3.865993 3.134,-7 7,-7 3.86599,0 7,3.134007 7,7 z"
     sodipodi:nodetypes="sssss">
    <title
       id="title949">undefined - 0-2</title>
  </path>
  <circle
     cx="3"
     cy="25.51993"
     r="7"
     id="0-0"
     class=""
     style="fill:#b3b3b3">
    <title
       id="title2">undefined - 0-0</title>
  </circle>
  <line
     x1="3"
     y1="-4.4800735"
     x2="3"
     y2="25.51993"
     stroke-width="2"
     stroke="#0000ff"
     class="kiss_0 kiss_even"
     id="line5" />
  <circle
     cx="3"
     cy="55.519932"
     r="7"
     id="1-0"
     class=""
     style="fill:#b3b3b3">
    <title
       id="title7">undefined - 1-0</title>
  </circle>
  <line
     x1="3"
     y1="25.51993"
     x2="3"
     y2="55.519932"
     stroke-width="2"
     stroke="#0000ff"
     class="kiss_0 kiss_even"
     id="line10" />
  <circle
     cx="3"
     cy="85.519928"
     r="7"
     id="2-0"
     class=""
     style="fill:#b3b3b3">
    <title
       id="title12">undefined - 2-0</title>
  </circle>
  <line
     x1="3"
     y1="55.519932"
     x2="3"
     y2="85.519928"
     stroke-width="2"
     stroke="#0000ff"
     class="kiss_0 kiss_even"
     id="line15" />
  <line
     x1="3"
     y1="85.519928"
     x2="3"
     y2="115.51993"
     stroke-width="2"
     stroke="#0000ff"
     class="kiss_0 kiss_even"
     id="line17" />
  <circle
     cx="29.666687"
     cy="25.51993"
     r="7"
     id="0-1"
     class=""
     style="fill:#b3b3b3">
    <title
       id="title19">undefined - 0-1</title>
  </circle>
  <line
     x1="29.666687"
     y1="-4.4800735"
     x2="29.666687"
     y2="25.51993"
     stroke-width="2"
     stroke="#0000ff"
     class="kiss_1 kiss_odd"
     id="line22" />
  <circle
     cx="29.666687"
     cy="55.519932"
     r="7"
     id="1-1"
     class=""
     style="fill:#b3b3b3">
    <title
       id="title24">undefined - 1-1</title>
  </circle>
  <line
     x1="29.666687"
     y1="25.51993"
     x2="29.666687"
     y2="55.519932"
     stroke-width="2"
     stroke="#0000ff"
     class="kiss_1 kiss_odd"
     id="line27" />
  <circle
     cx="29.666687"
     cy="85.519928"
     r="7"
     id="2-1"
     class=""
     style="fill:#b3b3b3">
    <title
       id="title29">undefined - 2-1</title>
  </circle>
  <line
     x1="29.666687"
     y1="55.519932"
     x2="29.666687"
     y2="85.519928"
     stroke-width="2"
     stroke="#0000ff"
     class="kiss_1 kiss_odd"
     id="line32" />
  <line
     x1="29.666687"
     y1="85.519928"
     x2="29.666687"
     y2="115.51993"
     stroke-width="2"
     stroke="#0000ff"
     class="kiss_1 kiss_odd"
     id="line34" />
  <circle
     cx="56.333313"
     cy="25.51993"
     r="7"
     id="0-2"
     class=""
     style="fill:#b3b3b3">
    <title
       id="title36">undefined - 0-2</title>
  </circle>
  <line
     x1="56.333313"
     y1="-4.4800735"
     x2="56.333313"
     y2="25.51993"
     stroke-width="2"
     stroke="#0000ff"
     class="kiss_2 kiss_even"
     id="line39" />
  <circle
     cx="56.333313"
     cy="55.519932"
     r="7"
     id="1-2"
     class=""
     style="fill:#b3b3b3">
    <title
       id="title41">undefined - 1-2</title>
  </circle>
  <line
     x1="56.333313"
     y1="25.51993"
     x2="56.333313"
     y2="55.519932"
     stroke-width="2"
     stroke="#0000ff"
     class="kiss_2 kiss_even"
     id="line44" />
  <circle
     cx="56.333313"
     cy="85.519928"
     r="7"
     id="2-2"
     class=""
     style="fill:#b3b3b3">
    <title
       id="title46">undefined - 2-2</title>
  </circle>
  <line
     x1="56.333313"
     y1="55.519932"
     x2="56.333313"
     y2="85.519928"
     stroke-width="2"
     stroke="#0000ff"
     class="kiss_2 kiss_even"
     id="line49" />
  <line
     x1="56.333313"
     y1="85.519928"
     x2="56.333313"
     y2="115.51993"
     stroke-width="2"
     stroke="#0000ff"
     class="kiss_2 kiss_even"
     id="line51" />
  <circle
     cx="83"
     cy="25.51993"
     r="7"
     id="0-3"
     class=""
     style="fill:#b3b3b3">
    <title
       id="title53">undefined - 0-3</title>
  </circle>
  <line
     x1="83"
     y1="-4.4800735"
     x2="83"
     y2="25.51993"
     stroke-width="2"
     stroke="#0000ff"
     class="kiss_3 kiss_odd"
     id="line56" />
  <circle
     cx="83"
     cy="55.519932"
     r="7"
     id="1-3"
     class=""
     style="fill:#b3b3b3">
    <title
       id="title58">undefined - 1-3</title>
  </circle>
  <line
     x1="83"
     y1="25.51993"
     x2="83"
     y2="55.519932"
     stroke-width="2"
     stroke="#0000ff"
     class="kiss_3 kiss_odd"
     id="line61" />
  <circle
     cx="83"
     cy="85.519928"
     r="7"
     id="2-3"
     class=""
     style="fill:#b3b3b3">
    <title
       id="title63">undefined - 2-3</title>
  </circle>
  <line
     x1="83"
     y1="55.519932"
     x2="83"
     y2="85.519928"
     stroke-width="2"
     stroke="#0000ff"
     class="kiss_3 kiss_odd"
     id="line66" />
  <line
     x1="83"
     y1="85.519928"
     x2="83"
     y2="115.51993"
     stroke-width="2"
     stroke="#0000ff"
     class="kiss_3 kiss_odd"
     id="line68" />
  <circle
     cx="157"
     cy="25.51993"
     r="7"
     id="circle911"
     style="fill:#b3b3b3">
    <title
       id="title909">undefined - 0-0</title>
  </circle>
  <line
     x1="157"
     y1="-4.4800735"
     x2="157"
     y2="25.51993"
     stroke-width="2"
     stroke="#0000ff"
     class="kiss_0 kiss_even"
     id="line913" />
  <circle
     cx="157"
     cy="55.519932"
     r="7"
     id="circle917"
     style="fill:#b3b3b3">
    <title
       id="title915">undefined - 1-0</title>
  </circle>
  <line
     x1="157"
     y1="25.51993"
     x2="157"
     y2="55.519932"
     stroke-width="2"
     stroke="#0000ff"
     class="kiss_0 kiss_even"
     id="line919" />
  <circle
     cx="157"
     cy="85.519928"
     r="7"
     id="circle923"
     style="fill:#b3b3b3">
    <title
       id="title921">undefined - 2-0</title>
  </circle>
  <line
     x1="157"
     y1="55.519932"
     x2="157"
     y2="85.519928"
     stroke-width="2"
     stroke="#0000ff"
     class="kiss_0 kiss_even"
     id="line925" />
  <line
     x1="157"
     y1="85.519928"
     x2="157"
     y2="115.51993"
     stroke-width="2"
     stroke="#0000ff"
     class="kiss_0 kiss_even"
     id="line927" />
  <path
     id="line933"
     class="kiss_1 kiss_odd"
     style="stroke:#0000ff;stroke-width:2"
     d="M 183.66666,-4.4800699 195.97863,25.183536"
     sodipodi:nodetypes="cc" />
  <circle
     cx="183.66666"
     cy="55.519932"
     r="7"
     id="circle937"
     style="fill:#b3b3b3">
    <title
       id="title935">undefined - 1-1</title>
  </circle>
  <path
     id="line939"
     class="kiss_1 kiss_odd"
     style="stroke:#0000ff;stroke-width:2"
     d="M 195.97863,25.183536 183.66666,55.51993"
     sodipodi:nodetypes="cc" />
  <circle
     cx="183.66666"
     cy="85.519928"
     r="7"
     id="circle943"
     style="fill:#b3b3b3">
    <title
       id="title941">undefined - 2-1</title>
  </circle>
  <line
     x1="183.66666"
     y1="55.519932"
     x2="183.66666"
     y2="85.519928"
     stroke-width="2"
     stroke="#0000ff"
     class="kiss_1 kiss_odd"
     id="line945" />
  <line
     x1="183.66666"
     y1="85.519928"
     x2="183.66666"
     y2="115.51993"
     stroke-width="2"
     stroke="#0000ff"
     class="kiss_1 kiss_odd"
     id="line947" />
  <path
     id="line953"
     class="kiss_2 kiss_even"
     style="stroke:#0000ff;stroke-width:2"
     d="M 210.33333,-4.4800699 195.97863,25.183535"
     sodipodi:nodetypes="cc" />
  <circle
     cx="210.33331"
     cy="55.519932"
     r="7"
     id="circle957"
     style="fill:#b3b3b3">
    <title
       id="title955">undefined - 1-2</title>
  </circle>
  <path
     id="line959"
     class="kiss_2 kiss_even"
     style="stroke:#0000ff;stroke-width:2"
     d="m 195.97863,25.183535 14.3547,30.336395"
     sodipodi:nodetypes="cc" />
  <circle
     cx="210.33331"
     cy="85.519928"
     r="7"
     id="circle963"
     style="fill:#b3b3b3">
    <title
       id="title961">undefined - 2-2</title>
  </circle>
  <line
     x1="210.33331"
     y1="55.519932"
     x2="210.33331"
     y2="85.519928"
     stroke-width="2"
     stroke="#0000ff"
     class="kiss_2 kiss_even"
     id="line965" />
  <line
     x1="210.33331"
     y1="85.519928"
     x2="210.33331"
     y2="115.51993"
     stroke-width="2"
     stroke="#0000ff"
     class="kiss_2 kiss_even"
     id="line967" />
  <circle
     cx="237"
     cy="25.51993"
     r="7"
     id="circle971"
     style="fill:#b3b3b3">
    <title
       id="title969">undefined - 0-3</title>
  </circle>
  <line
     x1="237"
     y1="-4.4800735"
     x2="237"
     y2="25.51993"
     stroke-width="2"
     stroke="#0000ff"
     class="kiss_3 kiss_odd"
     id="line973" />
  <circle
     cx="237"
     cy="55.519932"
     r="7"
     id="circle977"
     style="fill:#b3b3b3">
    <title
       id="title975">undefined - 1-3</title>
  </circle>
  <line
     x1="237"
     y1="25.51993"
     x2="237"
     y2="55.519932"
     stroke-width="2"
     stroke="#0000ff"
     class="kiss_3 kiss_odd"
     id="line979" />
  <circle
     cx="237"
     cy="85.519928"
     r="7"
     id="circle983"
     style="fill:#b3b3b3">
    <title
       id="title981">undefined - 2-3</title>
  </circle>
  <line
     x1="237"
     y1="55.519932"
     x2="237"
     y2="85.519928"
     stroke-width="2"
     stroke="#0000ff"
     class="kiss_3 kiss_odd"
     id="line985" />
  <line
     x1="237"
     y1="85.519928"
     x2="237"
     y2="115.51993"
     stroke-width="2"
     stroke="#0000ff"
     class="kiss_3 kiss_odd"
     id="line987" />
  <path
     id="path1383"
     style="fill:#b3b3b3"
     d="m 358,25.51993 c 0,3.865993 -3.13401,7 -7,7 -3.86599,0 -7,-3.134007 -7,-7 0,-3.865993 3.13401,-7 7,-7 3.86599,0 7,3.134007 7,7 z"
     sodipodi:nodetypes="sssss">
    <title
       id="title1381">undefined - 0-1</title>
  </path>
  <path
     id="path1387"
     style="fill:#b3b3b3"
     d="m 357.99998,25.51993 c 0,3.865993 -3.13401,7 -7,7 -3.86599,0 -7,-3.134007 -7,-7 0,-3.865993 3.13401,-7 7,-7 3.86599,0 7,3.134007 7,7 z"
     sodipodi:nodetypes="sssss">
    <title
       id="title1385">undefined - 0-2</title>
  </path>
  <circle
     cx="311"
     cy="25.51993"
     r="7"
     id="circle1391"
     style="fill:#b3b3b3">
    <title
       id="title1389">undefined - 0-0</title>
  </circle>
  <line
     x1="311"
     y1="-4.4800735"
     x2="311"
     y2="25.51993"
     stroke-width="2"
     stroke="#0000ff"
     class="kiss_0 kiss_even"
     id="line1393" />
  <path
     id="line1399"
     class="kiss_0 kiss_even"
     style="stroke:#0000ff;stroke-width:2"
     d="m 311,25.51993 13.33331,30"
     sodipodi:nodetypes="cc" />
  <circle
     cx="311"
     cy="85.519928"
     r="7"
     id="circle1403"
     style="fill:#b3b3b3">
    <title
       id="title1401">undefined - 2-0</title>
  </circle>
  <path
     id="line1405"
     class="kiss_0 kiss_even"
     style="stroke:#0000ff;stroke-width:2"
     d="M 324.33331,55.51993 311,85.51993"
     sodipodi:nodetypes="cc" />
  <line
     x1="311"
     y1="85.519928"
     x2="311"
     y2="115.51993"
     stroke-width="2"
     stroke="#0000ff"
     class="kiss_0 kiss_even"
     id="line1407" />
  <path
     id="path1409"
     class="kiss_1 kiss_odd"
     style="stroke:#0000ff;stroke-width:2"
     d="M 337.66666,-4.4800699 351,25.51993"
     sodipodi:nodetypes="cc" />
  <path
     id="path1415"
     class="kiss_1 kiss_odd"
     style="stroke:#0000ff;stroke-width:2"
     d="m 351,25.51993 -26.66669,30"
     sodipodi:nodetypes="cc" />
  <circle
     cx="337.66666"
     cy="85.519928"
     r="7"
     id="circle1419"
     style="fill:#b3b3b3">
    <title
       id="title1417">undefined - 2-1</title>
  </circle>
  <path
     id="line1421"
     class="kiss_1 kiss_odd"
     style="stroke:#0000ff;stroke-width:2"
     d="m 324.33331,55.51993 13.33335,30"
     sodipodi:nodetypes="cc" />
  <line
     x1="337.66666"
     y1="85.519928"
     x2="337.66666"
     y2="115.51993"
     stroke-width="2"
     stroke="#0000ff"
     class="kiss_1 kiss_odd"
     id="line1423" />
  <path
     id="path1425"
     class="kiss_2 kiss_even"
     style="stroke:#0000ff;stroke-width:2"
     d="M 364.33333,-4.4800699 351,25.51993"
     sodipodi:nodetypes="cc" />
  <path
     id="path1431"
     class="kiss_2 kiss_even"
     style="stroke:#0000ff;stroke-width:2"
     d="m 351,25.51993 26.66668,30"
     sodipodi:nodetypes="cc" />
  <circle
     cx="364.33331"
     cy="85.519928"
     r="7"
     id="circle1435"
     style="fill:#b3b3b3">
    <title
       id="title1433">undefined - 2-2</title>
  </circle>
  <path
     id="line1437"
     class="kiss_2 kiss_even"
     style="stroke:#0000ff;stroke-width:2"
     d="m 377.66666,55.51993 -13.33335,30"
     sodipodi:nodetypes="cc" />
  <line
     x1="364.33331"
     y1="85.519928"
     x2="364.33331"
     y2="115.51993"
     stroke-width="2"
     stroke="#0000ff"
     class="kiss_2 kiss_even"
     id="line1439" />
  <circle
     cx="391"
     cy="25.51993"
     r="7"
     id="circle1443"
     style="fill:#b3b3b3">
    <title
       id="title1441">undefined - 0-3</title>
  </circle>
  <line
     x1="391"
     y1="-4.4800735"
     x2="391"
     y2="25.51993"
     stroke-width="2"
     stroke="#0000ff"
     class="kiss_3 kiss_odd"
     id="line1445" />
  <path
     id="line1451"
     class="kiss_3 kiss_odd"
     style="stroke:#0000ff;stroke-width:2"
     d="m 391,25.51993 -13.33332,30"
     sodipodi:nodetypes="cc" />
  <circle
     cx="391"
     cy="85.519928"
     r="7"
     id="circle1455"
     style="fill:#b3b3b3">
    <title
       id="title1453">undefined - 2-3</title>
  </circle>
  <path
     id="line1457"
     class="kiss_3 kiss_odd"
     style="stroke:#0000ff;stroke-width:2"
     d="m 377.66668,55.51993 13.33332,30"
     sodipodi:nodetypes="cc" />
  <line
     x1="391"
     y1="85.519928"
     x2="391"
     y2="115.51993"
     stroke-width="2"
     stroke="#0000ff"
     class="kiss_3 kiss_odd"
     id="line1459" />
  <path
     id="path2304"
     style="fill:#b3b3b3"
     d="m 485.33331,55.51993 a 7,7 0 0 1 -7,7 7,7 0 0 1 -7,-7 7,7 0 0 1 7,-7 7,7 0 0 1 7,7 z">
    <title
       id="title2302">undefined - 1-0</title>
  </path>
  <path
     id="path2308"
     style="fill:#b3b3b3"
     d="m 485.33331,55.51993 a 7,7 0 0 1 -7,7 7,7 0 0 1 -7,-7 7,7 0 0 1 7,-7 7,7 0 0 1 7,7 z">
    <title
       id="title2306">undefined - 1-1</title>
  </path>
  <path
     id="path2312"
     style="fill:#b3b3b3"
     d="m 538.66666,55.51993 a 7,7 0 0 1 -7,7 7,7 0 0 1 -7,-7 7,7 0 0 1 7,-7 7,7 0 0 1 7,7 z">
    <title
       id="title2310">undefined - 1-2</title>
  </path>
  <path
     id="path2316"
     style="fill:#b3b3b3"
     d="m 538.66666,55.51993 a 7,7 0 0 1 -7,7 7,7 0 0 1 -7,-7 7,7 0 0 1 7,-7 7,7 0 0 1 7,7 z">
    <title
       id="title2314">undefined - 1-3</title>
  </path>
  <path
     id="path2320"
     style="fill:#b3b3b3"
     d="m 512,25.51993 c 0,3.865993 -3.13401,7 -7,7 -3.86599,0 -7,-3.134007 -7,-7 0,-3.865993 3.13401,-7 7,-7 3.86599,0 7,3.134007 7,7 z"
     sodipodi:nodetypes="sssss">
    <title
       id="title2318">undefined - 0-1</title>
  </path>
  <path
     id="path2324"
     style="fill:#b3b3b3"
     d="m 511.99998,25.51993 c 0,3.865993 -3.13401,7 -7,7 -3.86599,0 -7,-3.134007 -7,-7 0,-3.865993 3.13401,-7 7,-7 3.86599,0 7,3.134007 7,7 z"
     sodipodi:nodetypes="sssss">
    <title
       id="title2322">undefined - 0-2</title>
  </path>
  <circle
     cx="465"
     cy="25.51993"
     r="7"
     id="circle2328"
     style="fill:#b3b3b3">
    <title
       id="title2326">undefined - 0-0</title>
  </circle>
  <line
     x1="465"
     y1="-4.4800735"
     x2="465"
     y2="25.51993"
     stroke-width="2"
     stroke="#0000ff"
     class="kiss_0 kiss_even"
     id="line2330" />
  <path
     id="path2332"
     class="kiss_0 kiss_even"
     style="stroke:#0000ff;stroke-width:2"
     d="m 465,25.51993 13.33331,30"
     sodipodi:nodetypes="cc" />
  <circle
     cx="465"
     cy="85.519928"
     r="7"
     id="circle2336"
     style="fill:#b3b3b3">
    <title
       id="title2334">undefined - 2-0</title>
  </circle>
  <path
     id="path2338"
     class="kiss_0 kiss_even"
     style="stroke:#0000ff;stroke-width:2"
     d="M 478.33331,55.51993 465,85.51993"
     sodipodi:nodetypes="cc" />
  <path
     id="line2340"
     class="kiss_0 kiss_even"
     style="stroke:#0000ff;stroke-width:2"
     d="m 465,85.51993 v 30" />
  <path
     id="path2342"
     class="kiss_1 kiss_odd"
     style="stroke:#0000ff;stroke-width:2"
     d="M 491.66666,-4.4800699 505,25.51993"
     sodipodi:nodetypes="cc" />
  <path
     id="path2344"
     class="kiss_1 kiss_odd"
     style="stroke:#0000ff;stroke-width:2"
     d="m 505,25.51993 -26.66669,30"
     sodipodi:nodetypes="cc" />
  <path
     id="path2350"
     class="kiss_1 kiss_odd"
     style="stroke:#0000ff;stroke-width:2"
     d="m 478.33331,55.51993 26.66666,30"
     sodipodi:nodetypes="cc" />
  <path
     id="line2352"
     class="kiss_1 kiss_odd"
     style="stroke:#0000ff;stroke-width:2"
     d="m 504.99997,85.51993 -13.33331,30"
     sodipodi:nodetypes="cc" />
  <path
     id="path2354"
     class="kiss_2 kiss_even"
     style="stroke:#0000ff;stroke-width:2"
     d="M 518.33333,-4.4800699 505,25.51993"
     sodipodi:nodetypes="cc" />
  <path
     id="path2356"
     class="kiss_2 kiss_even"
     style="stroke:#0000ff;stroke-width:2"
     d="m 505,25.51993 26.66668,30"
     sodipodi:nodetypes="cc" />
  <path
     id="path2362"
     class="kiss_2 kiss_even"
     style="stroke:#0000ff;stroke-width:2"
     d="M 531.66666,55.51993 505,85.51993"
     sodipodi:nodetypes="cc" />
  <path
     id="line2364"
     class="kiss_2 kiss_even"
     style="stroke:#0000ff;stroke-width:2"
     d="m 505,85.51993 13.33331,30"
     sodipodi:nodetypes="cc" />
  <circle
     cx="545"
     cy="25.51993"
     r="7"
     id="circle2368"
     style="fill:#b3b3b3">
    <title
       id="title2366">undefined - 0-3</title>
  </circle>
  <line
     x1="545"
     y1="-4.4800735"
     x2="545"
     y2="25.51993"
     stroke-width="2"
     stroke="#0000ff"
     class="kiss_3 kiss_odd"
     id="line2370" />
  <path
     id="path2372"
     class="kiss_3 kiss_odd"
     style="stroke:#0000ff;stroke-width:2"
     d="m 545,25.51993 -13.33332,30"
     sodipodi:nodetypes="cc" />
  <circle
     cx="545"
     cy="85.519928"
     r="7"
     id="circle2376"
     style="fill:#b3b3b3">
    <title
       id="title2374">undefined - 2-3</title>
  </circle>
  <path
     id="path2378"
     class="kiss_3 kiss_odd"
     style="stroke:#0000ff;stroke-width:2"
     d="m 531.66668,55.51993 13.33332,30"
     sodipodi:nodetypes="cc" />
  <path
     id="line2380"
     class="kiss_3 kiss_odd"
     style="stroke:#0000ff;stroke-width:2"
     d="m 545,85.51993 v 30" />
  <circle
     cx="659"
     cy="85.519928"
     r="7"
     id="circle2676"
     style="fill:#b3b3b3">
    <title
       id="title2674">undefined - 2-1</title>
  </circle>
  <circle
     cx="659"
     cy="85.519928"
     r="7"
     id="circle2680"
     style="fill:#b3b3b3">
    <title
       id="title2678">undefined - 2-2</title>
  </circle>
  <path
     id="path2684"
     style="fill:#b3b3b3"
     d="m 639.33331,55.51993 a 7,7 0 0 1 -7,7 7,7 0 0 1 -7,-7 7,7 0 0 1 7,-7 7,7 0 0 1 7,7 z">
    <title
       id="title2682">undefined - 1-0</title>
  </path>
  <path
     id="path2688"
     style="fill:#b3b3b3"
     d="m 639.33331,55.51993 a 7,7 0 0 1 -7,7 7,7 0 0 1 -7,-7 7,7 0 0 1 7,-7 7,7 0 0 1 7,7 z">
    <title
       id="title2686">undefined - 1-1</title>
  </path>
  <path
     id="path2692"
     style="fill:#b3b3b3"
     d="m 692.66666,55.51993 a 7,7 0 0 1 -7,7 7,7 0 0 1 -7,-7 7,7 0 0 1 7,-7 7,7 0 0 1 7,7 z">
    <title
       id="title2690">undefined - 1-2</title>
  </path>
  <path
     id="path2696"
     style="fill:#b3b3b3"
     d="m 692.66666,55.51993 a 7,7 0 0 1 -7,7 7,7 0 0 1 -7,-7 7,7 0 0 1 7,-7 7,7 0 0 1 7,7 z">
    <title
       id="title2694">undefined - 1-3</title>
  </path>
  <path
     id="path2700"
     style="fill:#b3b3b3"
     d="m 666,25.51993 c 0,3.865993 -3.13401,7 -7,7 -3.86599,0 -7,-3.134007 -7,-7 0,-3.865993 3.13401,-7 7,-7 3.86599,0 7,3.134007 7,7 z"
     sodipodi:nodetypes="sssss">
    <title
       id="title2698">undefined - 0-1</title>
  </path>
  <path
     id="path2704"
     style="fill:#b3b3b3"
     d="m 665.99998,25.51993 c 0,3.865993 -3.13401,7 -7,7 -3.86599,0 -7,-3.134007 -7,-7 0,-3.865993 3.13401,-7 7,-7 3.86599,0 7,3.134007 7,7 z"
     sodipodi:nodetypes="sssss">
    <title
       id="title2702">undefined - 0-2</title>
  </path>
  <path
     id="path2720"
     class="kiss_0 kiss_even"
     style="stroke:#0000ff;stroke-width:2"
     d="m 632.33331,55.51993 -13.33331,60"
     sodipodi:nodetypes="cc" />
  <path
     id="line2710"
     class="kiss_0 kiss_even"
     style="stroke:#0000ff;stroke-width:2"
     d="M 619,-4.4800699 632.33331,55.51993"
     sodipodi:nodetypes="cc" />
  <path
     id="path2722"
     class="kiss_1 kiss_odd"
     style="stroke:#0000ff;stroke-width:2"
     d="M 645.66666,-4.4800699 659,25.51993"
     sodipodi:nodetypes="cc" />
  <path
     id="path2724"
     class="kiss_1 kiss_odd"
     style="stroke:#0000ff;stroke-width:2"
     d="m 659,25.51993 -26.66669,30"
     sodipodi:nodetypes="cc" />
  <path
     id="path2726"
     class="kiss_1 kiss_odd"
     style="stroke:#0000ff;stroke-width:2"
     d="m 632.33331,55.51993 26.66666,30"
     sodipodi:nodetypes="cc" />
  <path
     id="path2728"
     class="kiss_1 kiss_odd"
     style="stroke:#0000ff;stroke-width:2"
     d="m 658.99997,85.51993 -13.33331,30"
     sodipodi:nodetypes="cc" />
  <path
     id="path2730"
     class="kiss_2 kiss_even"
     style="stroke:#0000ff;stroke-width:2"
     d="M 672.33333,-4.4800699 659,25.51993"
     sodipodi:nodetypes="cc" />
  <path
     id="path2732"
     class="kiss_2 kiss_even"
     style="stroke:#0000ff;stroke-width:2"
     d="m 659,25.51993 26.66668,30"
     sodipodi:nodetypes="cc" />
  <path
     id="path2734"
     class="kiss_2 kiss_even"
     style="stroke:#0000ff;stroke-width:2"
     d="M 685.66666,55.51993 659,85.51993"
     sodipodi:nodetypes="cc" />
  <path
     id="path2736"
     class="kiss_2 kiss_even"
     style="stroke:#0000ff;stroke-width:2"
     d="m 659,85.51993 13.33331,30"
     sodipodi:nodetypes="cc" />
  <path
     id="line2742"
     class="kiss_3 kiss_odd"
     style="stroke:#0000ff;stroke-width:2"
     d="M 699,-4.4800699 685.66666,55.51993"
     sodipodi:nodetypes="cc" />
  <path
     id="path2752"
     class="kiss_3 kiss_odd"
     style="stroke:#0000ff;stroke-width:2"
     d="m 685.66668,55.51993 13.33332,60"
     sodipodi:nodetypes="cc" />
</svg>
